<svg width="51" height="50" viewBox="0 0 51 50" fill="none" xmlns="http://www.w3.org/2000/svg">
<path d="M23.3975 25.3357C24.0689 25.6953 24.9303 25.8752 25.7919 25.8752C26.6532 25.8752 27.5149 25.6953 28.1862 25.3357C28.5428 25.1446 28.6769 24.7008 28.4859 24.3442C28.2949 23.9877 27.8511 23.8535 27.4945 24.0445C26.5715 24.539 25.0121 24.5389 24.0893 24.0445C23.7329 23.8536 23.289 23.9877 23.0979 24.3442C22.9068 24.7007 23.0409 25.1446 23.3975 25.3357Z" fill="#0077C1"/>
<path d="M42.7186 33.3023C40.974 31.7322 38.6887 30.543 36.3885 29.9979C36.0645 29.7627 34.3936 28.5485 32.9942 27.5033C34.7763 25.8045 36.1567 23.6635 36.7759 21.4856C37.477 21.3489 38.1893 20.9652 38.7646 20.398C39.466 19.7065 39.8683 18.8384 39.8683 18.0161V16.9255C39.8683 15.9142 39.0445 15.0914 38.032 15.0914H37.1211V13.4404V9.8502C37.1211 5.3082 33.4432 2.26836 30.0012 0.937986C25.7675 -0.698246 21.4328 -0.158109 19.2165 2.28047C19.1725 2.32861 19.1359 2.36992 19.1049 2.40566C19.0574 2.4124 19.0022 2.4206 18.9378 2.43144C16.7392 2.79433 15.1738 4.29902 14.4109 6.78301C13.8324 8.66651 13.8628 10.5974 13.8741 11.3242C13.8752 11.3941 13.8762 11.4514 13.8762 11.4944V13.2799V15.0914H12.9653C11.9543 15.0914 11.1318 15.9142 11.1318 16.9255V18.0161C11.1318 18.8391 11.5342 19.7078 12.2357 20.3995C12.8101 20.9658 13.5211 21.3489 14.2212 21.4855C14.841 23.6651 16.224 25.808 18.0088 27.5075C17.6955 27.7499 17.3074 28.051 16.9079 28.361C16.1038 28.985 15.2061 29.6816 14.8618 29.9423C12.4779 30.4581 10.0893 31.6748 8.28115 33.3023C6.09746 35.2677 4.94336 37.6165 4.94336 40.0946V42.4752C4.94336 42.8797 5.27129 43.2076 5.67578 43.2076C6.08027 43.2076 6.4082 42.8797 6.4082 42.4752V40.0946C6.4082 35.84 10.7346 32.3877 15.0234 31.4053L19.6267 34.8305C19.6429 34.8425 19.6594 34.8538 19.6765 34.8645C19.8504 34.9729 19.9641 35.0615 20.0554 35.1329C20.3259 35.3442 20.5556 35.4281 20.7591 35.4281C21.0942 35.4281 21.358 35.2003 21.6152 34.9379C21.7588 34.7915 21.9664 34.5797 22.293 34.2896L22.7538 36.0983L20.0872 44.986C20.0856 44.9912 20.0826 45.0004 20.0812 45.0058C20.0516 45.093 19.9614 45.3584 20.1354 45.6933L21.6324 48.5305H13.3132V43.4139C13.3132 43.0094 12.9853 42.6815 12.5808 42.6815C12.1763 42.6815 11.8483 43.0094 11.8483 43.4139V48.5305H6.9207C6.83486 48.5305 6.75254 48.532 6.67402 48.5333C6.59287 48.5347 6.49404 48.5367 6.41465 48.5346C6.41094 48.4935 6.4082 48.44 6.4082 48.3715V45.8082C6.4082 45.4037 6.08027 45.0758 5.67578 45.0758C5.27129 45.0758 4.94336 45.4037 4.94336 45.8082V48.3715C4.94336 48.737 4.98643 49.2653 5.35869 49.631C5.69287 49.9592 6.11045 50.0002 6.50312 50.0002C6.56963 50.0002 6.63555 49.999 6.7001 49.9979C6.77031 49.9966 6.84385 49.9952 6.92061 49.9952H22.8454C22.8461 49.9952 22.8469 49.9953 22.8476 49.9953C22.8483 49.9953 22.8491 49.9952 22.85 49.9952H25.5H28.1473C28.148 49.9952 28.1488 49.9953 28.1497 49.9953C28.1504 49.9953 28.1511 49.9952 28.1519 49.9952H44.0794C44.1562 49.9952 44.2297 49.9966 44.2999 49.9979C44.3645 49.999 44.4303 50.0002 44.4969 50.0002C44.8896 50.0002 45.3072 49.9592 45.6413 49.631C46.0137 49.2654 46.0566 48.737 46.0566 48.3715V40.0947C46.0566 37.6163 44.9023 35.2676 42.7186 33.3023ZM37.1211 19.1732V16.5562H38.0319C38.2333 16.5562 38.4033 16.7253 38.4033 16.9255V18.0161C38.4033 18.4425 38.1539 18.943 37.7361 19.3549C37.5388 19.5494 37.3178 19.7114 37.0913 19.8324C37.1111 19.6095 37.1211 19.3895 37.1211 19.1732ZM13.2643 19.3565C12.8463 18.9443 12.5968 18.4433 12.5968 18.0161V16.9255C12.5968 16.7253 12.7656 16.5562 12.9654 16.5562H13.8763V19.1732C13.8763 19.3893 13.8862 19.6092 13.9061 19.8319C13.6806 19.7113 13.4605 19.5501 13.2643 19.3565ZM34.7547 30.6203L30.6992 33.6379C30.6171 33.6898 30.5446 33.7385 30.4808 33.7834C30.3043 33.6059 30.0583 33.3667 29.6968 33.0538L28.9146 32.3516C28.8582 32.2768 28.7874 32.2125 28.7049 32.1633L27.1843 30.7983C27.598 30.7016 28.0272 30.5708 28.4835 30.4004C29.666 29.9597 30.8096 29.2978 31.8576 28.4822C32.8306 29.2121 33.99 30.0623 34.7547 30.6203ZM27.5069 33.0565L26.9144 35.3817H24.0829L23.5141 33.1492L25.5121 31.2657L27.5069 33.0565ZM19.178 3.87637C19.2646 3.86182 19.3299 3.85312 19.3806 3.84619C19.756 3.79551 19.917 3.7081 20.1635 3.4209C20.1964 3.38252 20.2388 3.3331 20.2989 3.26738C21.3711 2.08769 23.1593 1.47363 25.2 1.47363C26.5581 1.47363 28.0281 1.7457 29.473 2.3042C32.4622 3.45947 35.6562 6.04853 35.6562 9.8502V13.0651C33.3009 9.7585 30.7531 9.975 28.0819 10.2021C26.0623 10.3735 23.9741 10.551 21.5544 9.28428C20.4199 8.69053 18.2147 8.20986 16.1921 11.6619L15.341 13.1185V11.4943C15.341 11.4455 15.34 11.3806 15.3388 11.3012C15.2902 8.21113 15.9166 4.41465 19.178 3.87637ZM32.7342 14.535H27.4586C26.8259 14.535 26.3112 15.0498 26.3112 15.6825V16.275C25.7582 16.1813 25.2016 16.1817 24.6445 16.2769V15.6825C24.6445 15.0497 24.1311 14.535 23.4999 14.535H18.2243C17.5932 14.535 17.0797 15.0498 17.0797 15.6825V16.1085L15.6557 15.4834L17.4564 12.4016C19.0746 9.63975 20.3828 10.3242 20.8751 10.5819C23.673 12.0464 26.0813 11.8418 28.206 11.6614C31.0898 11.4163 33.2123 11.2363 35.3928 15.4572L33.8788 16.1139V15.6825C33.8788 15.0498 33.3653 14.535 32.7342 14.535ZM32.414 15.9997V17.233V17.2396V18.4574H27.7761V15.9998H32.414V15.9997ZM23.1797 15.9997V18.4573H18.5445V17.2421C18.5445 17.2402 18.5445 17.2384 18.5445 17.2365V15.9997H23.1797ZM15.5162 20.6458C15.3999 20.1374 15.341 19.6419 15.341 19.1732V16.9451L17.0797 17.7083V18.7774C17.0797 19.4086 17.5932 19.9222 18.2243 19.9222H23.4999C24.1311 19.9222 24.6445 19.4086 24.6445 18.7774V17.7704C25.2062 17.6351 25.7575 17.6343 26.3112 17.7683V18.7773C26.3112 19.4085 26.826 19.9221 27.4586 19.9221H32.7342C33.3653 19.9221 33.8788 19.4085 33.8788 18.7773V17.7106L35.6562 16.9398V19.1732C35.6562 19.6419 35.5973 20.1374 35.481 20.6463C34.6881 24.1245 31.46 27.7277 27.9715 29.028C27.0396 29.3761 26.2543 29.5381 25.5 29.5381C24.7432 29.5381 23.958 29.3761 23.0281 29.0278C19.5384 27.7272 16.309 24.1239 15.5162 20.6458ZM22.2104 32.3651C22.2023 32.3723 22.1945 32.3798 22.1867 32.3874L21.4734 33.0598C21.1156 33.3697 20.8716 33.607 20.6963 33.7834C20.6324 33.7385 20.56 33.6898 20.4778 33.6379L16.4027 30.6057C16.8064 30.2939 17.3105 29.9026 17.806 29.5183C18.2788 29.1513 18.79 28.7547 19.1412 28.4836C19.1539 28.4936 19.1668 28.5025 19.1796 28.512C20.2173 29.3137 21.3474 29.9647 22.5154 30.4C22.9782 30.5734 23.4135 30.7054 23.8335 30.8028C23.842 30.8057 23.8505 30.8089 23.8592 30.8109L22.2104 32.3651ZM44.5918 48.3714C44.5918 48.4399 44.5891 48.4934 44.5854 48.5345C44.506 48.5364 44.4071 48.5345 44.326 48.5332C44.2475 48.5318 44.1652 48.5304 44.0793 48.5304H38.5374V43.4138C38.5374 43.0093 38.2095 42.6814 37.805 42.6814C37.4005 42.6814 37.0726 43.0093 37.0726 43.4138V48.5304H29.3647L30.8587 45.6989C30.982 45.4728 31.0004 45.2443 30.9126 44.995C30.9117 44.992 30.9108 44.9889 30.9099 44.9859L30.0107 41.9907C29.8945 41.6033 29.4862 41.3837 29.0987 41.4998C28.7113 41.6161 28.4915 42.0244 28.6078 42.4118L29.4523 45.2252L27.7085 48.5303H25.5H23.2887L21.5448 45.2251L24.0587 36.8464H26.9387L27.6756 39.3029C27.7708 39.6202 28.0618 39.8251 28.3769 39.8251C28.4465 39.8251 28.5174 39.8151 28.5876 39.7941C28.9751 39.6778 29.1949 39.2696 29.0787 38.8821L28.2436 36.0981L28.7373 34.1606C29.1503 34.5179 29.3979 34.7704 29.5619 34.9377C29.8192 35.2002 30.0829 35.4279 30.4182 35.4279C30.6216 35.4279 30.8514 35.344 31.1219 35.1327C31.2133 35.0614 31.327 34.9727 31.5008 34.8643C31.5178 34.8536 31.5344 34.8423 31.5505 34.8303L36.1108 31.437C40.3558 32.4605 44.592 35.8846 44.592 40.0945V48.3714H44.5918Z" fill="#0077C1"/>
</svg>
