<svg width="51" height="50" viewBox="0 0 51 50" fill="none" xmlns="http://www.w3.org/2000/svg">
<path d="M41.3209 31.507C41.3209 31.1025 40.9931 30.7745 40.5885 30.7745H9.27441C8.86982 30.7745 8.54199 31.1025 8.54199 31.507C8.54199 31.9115 8.86982 32.2394 9.27441 32.2394H40.5885C40.9931 32.2394 41.3209 31.9115 41.3209 31.507Z" fill="#0077C1"/>
<path d="M9.27441 27.5556H40.5885C40.9931 27.5556 41.3209 27.2276 41.3209 26.8231C41.3209 26.4187 40.9931 26.0907 40.5885 26.0907H9.27441C8.86982 26.0907 8.54199 26.4187 8.54199 26.8231C8.54199 27.2276 8.86982 27.5556 9.27441 27.5556Z" fill="#0077C1"/>
<path d="M39.4337 37.7667C38.6723 37.7264 38.5074 37.3906 38.2791 36.9257C38.1038 36.5686 37.7385 35.8257 36.868 35.9916C36.19 36.1217 35.8708 36.6887 35.5621 37.237C35.4007 37.5239 35.2336 37.8205 35.0002 38.116C34.8283 38.3336 34.7117 38.3954 34.6739 38.3976C34.6443 38.3993 34.4717 38.3839 33.9876 37.9039C32.7268 36.6504 31.7459 37.5051 31.2745 37.9159C31.0979 38.0696 30.898 38.2439 30.7661 38.2677C30.6441 38.2901 30.4152 38.1623 30.1578 37.9256C29.86 37.6518 29.3967 37.6713 29.1229 37.9692C28.8491 38.267 28.8686 38.7303 29.1665 39.0041C30.6698 40.3859 31.7281 39.4635 32.2367 39.0204C32.3617 38.9114 32.5711 38.7291 32.6434 38.7161C32.6444 38.7162 32.7447 38.7339 32.9553 38.9433C33.4167 39.4008 33.9783 39.8627 34.6685 39.8627C34.6995 39.8627 34.731 39.8617 34.7626 39.8598C35.2692 39.8292 35.7359 39.5479 36.1497 39.0239C36.4539 38.6387 36.6672 38.2599 36.8386 37.9556C36.8903 37.8636 36.9506 37.7565 37.0085 37.661C37.2896 38.2251 37.8211 39.1483 39.3564 39.2295C39.7584 39.2497 40.1052 38.9406 40.1264 38.5367C40.1477 38.1328 39.8376 37.7881 39.4337 37.7667Z" fill="#0077C1"/>
<path d="M17.6699 23.1954H31.8846C32.2892 23.1954 32.617 22.8675 32.617 22.463C32.617 22.0585 32.2892 21.7306 31.8846 21.7306H17.6699C17.2653 21.7306 16.9375 22.0585 16.9375 22.463C16.9375 22.8675 17.2654 23.1954 17.6699 23.1954Z" fill="#0077C1"/>
<path d="M49.2638 13.0353H42.9881C42.6681 12.5561 42.1882 12.1924 41.6251 12.021V9.7333C42.1689 9.37988 42.4757 8.81426 42.4457 8.1543C42.4873 7.23516 41.877 6.49482 40.8765 6.25977L27.4156 3.11641C26.2316 2.82354 25.5994 2.68555 24.92 2.68555C24.2432 2.68555 23.6112 2.82354 22.4363 3.11426L17.0355 4.37578C16.6417 4.46777 16.397 4.86172 16.4889 5.25557C16.581 5.64961 16.9755 5.89443 17.3687 5.80215L22.7787 4.53838C23.8451 4.27461 24.404 4.15029 24.9199 4.15029C25.4385 4.15029 25.9975 4.27451 27.0731 4.54062L40.5424 7.68594C40.8483 7.75781 40.9961 7.89775 40.9814 8.10176C40.9789 8.13662 40.9789 8.17178 40.9814 8.20664C40.994 8.38203 40.8858 8.50898 40.66 8.58613C40.6559 8.5875 40.652 8.58916 40.6479 8.59053C40.6154 8.60117 40.5807 8.61084 40.5433 8.61953L35.6757 9.75625C35.66 9.75918 35.6447 9.76309 35.6294 9.76709L27.0637 11.7674C25.9652 12.0392 25.4305 12.1582 24.9198 12.1582C24.4117 12.1582 23.8771 12.0392 22.7693 11.7651L9.29795 8.61934C8.99297 8.54883 8.84521 8.40869 8.85889 8.20283C8.86104 8.17051 8.86104 8.13818 8.85889 8.10596C8.84521 7.89941 8.99375 7.75811 9.29951 7.68633L14.0054 6.58799C14.3992 6.49609 14.644 6.10215 14.5521 5.7083C14.4603 5.31445 14.0662 5.06953 13.6724 5.16152L8.96553 6.26016C7.96787 6.49434 7.35615 7.23496 7.39463 8.1543C7.35596 9.07578 7.96865 9.81553 8.96641 10.0462L13.2671 11.0505V13.0354H1.73623C1.05459 13.0353 0.5 13.5897 0.5 14.2712V46.0785C0.5 46.7601 1.05459 47.3145 1.73623 47.3145H49.2638C49.9454 47.3145 50.5 46.7601 50.5 46.0785V14.2712C50.5 13.5897 49.9454 13.0353 49.2638 13.0353ZM41.9457 14.4289V16.0999C41.9457 16.2393 41.9179 16.3721 41.8684 16.4938C41.8661 16.4992 41.8643 16.505 41.8621 16.5104C41.7017 16.8871 41.3275 17.152 40.8926 17.152C40.4576 17.152 40.0835 16.8871 39.9231 16.5104C39.921 16.505 39.9191 16.4992 39.9169 16.4938C39.8675 16.3721 39.8396 16.2393 39.8396 16.0999V14.4289C39.8396 14.13 39.9655 13.8604 40.1666 13.6687C40.2119 14.0298 40.5193 14.3092 40.8927 14.3092C41.266 14.3092 41.5733 14.0297 41.6188 13.6687C41.8197 13.8605 41.9457 14.1301 41.9457 14.4289ZM36.5039 16.0481C36.5308 15.8848 36.5454 15.7175 36.5454 15.5467V14.5002H38.3747V16.0481H36.5039ZM38.7974 13.0353H36.5455V11.0575L40.1604 10.2134V12.021C39.5973 12.1925 39.1174 12.5561 38.7974 13.0353ZM22.4271 13.1896C23.5469 13.4665 24.2147 13.6231 24.92 13.6231C25.6281 13.6231 26.296 13.4665 27.4062 13.1918L35.0806 11.3996V15.5466C35.0806 15.8474 34.9966 16.1284 34.8523 16.3695C34.8387 16.3896 34.826 16.4104 34.8144 16.4318C34.5416 16.844 34.0836 17.1239 33.554 17.1501C33.5485 17.1503 33.5433 17.1507 33.5379 17.1511C33.5165 17.1526 33.4951 17.152 33.4738 17.152H16.3387C16.3214 17.152 16.3041 17.1526 16.2869 17.1514C16.2791 17.1508 16.2713 17.1503 16.2635 17.1499C15.419 17.1121 14.7319 16.3929 14.7319 15.5466V11.3925L22.4271 13.1896ZM49.0352 45.8496H1.96484V14.5001H13.267V15.5466C13.267 15.7174 13.2816 15.8848 13.3083 16.048H4.73145C4.06045 16.048 3.51455 16.5937 3.51455 17.2646V43.0851C3.51455 43.7544 4.06045 44.2988 4.73145 44.2988H23.7353C24.1398 44.2988 24.4677 43.9709 24.4677 43.5664C24.4677 43.1619 24.1398 42.834 23.7353 42.834H4.97939V17.513H13.9773C14.5088 18.1509 15.295 18.57 16.1877 18.6129C16.238 18.6162 16.2882 18.6169 16.3386 18.6169H33.4738C33.527 18.6169 33.5802 18.6163 33.6333 18.6129C34.5212 18.5671 35.3035 18.1481 35.8334 17.513H38.8102C39.2637 18.1787 40.0278 18.6169 40.8926 18.6169C41.7573 18.6169 42.5215 18.1788 42.975 17.513H46.0177V42.8341H27.1152C26.7106 42.8341 26.3828 43.162 26.3828 43.5665C26.3828 43.971 26.7106 44.2989 27.1152 44.2989H46.2686C46.938 44.2989 47.4827 43.7544 47.4827 43.0852V17.2646C47.4827 16.5938 46.9381 16.048 46.2686 16.048H43.4105V14.5001H49.0352V45.8496Z" fill="#0077C1"/>
</svg>
