<svg width="51" height="50" viewBox="0 0 51 50" fill="none" xmlns="http://www.w3.org/2000/svg">
<path d="M49.6455 16.9543L38.3596 6.09767C37.8231 5.58234 37.1153 5.30861 36.3697 5.32277C35.6244 5.33829 34.9314 5.64191 34.4184 6.17726L30.6881 10.0647C30.1907 10.5881 30.21 11.4176 30.728 11.9111L31.032 12.2035L29.5009 13.4265C29.4627 13.4244 29.4195 13.4225 29.3699 13.4208C26.979 13.3465 25.2038 13.7426 24.0939 14.5999L23.9178 14.7361L19.7114 12.6639L20.2693 12.1273C20.5224 11.8862 20.6659 11.5606 20.6737 11.2101C20.6813 10.8593 20.5517 10.5271 20.3095 10.2755L16.5821 6.39093C16.069 5.85519 15.3759 5.55167 14.6306 5.53605C13.8814 5.51798 13.1771 5.79552 12.6402 6.31134L1.355 17.1673C0.247089 18.2314 0.21125 20.0006 1.27561 21.1117L5.00393 24.9971C5.25939 25.2627 5.60197 25.3966 5.94582 25.3966C6.2715 25.3966 6.59826 25.2764 6.85275 25.034L7.29494 24.6086C7.60764 26.5986 8.14514 28.6078 9.41193 30.0248L9.2549 30.1949C7.91623 31.6481 8.33264 33.5868 9.40422 34.6734C9.99484 35.2724 10.7129 35.5846 11.4363 35.6071C11.3397 36.5353 11.765 37.464 12.447 38.1107C13.0454 38.6781 13.8457 39.0419 14.6597 39.0418C14.862 39.0418 15.0653 39.0185 15.2665 38.971C15.381 39.6295 15.7245 40.2557 16.1917 40.7241C16.7529 41.2868 17.5426 41.679 18.3836 41.679C18.4696 41.679 18.5563 41.6747 18.6432 41.6663C18.6544 41.8279 18.6795 41.9923 18.7204 42.1586C19.006 43.3195 19.9466 44.2957 21.0611 44.5876C21.2472 44.6363 21.4871 44.6779 21.7641 44.6779C22.4114 44.6779 23.261 44.4509 24.0982 43.5585L24.9187 42.6851L26.1187 43.6076C26.9039 44.2114 27.6827 44.4578 28.382 44.4578C29.2601 44.4578 30.0128 44.0692 30.4948 43.512C30.953 42.9824 31.2257 42.2308 31.1246 41.4271C32.0469 41.474 32.9168 41.1185 33.4786 40.526C33.8944 40.0876 34.1656 39.4905 34.1608 38.836C35.1164 38.9366 35.9507 38.5287 36.4667 37.9167C37.0611 37.2118 37.3267 36.1614 36.9891 35.1646C37.871 34.9742 38.6794 34.4161 39.1952 33.5769C39.7742 32.6348 39.9876 31.2305 39.102 29.8432C40.428 29.1121 42.1655 27.6528 44.0861 24.7618L44.1501 24.8233C44.403 25.064 44.7282 25.1836 45.0532 25.1836C45.3973 25.1836 45.7407 25.0494 45.9969 24.7831L49.7251 20.898C50.7889 19.7871 50.753 18.0179 49.6455 16.9543ZM10.455 33.6369C9.86623 33.0399 9.57932 32.0211 10.34 31.1955L11.6217 29.8069C12.146 29.2379 12.7196 29.0051 13.2812 29.1335C13.87 29.2683 14.3947 29.784 14.5867 30.4169C14.6793 30.7219 14.7623 31.3103 14.2783 31.8232C14.2778 31.8237 14.2774 31.8244 14.2768 31.825L12.4795 33.7331C11.7231 34.4087 10.9379 34.1265 10.455 33.6369ZM15.5817 37.1351C14.8249 37.9286 13.8936 37.4485 13.4625 37.0396C13.3506 36.9334 12.3935 35.9764 13.246 35.0723C13.2461 35.0722 13.2462 35.0721 13.2463 35.072L16.501 31.6164C16.9054 31.1868 17.3212 31.0629 17.6664 31.0629C17.7946 31.0629 17.9132 31.0801 18.0176 31.1049C18.5983 31.2432 19.0977 31.7054 19.2604 32.2552C19.4118 32.7672 19.2537 33.2876 18.8032 33.7601L18.1165 34.4796C18.0816 34.5146 18.0473 34.5514 18.013 34.588L15.5817 37.1351ZM19.4183 39.7181C19.412 39.7234 19.4054 39.7281 19.3992 39.7337C19.3864 39.7453 19.3749 39.7577 19.3624 39.7695C18.3503 40.6984 17.4153 39.861 17.2366 39.6819C16.8169 39.261 16.4048 38.4122 16.9899 37.7993C16.9964 37.7925 17.0019 37.7852 17.0081 37.7782L18.9963 35.6951C19.0076 35.6839 19.0191 35.673 19.0298 35.6609C19.0367 35.6529 19.0439 35.6458 19.0509 35.638L19.1794 35.5033C19.6741 35.0137 20.2145 34.8203 20.7529 34.9457C21.3458 35.0836 21.8562 35.5876 22.0228 36.2C22.1258 36.5788 22.1326 37.1406 21.5796 37.6661L21.3369 37.8965C21.3309 37.9019 21.3247 37.9067 21.3187 37.912C21.3029 37.9261 21.2884 37.941 21.2741 37.9562L19.4183 39.7181ZM24.0739 41.4284L23.0219 42.5483C22.5084 43.0954 21.9739 43.3007 21.4349 43.1598C20.8475 43.0059 20.3086 42.4366 20.1534 41.8061C20.0855 41.53 20.0702 41.1444 20.366 40.8518C20.3796 40.8393 20.3933 40.8275 20.4069 40.8147L22.3209 38.9975C22.8974 38.5002 23.7069 38.7418 24.1814 39.2279C24.4157 39.4678 25.1003 40.3352 24.0739 41.4284ZM37.9376 32.8039C37.5636 33.4124 36.7806 33.8996 35.9633 33.7227L33.1484 31.1025C32.8499 30.8247 32.383 30.8415 32.1053 31.1399C31.8277 31.4382 31.8444 31.9052 32.1427 32.1829L35.0928 34.9289C35.0956 34.9316 35.0987 34.9337 35.1015 34.9362C35.1028 34.9374 35.1036 34.9388 35.1049 34.9399C35.8327 35.588 35.7733 36.4494 35.3382 36.9653C34.8445 37.551 34.072 37.5215 33.2692 36.889L30.3422 34.1644C30.0438 33.8865 29.5769 33.9034 29.2991 34.2018C29.0215 34.5001 29.0382 34.9671 29.3365 35.2448L32.2654 37.9712C32.7739 38.524 32.825 39.0702 32.4074 39.5106C31.911 40.034 30.9211 40.2028 30.0647 39.4843C30.0539 39.4753 30.0426 39.4675 30.0315 39.4592L28.6868 38.2096C28.3883 37.9321 27.9213 37.9492 27.6439 38.2479C27.3664 38.5464 27.3835 39.0134 27.6821 39.2908L29.1373 40.6433C29.8695 41.4019 29.7313 42.1386 29.3783 42.5466C28.937 43.0565 28.0363 43.2205 27.018 42.4379L25.8047 41.5051C26.4124 40.2566 26.0273 39.0058 25.2373 38.1969C24.7757 37.7244 24.1422 37.3797 23.4687 37.2748C23.5857 36.8063 23.5822 36.31 23.4469 35.8128C23.137 34.6742 22.2108 33.7696 21.0871 33.5084C20.9478 33.476 20.808 33.4544 20.6684 33.4431C20.8265 32.919 20.8336 32.3704 20.6756 31.8366C20.3631 30.7805 19.4538 29.9299 18.3593 29.6693C17.5429 29.4753 16.725 29.6311 16.0279 30.0953C16.0185 30.0598 16.0099 30.0243 15.9991 29.9888C15.653 28.8484 14.7154 27.9481 13.6104 27.6952C12.5189 27.4456 11.4274 27.8403 10.5367 28.8067L10.4183 28.9351C9.37912 27.699 8.92023 25.7851 8.60822 23.3457L11.7206 20.3517C12.0144 20.0692 12.0235 19.602 11.7408 19.3082C11.4584 19.0145 10.9912 19.0054 10.6974 19.288L7.35734 22.501C7.33146 22.5227 7.30734 22.546 7.28469 22.5709L5.95158 23.8533L2.34094 20.0907C1.83928 19.567 1.85568 18.7333 2.37775 18.2318L13.6629 7.3755C13.915 7.13351 14.2486 7.00402 14.5998 7.01163C14.9506 7.01896 15.2761 7.16114 15.5168 7.41232L19.1285 11.1762L13.0331 17.0401C12.7394 17.3228 12.7303 17.79 13.0129 18.0836C13.2954 18.3774 13.7626 18.3863 14.0564 18.1038L18.5802 13.7518L22.6181 15.741L19.7654 17.9471C16.3452 20.5935 17.3758 22.9753 17.7732 23.6422C18.451 24.7802 19.7108 25.4371 20.9958 25.4371C21.4968 25.4371 22.0017 25.3372 22.4774 25.1271C22.5057 25.1146 22.5332 25.1003 22.5598 25.0843L25.5554 23.2804L29.6297 22.3499L37.4184 30.0895C38.6289 31.332 38.185 32.4015 37.9376 32.8039ZM48.6596 19.8764L45.0484 23.6397L44.4947 23.1093C44.4739 23.0866 44.4516 23.0652 44.4277 23.045L39.3413 18.1726C39.0467 17.8903 38.5798 17.9008 38.2978 18.1948C38.0158 18.4892 38.0259 18.9564 38.3201 19.2383L43.0015 23.723C40.944 26.8849 39.1815 28.1727 38.1089 28.695L30.3818 21.0165C30.3797 21.0145 30.3776 21.0129 30.3755 21.0109C30.3644 21 30.3528 20.9899 30.3409 20.9798C30.3338 20.9736 30.3268 20.9674 30.3195 20.9615C30.3087 20.953 30.2975 20.9452 30.2863 20.9373C30.2775 20.9311 30.2687 20.9245 30.2596 20.9187C30.2494 20.9121 30.2388 20.9064 30.2283 20.9003C30.218 20.8943 30.2077 20.8881 30.1971 20.8827C30.1862 20.8772 30.1749 20.8724 30.1637 20.8674C30.1533 20.8627 30.1432 20.8577 30.1326 20.8536C30.119 20.8483 30.105 20.8438 30.0909 20.8392C30.0827 20.8365 30.0746 20.8334 30.0663 20.831C30.0492 20.826 30.0319 20.8222 30.0144 20.8185C30.0089 20.8173 30.0035 20.8158 29.9982 20.8148C29.9798 20.8112 29.9611 20.8089 29.9424 20.8068C29.9375 20.8064 29.9327 20.8055 29.9279 20.805C29.9109 20.8034 29.8937 20.803 29.8764 20.8027C29.8694 20.8026 29.8623 20.8022 29.8553 20.8022C29.8411 20.8023 29.8269 20.8033 29.8126 20.8043C29.8021 20.805 29.7916 20.8055 29.7811 20.8067C29.7699 20.8079 29.7588 20.8098 29.7477 20.8115C29.7338 20.8137 29.72 20.8158 29.7064 20.8189C29.7033 20.8195 29.7003 20.8197 29.6973 20.8204L25.1116 21.8678C25.0353 21.8853 24.9622 21.9147 24.8952 21.955L21.8415 23.7939C20.8554 24.2038 19.5822 23.795 19.0411 22.8867C18.3995 21.8097 19.0079 20.3993 20.6686 19.1145L24.4591 16.1831C24.4657 16.1779 24.4726 16.1732 24.479 16.1677L24.9966 15.7674C25.8046 15.1431 27.3423 14.8336 29.3237 14.8958C29.3883 14.8979 29.4398 14.9009 29.482 14.9032C29.9131 14.9289 30.0856 14.8494 30.4173 14.5833L32.105 13.2354L35.8923 16.879C36.1861 17.1616 36.6532 17.1525 36.9359 16.8589C37.2185 16.5651 37.2094 16.098 36.9157 15.8153L31.8719 10.9627L35.484 7.19845C35.7243 6.94757 36.0498 6.80548 36.4007 6.79816C36.4102 6.79796 36.4196 6.79786 36.4291 6.79786C36.7707 6.79786 37.0923 6.92648 37.337 7.16154L48.623 18.0183C49.1445 18.5194 49.1609 19.3531 48.6596 19.8764Z" fill="#0077C1"/>
</svg>
