<svg width="51" height="50" viewBox="0 0 51 50" fill="none" xmlns="http://www.w3.org/2000/svg">
<path d="M50.3943 39.5237C50.0194 38.1559 48.6056 36.9361 46.3856 37.4883L45.4664 37.7031V29.6329C45.4664 29.2283 45.1385 28.9004 44.734 28.9004C44.3295 28.9004 44.0016 29.2283 44.0016 29.6329V38.0455L35.0808 40.1307C34.8013 40.1961 34.5315 40.2334 34.2652 40.2514V20.0605H34.5334H44.0016V26.2387C44.0016 26.6432 44.3295 26.9711 44.734 26.9711C45.1385 26.9711 45.4664 26.6432 45.4664 26.2387V20.0605H47.1604C48.0731 20.0605 48.8156 19.318 48.8156 18.4052V14.5996C48.8156 13.6869 48.0731 12.9443 47.1604 12.9443H41.7213C42.7521 11.4176 43.3908 9.9247 43.6214 8.49247C43.8847 6.85682 43.6015 5.31513 42.8022 4.03407C41.2883 1.6078 38.1114 0.385535 35.077 1.0619C33.5901 1.39335 32.2781 2.16161 31.2826 3.28388C30.2895 4.40341 29.6377 5.82587 29.3385 7.51796H26.5004C26.2009 5.82567 25.5486 4.40302 24.5552 3.28348C23.5593 2.16132 22.247 1.39296 20.7601 1.06161C17.7259 0.385926 14.5491 1.6077 13.0354 4.03407C12.236 5.31503 11.9526 6.85673 12.2158 8.49237C12.4462 9.9246 13.0847 11.4175 14.1152 12.9442H8.67588C7.76465 12.9442 7.02334 13.6868 7.02334 14.5995V18.4051C7.02334 19.3179 7.76465 20.0604 8.67588 20.0604H10.3727V32.4638L9.1875 32.8299C8.87402 32.1242 8.16777 31.6302 7.34717 31.6302H2.51377C1.40342 31.6303 0.5 32.5337 0.5 33.6441V45.5029C0.5 46.6135 1.40342 47.5169 2.51377 47.5169H7.34727C8.24346 47.5169 9.004 46.9281 9.26445 46.1173L15.647 47.2226C16.0449 47.2917 16.4245 47.0245 16.4937 46.626C16.5627 46.2273 16.2956 45.8482 15.897 45.7792L9.36113 44.6473V34.3097L11.3083 33.7081C11.3178 33.7054 11.3271 33.7025 11.3364 33.6994L15.6295 32.3731C20.0461 31.0096 22.0759 30.7796 24.9554 30.7796H27.5113C29.1237 31.0699 29.877 32.3246 29.787 33.4274C29.709 34.3849 28.9704 35.4081 27.1317 35.4081H25.1416C23.5932 35.3074 22.6082 36.3997 22.4331 37.5369C22.2644 38.633 22.8621 39.9967 24.573 40.4005C24.5887 40.4041 24.6045 40.4073 24.6204 40.41L30.9521 41.4691C30.9733 41.4726 30.9948 41.4753 31.0163 41.4769C31.3911 41.506 31.7534 41.5493 32.1038 41.5913C33.1804 41.7201 34.1972 41.8422 35.4144 41.5571L46.724 38.9136C46.7276 38.9128 46.7313 38.9118 46.7349 38.911C48.0959 38.571 48.7878 39.2047 48.9813 39.911C49.1868 40.6604 48.8651 41.6292 47.6732 41.9852L29.932 47.2892C27.9491 47.8818 26.3011 47.6198 25.6846 47.4796C25.6723 47.4768 25.6599 47.4743 25.6474 47.4722L19.3463 46.3797C18.9483 46.3108 18.5686 46.5776 18.4995 46.9763C18.4304 47.3748 18.6975 47.7539 19.0961 47.823L25.379 48.9124C25.7679 48.9996 26.4815 49.1231 27.4023 49.123C28.2429 49.123 29.2561 49.0201 30.3516 48.6926L48.0927 43.3888C50.1105 42.7861 50.7846 40.9475 50.3943 39.5237ZM22.0383 18.5956V14.4092H24.2242H31.6148H33.8009V18.5956H33.5327H22.3064H22.0383ZM19.8723 12.9442C18.8202 11.494 18.5262 10.1555 19.0692 9.23788C19.5094 8.49432 20.4881 8.08612 21.4484 8.24472C22.4858 8.4161 23.2269 9.17889 23.4918 10.3402V12.9441H21.3059H19.8723V12.9442ZM25.7391 8.9829H25.8807H25.8826H30.1001C30.5241 8.9829 30.8823 9.3412 30.8823 9.76542V10.2492V10.2548V12.9442H24.9566V10.2548C24.9566 10.2529 24.9566 10.2511 24.9566 10.2492V9.76542C24.9567 9.33397 25.3077 8.9829 25.7391 8.9829ZM35.9669 12.9442H34.5333H32.3473V10.3403C32.6123 9.17899 33.3533 8.4162 34.3907 8.24481C35.3518 8.08632 36.3299 8.49452 36.7699 9.23798C37.3131 10.1555 37.019 11.494 35.9669 12.9442ZM47.3508 14.5995V18.4051C47.3508 18.5083 47.2636 18.5955 47.1605 18.5955H35.2658V14.4092H47.1604C47.2619 14.4092 47.3508 14.4981 47.3508 14.5995ZM35.3957 2.49159C37.7955 1.95653 40.3877 2.93143 41.5594 4.80936C42.8954 6.95067 42.3103 9.83046 39.9162 12.9441H37.7119C38.9548 10.7679 38.4829 9.25565 38.0307 8.49159C37.2782 7.2204 35.7192 6.54052 34.1521 6.79931C33.1619 6.96288 32.3298 7.46835 31.7393 8.23016C31.486 7.95985 31.1671 7.75223 30.808 7.6327C31.3418 4.88632 32.9856 3.02889 35.3957 2.49159ZM14.2783 4.80946C15.4499 2.93163 18.0424 1.95673 20.4416 2.49149C22.8521 3.0286 24.4966 4.88602 25.0312 7.6328C24.6722 7.75233 24.3532 7.95995 24.1 8.23026C23.5095 7.46845 22.6774 6.96298 21.6873 6.7995C20.1198 6.54032 18.561 7.22059 17.8087 8.49169C17.3564 9.25575 16.8846 10.7679 18.1274 12.9442H15.9204C13.5271 9.83055 12.9423 6.95077 14.2783 4.80946ZM8.48828 18.4052V14.5996C8.48828 14.4982 8.57598 14.4093 8.67588 14.4093H20.5732V18.5957H8.67588C8.57422 18.5956 8.48828 18.5083 8.48828 18.4052ZM7.89619 45.5029C7.89619 45.8006 7.64492 46.0519 7.34736 46.0519H2.51377C2.21621 46.0519 1.96494 45.8006 1.96494 45.5029V33.6441C1.96494 33.3414 2.21123 33.0952 2.51377 33.0952H7.34727C7.6499 33.0952 7.89609 33.3415 7.89609 33.6441V33.7692V45.2638V45.5029H7.89619ZM15.1971 30.9734L11.8376 32.0113V20.0605H21.3058H21.5739V29.4853C19.8538 29.6888 17.977 30.1152 15.1971 30.9734ZM31.1622 40.0189L24.8877 38.9693C24.1675 38.7922 23.7916 38.3412 23.8811 37.7597C23.9526 37.2948 24.3529 36.8189 25.0626 36.8709C25.0806 36.8723 25.0984 36.8729 25.1165 36.8729H27.1316C29.7872 36.8729 31.1121 35.2021 31.2471 33.5464C31.3926 31.762 30.2183 29.7388 27.6923 29.3242C27.6531 29.3179 27.6134 29.3145 27.5736 29.3145H24.9554C24.2845 29.3145 23.6579 29.3264 23.0391 29.36V20.0605H32.8004V40.1972C32.6297 40.1787 32.4562 40.158 32.2782 40.1367C31.9226 40.0942 31.5553 40.0502 31.1622 40.0189Z" fill="#0077C1"/>
</svg>
