<svg width="51" height="50" viewBox="0 0 51 50" fill="none" xmlns="http://www.w3.org/2000/svg">
<path d="M20.0103 28.2233C20.2167 28.2233 20.4217 28.1366 20.5667 27.9678L24.251 23.6717C24.3649 23.5389 24.4275 23.3697 24.4275 23.1948V15.159C24.4275 14.7544 24.0996 14.4266 23.6951 14.4266C23.2906 14.4266 22.9627 14.7544 22.9627 15.159V22.9237L19.4548 27.0141C19.1915 27.3212 19.2269 27.7836 19.534 28.0469C19.672 28.1653 19.8416 28.2233 20.0103 28.2233Z" fill="#0077C1"/>
<path d="M48.7326 35.7915H48.2756C48.1701 35.4878 48.047 35.188 47.9074 34.894L48.2287 34.5717C48.9172 33.8833 48.9172 32.7632 48.2287 32.0747L46.2853 30.1313C46.173 30.019 46.049 29.9253 45.9181 29.8491C45.9982 29.5815 46.0734 29.312 46.1437 29.0405C47.0177 25.6715 47.1193 22.0806 46.4396 18.6559C46.3605 18.2594 45.9748 18.0016 45.5783 18.0807C45.1808 18.1598 44.924 18.5456 45.0021 18.9421C45.7306 22.606 45.5177 26.2935 44.4377 29.7192C44.2004 29.8042 43.9787 29.9419 43.7882 30.1313L43.467 30.4526C43.172 30.3139 42.8732 30.1909 42.5695 30.0844V29.6284C42.5695 28.7866 41.9797 28.0805 41.1935 27.9038C41.6984 26.0219 41.8976 24.0494 41.7707 22.0474C41.464 17.2194 39.2951 12.7996 35.6633 9.60231C32.2288 6.57643 27.9594 5.09157 23.7064 5.09118C23.6691 5.08532 23.6312 5.08142 23.5924 5.08142C23.5514 5.08142 23.5115 5.08561 23.4724 5.09206C18.5258 5.15505 13.6223 7.22683 10.1023 11.2233C9.83473 11.526 9.86403 11.9889 10.1677 12.2565C10.4715 12.5241 10.9334 12.4948 11.2009 12.1911C14.2871 8.68776 18.5297 6.7945 22.86 6.57663V8.32175C22.86 8.72634 23.188 9.05417 23.5924 9.05417C23.9969 9.05417 24.3249 8.72634 24.3249 8.32175V6.56667C28.0269 6.70378 31.7054 8.06735 34.6957 10.701C38.0336 13.6404 40.0276 17.7029 40.3089 22.1403C40.3177 22.2802 40.3245 22.4199 40.3299 22.5594H38.5679C38.1634 22.5594 37.8355 22.8873 37.8355 23.2919C37.8355 23.6965 38.1633 24.0243 38.5679 24.0243H40.3237C40.2611 25.3339 40.0461 26.6194 39.6848 27.8599H38.0559C37.0823 27.8599 36.2913 28.6529 36.2913 29.6285V30.1373C36.0032 30.2437 35.719 30.3648 35.4407 30.5006L35.0716 30.1314C34.3831 29.4429 33.263 29.4429 32.5745 30.1314L30.6311 32.0748C29.9426 32.7633 29.9426 33.8834 30.6311 34.5718L31.052 34.9937C30.9339 35.2545 30.8264 35.5211 30.7317 35.7916H30.1282C29.1526 35.7916 28.3596 36.5826 28.3596 37.5562V39.1695C27.4197 39.4425 26.459 39.6302 25.49 39.7351V38.201C25.49 37.7965 25.1621 37.4686 24.7576 37.4686C24.3531 37.4686 24.0252 37.7965 24.0252 38.201V39.8291C20.0031 39.9115 15.9407 38.5508 12.6909 35.6891C9.21188 32.6249 7.278 28.3322 7.07517 23.9276H8.82155C9.22604 23.9276 9.55397 23.5998 9.55397 23.1952C9.55397 22.7906 9.22604 22.4628 8.82155 22.4628H7.07155C7.178 19.8905 7.87907 17.3222 9.21188 14.9786C9.41208 14.627 9.28903 14.1798 8.93747 13.9805C8.58591 13.7803 8.13864 13.9034 7.93942 14.2549C6.40017 16.9599 5.59567 20.034 5.58454 23.1383C5.58308 23.1572 5.58171 23.176 5.58171 23.1952C5.58171 23.2151 5.58317 23.2347 5.58474 23.2542C5.58737 24.202 5.66306 25.1523 5.81559 26.0955C6.48259 30.2223 8.58024 34.0202 11.7237 36.7886C15.1592 39.8139 19.4297 41.2993 23.6835 41.2993C24.0141 41.2993 24.3446 41.2882 24.6748 41.2701C24.7022 41.2732 24.7299 41.2752 24.7582 41.2752C24.814 41.2752 24.8681 41.2683 24.9204 41.2565C26.0938 41.1767 27.2602 40.9842 28.4003 40.6792C28.5721 41.4731 29.2821 42.0698 30.1288 42.0698H30.7831C30.8778 42.3247 30.9833 42.5757 31.0995 42.8227L30.6317 43.2885C30.4452 43.476 30.3085 43.6938 30.2235 43.9272C28.5702 44.4448 26.8427 44.7671 25.0703 44.8794C24.5996 44.9096 24.1308 44.9243 23.664 44.9243C18.379 44.9243 13.3361 43.0249 9.33425 39.5006C0.343818 31.5825 -0.530206 17.825 7.38669 8.83386C15.3046 -0.156182 29.0621 -1.03021 38.0532 6.88659C40.7495 9.25964 42.8285 12.283 44.0677 15.6296C44.2084 16.0085 44.6293 16.2028 45.0092 16.0622C45.3881 15.9216 45.5824 15.4997 45.4418 15.1208C44.1185 11.5476 41.8989 8.32009 39.0219 5.78698C34.3725 1.6944 28.4078 -0.344659 22.2243 0.047919C16.0418 0.440497 10.3817 3.21677 6.28708 7.8652C2.1944 12.5145 0.155341 18.4802 0.547919 24.6628C0.940497 30.8453 3.71677 36.5053 8.3652 40.6C12.6376 44.3626 18.0203 46.3889 23.6618 46.3889C24.1598 46.3889 24.6608 46.3733 25.1628 46.3411C26.944 46.2278 28.6822 45.9173 30.3511 45.4202C30.4263 45.551 30.5201 45.6741 30.6314 45.7854L32.5748 47.7288C33.2633 48.4173 34.3834 48.4173 35.0718 47.7298L35.5396 47.263C35.7867 47.3792 36.0367 47.4837 36.2916 47.5774V48.2327C36.2916 49.2073 37.0826 50.0003 38.0562 50.0003H40.8051C41.7778 50.0003 42.5698 49.2073 42.5698 48.2327V47.6311C42.8383 47.5364 43.1049 47.429 43.3676 47.3079L43.7885 47.7288C44.477 48.4173 45.5971 48.4173 46.2856 47.7288L48.229 45.7854C48.9174 45.0969 48.9174 43.9768 48.229 43.2883L47.8608 42.9202C47.9966 42.6419 48.1176 42.3587 48.2241 42.0696H48.7329C49.7075 42.0696 50.5005 41.2776 50.5005 40.305V37.556C50.5002 36.5824 49.7072 35.7915 48.7326 35.7915ZM49.0353 40.305C49.0353 40.4672 48.8966 40.6049 48.7326 40.6049H47.6974C47.3742 40.6049 47.089 40.8168 46.9963 41.1263C46.8322 41.6693 46.6056 42.1966 46.3234 42.6947C46.1613 42.9818 46.2101 43.3412 46.4426 43.5746L47.1935 44.3246C47.3088 44.4398 47.3088 44.6351 47.1935 44.7504L45.2502 46.6937C45.1349 46.809 44.9396 46.809 44.8244 46.6937L44.0324 45.9017C43.8049 45.6742 43.4562 45.6224 43.172 45.7718C42.6759 46.0345 42.1593 46.2425 41.6379 46.39C41.3224 46.4799 41.1047 46.767 41.1047 47.0951V48.2328C41.1047 48.3968 40.967 48.5355 40.8049 48.5355H38.0559C37.8928 48.5355 37.7561 48.3968 37.7561 48.2328V47.0502C37.7561 46.7279 37.5442 46.4427 37.2346 46.349C36.7249 46.1957 36.2249 45.9867 35.7493 45.7269C35.6389 45.6664 35.5178 45.6371 35.3987 45.6371C35.2092 45.6371 35.0217 45.7103 34.8811 45.8509L34.0364 46.6937C33.9212 46.809 33.7258 46.809 33.6106 46.6937L31.8391 44.9222L31.6673 44.7504C31.552 44.6342 31.552 44.4398 31.6663 44.3246L32.511 43.4838C32.6516 43.3431 32.7249 43.1576 32.7258 42.9691C32.7268 42.848 32.6975 42.725 32.636 42.6127C32.3753 42.1381 32.1653 41.6371 32.011 41.1263C31.9182 40.8168 31.6331 40.6049 31.3098 40.6049H30.1282C29.9632 40.6049 29.8245 40.4672 29.8245 40.305V40.2338V38.6693V37.556C29.8245 37.3929 29.9632 37.2562 30.1282 37.2562H31.2678C31.596 37.2562 31.8841 37.0384 31.9729 36.723C32.1233 36.1937 32.3303 35.6771 32.5882 35.1879C32.7385 34.9037 32.6858 34.555 32.4592 34.3275L31.6673 33.5365C31.552 33.4213 31.552 33.2259 31.6673 33.1107L33.6106 31.1674C33.7258 31.0521 33.9212 31.0521 34.0364 31.1674L34.7864 31.9174C35.0188 32.1498 35.3782 32.1986 35.6643 32.0375C36.1653 31.7543 36.6936 31.5277 37.2356 31.3646C37.5442 31.2709 37.7561 30.9857 37.7561 30.6634V29.6283C37.7561 29.4633 37.8928 29.3246 38.0559 29.3246H39.1819H40.7483H40.805C40.9671 29.3246 41.1048 29.4633 41.1048 29.6283V30.6215C41.1048 30.9496 41.3235 31.2386 41.6399 31.3265C42.1926 31.4818 42.7366 31.7045 43.2571 31.9896C43.346 32.0384 43.4426 32.0668 43.5393 32.0756C43.7512 32.097 43.968 32.0228 44.1262 31.8646L44.8245 31.1674C44.9397 31.0521 45.1341 31.0521 45.2503 31.1674L45.4202 31.3373L47.1936 33.1107C47.3089 33.2259 47.3089 33.4213 47.1936 33.5365L46.4954 34.2338C46.2659 34.4642 46.2151 34.8177 46.3714 35.1039C46.6555 35.6234 46.8782 36.1674 47.0335 36.7211C47.1223 37.0375 47.4104 37.2562 47.7385 37.2562H48.7327C48.8967 37.2562 49.0354 37.3929 49.0354 37.556V40.305H49.0353Z" fill="#0077C1"/>
<path d="M39.4317 35.5887C37.5884 35.5887 36.0889 37.0882 36.0889 38.9315C36.0889 40.7732 37.5884 42.2715 39.4317 42.2715C41.2734 42.2715 42.7717 40.7733 42.7717 38.9315C42.7717 37.0883 41.2734 35.5887 39.4317 35.5887ZM39.4317 40.8067C38.3962 40.8067 37.5538 39.9655 37.5538 38.9315C37.5538 37.896 38.3962 37.0535 39.4317 37.0535C40.4657 37.0535 41.3069 37.896 41.3069 38.9315C41.3069 39.9655 40.4657 40.8067 39.4317 40.8067Z" fill="#0077C1"/>
</svg>
