<svg width="51" height="50" viewBox="0 0 51 50" fill="none" xmlns="http://www.w3.org/2000/svg">
<path d="M48.9026 10.9599L46.466 10.2331L46.9039 8.76865C47.0769 8.19838 46.9078 7.56638 46.4813 7.1541L47.2933 4.44023C47.7196 3.00615 46.9013 1.49268 45.4702 1.06699C44.0562 0.643765 42.5142 1.47236 42.0931 2.88848L41.2811 5.60244C40.7521 5.70176 40.2912 6.06357 40.086 6.58672L33.6938 0.497949C33.4084 0.22352 33.1165 0 32.7061 0H2.96113C2.19639 0 1.57422 0.621875 1.57422 1.38623V22.3445C1.57422 22.7491 1.90215 23.077 2.30664 23.077C2.71113 23.077 3.03906 22.7491 3.03906 22.3445V1.46484H32.1448L32.14 5.69434C32.14 7.55098 33.6504 9.06143 35.5069 9.06143H39.3392L36.3277 19.1316C36.2118 19.5191 36.432 19.9272 36.8196 20.0432C37.2073 20.1595 37.6152 19.9389 37.7312 19.5513C38.969 15.4119 40.2071 11.2723 41.4448 7.13311C41.465 7.06504 41.5451 7.02393 41.6147 7.04443L45.4124 8.17793C45.4826 8.19871 45.5223 8.27715 45.5013 8.34639L36.8645 37.2305L32.8078 36.0203L36.7631 22.7955C36.879 22.4079 36.6588 21.9998 36.2712 21.8839C35.8838 21.7679 35.4756 21.9882 35.3597 22.3757L31.1943 36.3026C31.1672 36.3945 31.1575 36.4945 31.1681 36.5915L31.1682 36.5941L31.8628 42.7656C31.5853 42.5837 31.3768 42.2669 31.1265 41.8585C30.819 41.3569 30.3979 40.6702 29.5914 40.8217C28.914 40.9523 28.5954 41.5185 28.2873 42.0658C28.1408 42.3261 27.7722 43.1951 27.4096 43.2162C27.3801 43.2187 27.2098 43.2023 26.7297 42.7247C25.4735 41.4783 24.4965 42.3286 24.027 42.737C23.8517 42.8897 23.6529 43.0624 23.5224 43.0859C23.3988 43.1068 23.1738 42.9811 22.918 42.7463C22.6197 42.4729 22.1565 42.4929 21.8831 42.7912C21.6098 43.0894 21.6298 43.5526 21.9279 43.8261C23.427 45.2008 24.4816 44.2832 24.9885 43.8421C25.1123 43.7344 25.3195 43.5541 25.3905 43.5408C25.3905 43.5408 25.4908 43.559 25.6973 43.7638C26.1561 44.2204 26.715 44.6813 27.4043 44.6813C28.0129 44.6813 28.5201 44.3035 28.8829 43.8422C29.2278 43.4046 29.4699 42.91 29.7642 42.441C30.4677 43.5482 31.2805 44.5126 32.738 44.3908C33.0546 44.3908 33.2696 44.2108 33.4387 44.0062L37.92 38.6096C37.9834 38.5331 38.0313 38.4445 38.0583 38.3515L40.1184 31.4619V48.5352H3.03906V25.7301C3.03906 25.3255 2.71113 24.9977 2.30664 24.9977C1.90215 24.9977 1.57422 25.3255 1.57422 25.7301V48.611C1.57422 49.3769 2.19639 50 2.96113 50H40.1937C40.96 50 41.5833 49.3769 41.5833 48.6109V26.5628L46.0465 11.6365L47.7817 12.1541L44.8054 22.107C44.6895 22.4945 44.9097 22.9026 45.2973 23.0186C45.6848 23.1342 46.0929 22.9142 46.2089 22.5266L49.3952 11.8715C49.5064 11.4992 49.2753 11.071 48.9026 10.9599ZM43.4969 3.30713C43.6905 2.65609 44.402 2.27634 45.0514 2.47051C45.7097 2.66641 46.0855 3.3627 45.8896 4.02148L45.1289 6.56445L42.7361 5.85029L43.4969 3.30713ZM33.6049 5.69512L33.6085 2.43945L39.0225 7.59648H35.5068C34.4581 7.59648 33.6049 6.74316 33.6049 5.69512ZM33.2446 41.9469L32.7475 37.5309L36.0848 38.5265L33.2446 41.9469Z" fill="#0077C1"/>
<path d="M10.8452 19.7708C10.8452 20.1754 11.1732 20.5032 11.5777 20.5032H31.4641C31.8686 20.5032 32.1965 20.1754 32.1965 19.7708C32.1965 19.3662 31.8686 19.0384 31.4641 19.0384H11.5777C11.1732 19.0384 10.8452 19.3663 10.8452 19.7708Z" fill="#0077C1"/>
<path d="M11.5777 26.1965H30.2522C30.6567 26.1965 30.9846 25.8687 30.9846 25.4641C30.9846 25.0595 30.6567 24.7316 30.2522 24.7316H11.5777C11.1732 24.7316 10.8452 25.0595 10.8452 25.4641C10.8452 25.8687 11.1732 26.1965 11.5777 26.1965Z" fill="#0077C1"/>
<path d="M11.5777 31.8897H28.8074C29.2118 31.8897 29.5398 31.5619 29.5398 31.1573C29.5398 30.7527 29.2118 30.4249 28.8074 30.4249H11.5777C11.1732 30.4249 10.8452 30.7527 10.8452 31.1573C10.8452 31.5619 11.1732 31.8897 11.5777 31.8897Z" fill="#0077C1"/>
<path d="M11.5777 37.583H23.3775C23.782 37.583 24.1099 37.2552 24.1099 36.8506C24.1099 36.446 23.782 36.1182 23.3775 36.1182H11.5777C11.1732 36.1182 10.8452 36.446 10.8452 36.8506C10.8452 37.2552 11.1732 37.583 11.5777 37.583Z" fill="#0077C1"/>
<path d="M29.1345 14.8737C29.8136 14.8737 30.3662 14.3215 30.3662 13.6427V10.6894C30.3662 10.0106 29.8136 9.45839 29.1345 9.45839H13.017C12.3379 9.45839 11.7854 10.0106 11.7854 10.6894V13.6426C11.7854 14.3214 12.3379 14.8736 13.017 14.8736L29.1345 14.8737ZM13.2503 10.9231H28.9014V13.4089H13.2503V10.9231Z" fill="#0077C1"/>
</svg>
