<svg width="51" height="50" viewBox="0 0 51 50" fill="none" xmlns="http://www.w3.org/2000/svg">
<path d="M39.6566 26.6622C42.7439 26.4659 45.5704 25.0791 47.6165 22.7558C51.8357 17.9636 51.3698 10.6292 46.5783 6.40635C44.499 4.57422 41.8288 3.54785 39.0619 3.5166C39.017 3.51562 38.973 3.51563 38.9291 3.51563C36.2374 3.51563 33.6248 4.45117 31.5582 6.1583C31.2467 6.41611 31.2027 6.87803 31.4596 7.18955C31.7174 7.50205 32.1794 7.546 32.4909 7.28818C36.3399 4.10928 41.8572 4.2002 45.6105 7.50498C49.7956 11.1937 50.2019 17.6012 46.5169 21.7879C44.7296 23.8173 42.2606 25.0293 39.564 25.2002C38.2289 25.2842 36.9172 25.1094 35.6866 24.6934C34.9971 24.4609 34.3329 24.1523 33.705 23.7725C33.1893 23.4609 32.698 23.1006 32.237 22.6943C31.275 21.8477 30.5083 20.8554 29.9457 19.7772C29.6039 19.1249 29.3372 18.4412 29.1478 17.7391C28.4436 15.1354 28.7894 12.2769 30.2855 9.83047C30.4965 9.48477 30.3871 9.03457 30.0424 8.82363C29.6977 8.61269 29.2464 8.72109 29.0355 9.06582C27.4962 11.5835 27.0206 14.4812 27.5245 17.2059C26.6074 16.9793 25.6688 16.866 24.7313 16.866C21.518 16.866 18.3185 18.1923 16.032 20.7881C13.771 23.3565 12.8549 26.6536 13.229 29.8109L8.65654 31.222C8.34795 30.5692 7.68496 30.1155 6.91641 30.1155H2.42305C1.3626 30.1154 0.5 30.9794 0.5 32.0413V43.0679C0.5 44.1283 1.3626 44.991 2.42305 44.991H6.91641C7.75801 44.991 8.47334 44.4482 8.73467 43.6955L14.6235 44.7177C14.6655 44.7245 14.7075 44.7284 14.7495 44.7284C15.0991 44.7284 15.4088 44.4774 15.4703 44.121C15.5396 43.7226 15.2721 43.3427 14.8735 43.2742L8.84199 42.2272V32.6984L13.4944 31.262L14.6322 30.9104C14.7211 30.8831 14.809 30.8558 14.8959 30.8294C18.824 29.634 20.6808 29.4289 23.2864 29.4289H25.6607C25.9547 29.4816 26.2165 29.5705 26.448 29.6867C27.1629 30.0422 27.5789 30.6564 27.699 31.2874C27.7342 31.47 27.7439 31.6546 27.7293 31.8343C27.659 32.7015 26.986 33.6293 25.3101 33.6293H23.4612C21.9933 33.5346 21.0576 34.5717 20.8916 35.6519C20.7314 36.6938 21.2969 37.9889 22.9191 38.3727C22.9348 38.3766 22.9504 38.3795 22.966 38.3824L23.8069 38.523L28.6747 39.3375L28.8554 39.3678C28.8769 39.3717 28.8983 39.3746 28.9198 39.3756C29.2675 39.4029 29.6035 39.443 29.9287 39.482C30.9337 39.6012 31.883 39.7145 33.0238 39.4478L43.5397 36.9917C43.5426 36.9907 43.5465 36.9897 43.5504 36.9888C44.779 36.6812 45.4031 37.2485 45.577 37.8813C45.7615 38.5542 45.4705 39.4254 44.3952 39.7467L27.8992 44.6785C26.065 45.2264 24.5463 44.9842 23.9789 44.8543C23.9662 44.8514 23.9535 44.8484 23.9408 44.8465L18.2067 43.8523C17.8083 43.784 17.4293 44.0506 17.36 44.449C17.2906 44.8475 17.5582 45.2264 17.9567 45.2957L23.6723 46.2869C24.0355 46.3689 24.7026 46.4842 25.5631 46.4842C26.3483 46.4842 27.2947 46.3885 28.3192 46.0818L44.8143 41.15C46.7227 40.5797 47.3595 38.8403 46.9903 37.4935C46.6349 36.1995 45.2978 35.0442 43.2009 35.5657L32.6909 38.0209C32.1361 38.1508 31.6205 38.1635 31.0901 38.1273C31.9418 37.5658 32.7231 36.886 33.4156 36.0999C35.4607 33.7785 36.4794 30.7989 36.2831 27.7099C36.2538 27.2489 36.1981 26.7938 36.1161 26.3455C37.0205 26.5701 37.9562 26.6853 38.9074 26.6853C39.1557 26.6856 39.4057 26.6778 39.6566 26.6622ZM7.37715 43.068C7.37715 43.3164 7.16621 43.5263 6.91641 43.5263H2.42305C2.1748 43.5263 1.96504 43.3164 1.96504 43.068V32.0413C1.96504 31.7871 2.17051 31.5803 2.42305 31.5803H6.91641C7.16611 31.5803 7.37715 31.7914 7.37715 32.0413V43.068ZM32.316 35.1323C31.2603 36.3316 29.9661 37.2457 28.5266 37.8277L23.234 36.942C22.5952 36.7838 22.2612 36.3863 22.3394 35.8755C22.4048 35.4517 22.7525 35.0474 23.3824 35.0923C23.401 35.0933 23.4186 35.0942 23.4361 35.0942H25.3104C27.8136 35.0942 29.0627 33.516 29.1897 31.9524C29.2912 30.7131 28.7169 29.3508 27.4551 28.5655C27.0195 28.044 26.3661 27.712 25.6375 27.712H23.8238C23.314 27.712 22.898 27.296 22.898 26.7853C22.898 26.2745 23.314 25.8595 23.8238 25.8595H27.2822C27.6865 25.8595 28.0147 25.5313 28.0147 25.127C28.0147 24.7228 27.6866 24.3946 27.2822 24.3946H25.4563V23.1554C25.4563 22.7508 25.1284 22.4229 24.7238 22.4229C24.3192 22.4229 23.9913 22.7509 23.9913 23.1554V24.3946H23.8238C22.5054 24.3946 21.4329 25.4669 21.4329 26.7854C21.4329 27.2258 21.553 27.6398 21.762 27.9943C19.7355 28.0832 17.8554 28.4064 14.6548 29.3724C14.4077 26.6965 15.2193 23.9277 17.1316 21.7567H17.1307C19.9034 18.6092 24.2125 17.5983 27.959 18.8582C28.5948 20.7099 29.7082 22.4189 31.2689 23.793C32.2427 24.6514 33.3316 25.3282 34.4959 25.8097C34.6678 26.4552 34.7781 27.1213 34.8211 27.8029C34.9931 30.5013 34.1033 33.1039 32.316 35.1323Z" fill="#0077C1"/>
<path d="M39.8241 17.6876H36.3661C35.9616 17.6876 35.6336 18.0155 35.6336 18.42C35.6336 18.8245 35.9616 19.1524 36.3661 19.1524H38.189V20.3889C38.189 20.7934 38.5169 21.1213 38.9215 21.1213C39.3261 21.1213 39.654 20.7933 39.654 20.3889V19.1524H39.8241C41.1425 19.1524 42.215 18.0785 42.215 16.7585C42.215 15.4399 41.1474 14.3674 39.8351 14.3674H38.0245C37.514 14.3674 37.0986 13.9518 37.0986 13.4411C37.0986 12.9304 37.5139 12.5149 38.0245 12.5149H41.4825C41.8871 12.5149 42.215 12.187 42.215 11.7825C42.215 11.378 41.8871 11.0501 41.4825 11.0501H39.6568V9.81367C39.6568 9.40908 39.3288 9.08125 38.9243 9.08125C38.5197 9.08125 38.1917 9.40917 38.1917 9.81367V11.0501H38.0245C36.7061 11.0501 35.6336 12.1227 35.6336 13.4412C35.6336 14.7598 36.7062 15.8323 38.0245 15.8323H39.8351C40.331 15.8323 40.7499 16.2565 40.7499 16.7586C40.7499 17.2708 40.3346 17.6876 39.8241 17.6876Z" fill="#0077C1"/>
</svg>
