<svg width="20" height="20" viewBox="0 0 20 20" fill="none" xmlns="http://www.w3.org/2000/svg">
<path d="M18.487 2.49955C16.4696 0.500149 13.1981 0.500149 11.1808 2.49955L1.13524 12.4555C-0.378414 13.9556 -0.378414 16.3864 1.13524 17.8866C2.38285 19.1231 4.26462 19.3228 5.73568 18.5202C5.88935 18.5125 6.04046 18.4549 6.15802 18.3397L16.2035 8.3838C17.2122 7.38412 17.2122 5.76361 16.2035 4.76394C15.1948 3.76426 13.5598 3.76426 12.5511 4.76394L4.33178 12.9099C4.07991 13.1595 4.07991 13.5653 4.33178 13.8149C4.58364 14.0645 4.99306 14.0645 5.24487 13.8149L13.4642 5.66889C13.9692 5.1684 14.7867 5.1684 15.2904 5.66889C15.7954 6.16937 15.7954 6.9796 15.2904 7.47885L5.70082 16.9829C4.69215 17.9826 3.05706 17.9826 2.04839 16.9829C1.03972 15.9832 1.03972 14.3627 2.04839 13.363L12.0939 3.40451C13.6075 1.90434 16.0601 1.90434 17.5739 3.40451C19.0875 4.90467 19.0875 7.33541 17.5739 8.83562L8.44146 17.8866C8.18959 18.1362 8.18959 18.542 8.44146 18.7916C8.69333 19.0412 9.10274 19.0412 9.35455 18.7916L18.487 9.74058C20.5043 7.74123 20.5043 4.49896 18.487 2.49955Z" fill="#252525"/>
</svg>
