<svg width="30" height="26" viewBox="0 0 30 26" fill="none" xmlns="http://www.w3.org/2000/svg">
<path d="M8.51548 1.25L8.08769 1.24946L7.86946 1.6174L1.35493 12.601L1.12868 12.9825L1.35393 13.3645L7.8394 24.3645L8.05669 24.7331L8.48452 24.7336L21.4845 24.75L21.9123 24.7505L22.1305 24.3826L28.6451 13.399L28.8713 13.0175L28.6461 12.6355L22.1606 1.63547L21.9433 1.26692L21.5155 1.26639L8.51548 1.25Z" fill="#FFFF00" stroke="black" stroke-width="1.5" stroke-linecap="round"/>
<path d="M11.2607 5C9.16168 5 7.44444 6.81531 7.44444 9.03547C7.44444 10.556 8.24985 11.8873 9.43183 12.5752C8.24989 13.2632 7.44444 14.5945 7.44444 16.115C7.44444 18.3351 9.16168 20.1504 11.2607 20.1504C12.3287 20.1504 13.2976 19.6807 13.9923 18.9263L12.9817 17.9158C12.5444 18.3834 11.9365 18.6712 11.2607 18.6712C9.91864 18.6712 8.84281 17.5345 8.84281 16.115C8.84281 14.7198 9.88236 13.5981 11.1921 13.5599L11.1877 13.5419H12.8951V11.6085H11.1877L11.1921 11.5905C9.88236 11.5524 8.84281 10.4306 8.84281 9.03547C8.84281 7.61596 9.91864 6.4793 11.2607 6.4793C11.9365 6.4793 12.5444 6.76708 12.9817 7.23469L13.9923 6.22413C13.2976 5.46978 12.3287 5 11.2607 5ZM15.8605 11.785V13.2238H16.3483C16.6524 13.2238 16.7973 13.297 16.9329 13.5318L18.3638 16.0138L16.907 18.5408C16.7714 18.7756 16.6265 18.8488 16.3225 18.8488H15.8346V20.2876H16.3225C17.0355 20.2876 17.7682 19.9277 18.1536 19.2602L19.1945 17.4549L20.2366 19.2602C20.622 19.9277 21.3547 20.2876 22.0677 20.2876H22.5555V18.8488H22.0677C21.7637 18.8488 21.6188 18.7756 21.4832 18.5408L20.0264 16.0138L21.4573 13.5318C21.5929 13.297 21.7378 13.2238 22.0418 13.2238H22.5297V11.785H22.0418C21.3288 11.785 20.5961 12.1448 20.2107 12.8124L19.1945 14.5739L18.1795 12.8124C17.7941 12.1448 17.0613 11.785 16.3483 11.785H15.8605Z" fill="black"/>
</svg>
