<svg width="20" height="20" viewBox="0 0 20 20" fill="none" xmlns="http://www.w3.org/2000/svg">
<path fill-rule="evenodd" clip-rule="evenodd" d="M8.7335 17.4995L8.7335 11.0126L4.10217 6.38133C3.8688 6.14795 3.7335 5.82134 3.7335 5.49167V3.33333C3.7335 3.21841 3.77915 3.10819 3.86042 3.02692C3.94168 2.94566 4.0519 2.9 4.16683 2.9H17.5002C17.6151 2.9 17.7253 2.94566 17.8066 3.02692C17.8878 3.10819 17.9335 3.21841 17.9335 3.33333V5.49167C17.9335 5.82134 17.7982 6.14795 17.5648 6.38133L12.9335 11.0126V15.8333C12.9335 15.9974 12.8408 16.1476 12.6934 16.2216L9.36085 17.8879C9.29476 17.9207 9.22139 17.9361 9.14767 17.9328C9.07385 17.9293 9.00213 17.9072 8.93928 17.8683C8.87643 17.8294 8.82455 17.7751 8.78854 17.7106C8.75258 17.6462 8.73364 17.5733 8.7335 17.4995ZM12.0668 15.5655V10.8333C12.0667 10.7766 12.0779 10.7199 12.0996 10.6675C12.1213 10.6151 12.1537 10.567 12.1938 10.527L17.0695 5.65131L17.0672 3.76667H4.60016V5.65744L9.47367 10.5275C9.51384 10.5675 9.54569 10.6151 9.5674 10.6675C9.58911 10.7199 9.60025 10.7766 9.60016 10.8333V16.7989L12.0668 15.5655Z" fill="#252525"/>
</svg>
