<svg width="32" height="32" viewBox="0 0 32 32" fill="none" xmlns="http://www.w3.org/2000/svg">
<path d="M24 24V28H8V24H6V28C6 28.5304 6.21071 29.0391 6.58579 29.4142C6.96086 29.7893 7.46957 30 8 30H24C24.5304 30 25.0391 29.7893 25.4142 29.4142C25.7893 29.0391 26 28.5304 26 28V24H24Z" fill="white"/>
<path d="M21 21L19.586 19.586L17 22.172V14H15V22.172L12.414 19.586L11 21L16 26L21 21Z" fill="white"/>
<path d="M28 4V2H22V12H24V8H27V6H24V4H28Z" fill="white"/>
<path d="M17 12H13V2H17C17.7954 2.00079 18.558 2.31712 19.1204 2.87956C19.6829 3.44199 19.9992 4.20459 20 5V9C19.9992 9.79541 19.6829 10.558 19.1204 11.1204C18.558 11.6829 17.7954 11.9992 17 12V12ZM15 10H17C17.2651 9.99974 17.5193 9.89429 17.7068 9.70681C17.8943 9.51934 17.9997 9.26514 18 9V5C17.9997 4.73486 17.8943 4.48066 17.7068 4.29319C17.5193 4.10571 17.2651 4.00026 17 4H15V10Z" fill="white"/>
<path d="M9 2H4V12H6V9H9C9.53019 8.99921 10.0384 8.78824 10.4133 8.41334C10.7882 8.03844 10.9992 7.53019 11 7V4C10.9995 3.46973 10.7886 2.96133 10.4136 2.58637C10.0387 2.21141 9.53027 2.00053 9 2V2ZM6 7V4H9L9.001 7H6Z" fill="white"/>
</svg>
