<svg width="130" height="60" viewBox="0 0 130 60" fill="none" xmlns="http://www.w3.org/2000/svg">
    <path
        d="M127.479 28.7522H126.969V27.8585H127.518C127.929 27.8585 128.136 27.9961 128.136 28.2985C128.136 28.6009 127.915 28.7522 127.477 28.7522H127.479ZM128.479 29.1769C128.403 29.0573 128.286 28.9693 128.15 28.9288C128.288 28.8784 128.406 28.7854 128.488 28.6632C128.569 28.541 128.61 28.396 128.603 28.2493C128.609 28.1198 128.578 27.9913 128.515 27.878C128.452 27.7647 128.359 27.671 128.247 27.6071C128.051 27.5125 127.834 27.4698 127.616 27.483H126.503V30.2472H126.971V29.1089H127.436C127.698 29.1089 127.876 29.1361 127.958 29.2177C128.017 29.2825 128.062 29.3584 128.091 29.4409C128.12 29.5235 128.133 29.611 128.128 29.6985C128.127 29.8837 128.151 30.0682 128.199 30.2472H128.649C128.61 30.1089 128.587 29.9663 128.581 29.8225C128.579 29.6039 128.547 29.3867 128.486 29.1769"
        fill="var(--icon-color, #1B7EC3)" />
    <path
        d="M129.016 30.3848C128.826 30.5867 128.596 30.7463 128.341 30.8531C128.085 30.96 127.81 31.0117 127.533 31.0049C127.204 31.007 126.879 30.9314 126.585 30.7841C126.242 30.6061 125.957 30.3353 125.761 30.0026C125.549 29.6705 125.439 29.2836 125.445 28.8898C125.448 28.6041 125.499 28.3209 125.596 28.0522C125.708 27.7983 125.866 27.5678 126.063 27.3726C126.258 27.173 126.491 27.0154 126.748 26.9093C127.005 26.8032 127.282 26.751 127.56 26.7559C127.887 26.7549 128.208 26.8348 128.496 26.9886C128.84 27.1638 129.126 27.4354 129.319 27.7701C129.521 28.1031 129.628 28.4849 129.629 28.8745C129.635 29.1549 129.583 29.4336 129.477 29.6933C129.371 29.953 129.213 30.1883 129.013 30.3848H129.016ZM129.726 27.7498C129.528 27.3423 129.212 27.0029 128.821 26.7746C128.448 26.5335 128.014 26.4044 127.57 26.4025C127.17 26.4026 126.774 26.4969 126.417 26.6777C126.009 26.8813 125.667 27.195 125.428 27.5833C125.194 27.9732 125.071 28.4196 125.071 28.8745C125.068 29.2654 125.158 29.6515 125.333 30.0009C125.533 30.4117 125.854 30.7518 126.252 30.9761C126.635 31.2137 127.079 31.3375 127.53 31.3328C127.92 31.3364 128.306 31.2473 128.656 31.0729C129.062 30.8724 129.401 30.5569 129.629 30.1657C129.876 29.7805 130.005 29.3317 130 28.8745C129.999 28.4832 129.905 28.0978 129.726 27.7498Z"
        fill="var(--icon-color, #1B7EC3)" />
    <path d="M76.3013 26.445L70.0815 48.9781H77.2086L83.4284 26.445H76.3013Z" fill="var(--icon-color, #1B7EC3)" />
    <path
        d="M46.2861 47.9196C46.3421 47.906 46.3965 47.8789 46.4559 47.8653L46.4695 47.8517C46.5239 47.8381 46.58 47.8092 46.6394 47.7973C46.6414 47.7973 46.6433 47.7969 46.6451 47.7961C46.6468 47.7954 46.6484 47.7942 46.6497 47.7928C46.651 47.7913 46.6519 47.7896 46.6525 47.7878C46.6531 47.7859 46.6533 47.7839 46.653 47.782C46.8875 47.7005 47.1202 47.6121 47.353 47.5085H47.3819C47.4305 47.4833 47.4804 47.4606 47.5314 47.4405C47.5467 47.4405 47.5467 47.4405 47.5603 47.4252L53.3469 26.445H46.2113L41.0805 44.9958C40.6257 45.2722 40.104 45.4191 39.5718 45.4205C39.0032 45.4178 38.4467 45.2565 37.9646 44.955L43.0733 26.445H35.9463L30.124 47.5119C30.1628 47.5353 30.2045 47.5536 30.248 47.5663C30.2752 47.5799 30.2888 47.5799 30.3024 47.5951C30.3448 47.6087 30.3856 47.6206 30.44 47.6342L30.5232 47.6767C30.5474 47.6813 30.5705 47.6905 30.5912 47.7039C30.6184 47.7175 30.6609 47.7311 30.7016 47.7463C30.7142 47.7462 30.7267 47.7485 30.7383 47.7531C30.75 47.7578 30.7606 47.7647 30.7696 47.7735C30.8007 47.7864 30.8332 47.7955 30.8664 47.8007C30.8936 47.8126 30.9208 47.8279 30.948 47.8415C30.9773 47.8445 31.0057 47.8538 31.0312 47.8687C31.0584 47.8823 31.0992 47.8823 31.1264 47.8959C31.1519 47.9107 31.1802 47.92 31.2096 47.923C31.264 47.9519 31.3183 47.9655 31.3795 47.9927H31.3931L31.5035 48.0335C31.5321 48.0364 31.5599 48.0451 31.5851 48.059C31.6189 48.0622 31.6518 48.072 31.6819 48.0878C31.7091 48.1031 31.7363 48.1031 31.7635 48.1167C31.7907 48.1303 31.8314 48.1303 31.8603 48.1439C31.8892 48.1575 31.9283 48.1711 31.9554 48.1847C31.9936 48.1873 32.0309 48.1965 32.0659 48.2119C32.0795 48.2119 32.1067 48.2255 32.1202 48.2255C32.1578 48.2368 32.1947 48.2504 32.2307 48.2662C32.2579 48.2662 32.2867 48.2798 32.3139 48.2798C32.3411 48.2798 32.3819 48.307 32.4091 48.3223C32.4362 48.3376 32.4498 48.3359 32.477 48.3359C32.5121 48.3508 32.5494 48.3594 32.5875 48.3614C32.6146 48.3767 32.6418 48.3767 32.6707 48.3902C32.6974 48.4008 32.7246 48.4099 32.7523 48.4174C32.793 48.4327 32.8355 48.4327 32.8763 48.4463C32.8899 48.4582 32.9171 48.4582 32.9442 48.4735C32.9778 48.4773 33.0105 48.4865 33.0411 48.5007C33.083 48.5032 33.1243 48.5124 33.1634 48.5279C33.1928 48.5307 33.2212 48.54 33.2466 48.555C33.2887 48.5572 33.33 48.5664 33.369 48.5822C33.3843 48.5822 33.4114 48.5975 33.425 48.5975C33.4581 48.6011 33.4902 48.6103 33.5202 48.6247C33.5441 48.6214 33.5684 48.6256 33.5898 48.6366C33.6343 48.6522 33.6805 48.6619 33.7274 48.6655C33.7378 48.6669 33.7473 48.6717 33.7546 48.6791C33.8651 48.7063 33.9738 48.7198 34.0842 48.747C34.1114 48.7606 34.1386 48.7606 34.1658 48.7759C34.1897 48.7726 34.214 48.7768 34.2354 48.7878C34.2762 48.7878 34.317 48.8031 34.3595 48.8031C34.4019 48.8031 34.4002 48.8167 34.4274 48.8303C34.4546 48.8439 34.5107 48.8439 34.5514 48.8439C34.5922 48.8439 34.6194 48.8558 34.6466 48.8711H34.6738C34.7162 48.8846 34.7706 48.8846 34.8131 48.8982C34.8555 48.9118 34.881 48.9118 34.9218 48.9254C34.9542 48.9222 34.9868 48.9269 35.0169 48.939C35.041 48.9353 35.0657 48.9401 35.0866 48.9526C35.141 48.9526 35.1834 48.9679 35.2378 48.9679V48.9815H35.3194C36.4421 49.1713 37.5786 49.2673 38.7172 49.2686C39.8716 49.2667 41.0242 49.1753 42.1644 48.9951V48.9815H42.2324C42.2377 48.9763 42.2441 48.9724 42.2512 48.97C42.2583 48.9677 42.2658 48.9669 42.2731 48.9679C42.3139 48.9679 42.3564 48.9526 42.3972 48.9526C42.4379 48.9526 42.4651 48.939 42.5076 48.9254C42.5306 48.9277 42.5537 48.923 42.5739 48.9118C42.5979 48.9155 42.6226 48.9107 42.6435 48.8982C42.7539 48.8846 42.8644 48.8558 42.9731 48.8439C42.995 48.834 43.0188 48.8293 43.0428 48.8303C43.0835 48.8167 43.1107 48.8167 43.1515 48.8031C43.2483 48.7878 43.3588 48.7606 43.4675 48.7334C43.4915 48.7342 43.5153 48.7296 43.5372 48.7198C43.5779 48.7063 43.6187 48.7063 43.6595 48.6927C43.6671 48.6936 43.6749 48.6929 43.6822 48.6906C43.6896 48.6882 43.6963 48.6843 43.702 48.6791C43.7489 48.6764 43.7952 48.6672 43.8396 48.6519C43.8532 48.6519 43.8668 48.6366 43.8803 48.6366L44.0502 48.5975H44.0638L44.2337 48.555C44.249 48.555 44.2626 48.5415 44.2762 48.5415C44.3306 48.5279 44.3866 48.5143 44.4274 48.5007H44.4546C44.4954 48.4854 44.5514 48.4735 44.6058 48.4582C44.6194 48.4582 44.633 48.4463 44.6466 48.4463C44.7026 48.4327 44.7434 48.4174 44.7978 48.4055C44.8114 48.4055 44.8114 48.3902 44.825 48.3902C44.881 48.3767 44.9218 48.3614 44.9626 48.3495C45.0033 48.3376 45.0033 48.3495 45.0186 48.3359L45.1885 48.2934L45.2038 48.2798L45.3533 48.239C45.3686 48.239 45.3822 48.2255 45.4094 48.2255L45.5334 48.1847C45.5453 48.1711 45.5742 48.1711 45.5878 48.1575C45.6303 48.1548 45.6721 48.1456 45.7118 48.1303C45.7373 48.1167 45.7526 48.1167 45.7798 48.1031L45.9038 48.059C45.9174 48.059 45.931 48.0471 45.9446 48.0471C45.9989 48.0335 46.055 48.0063 46.0958 47.9927H46.123C46.1713 47.9688 46.222 47.95 46.2742 47.9366C46.2812 47.9289 46.2909 47.9241 46.3013 47.923"
        fill="var(--icon-color, #1B7EC3)" />
    <path
        d="M90.1171 45.4205C89.5497 45.419 88.9943 45.2571 88.515 44.9533L92.4974 30.5123C93.0021 30.1497 93.6072 29.9532 94.2286 29.9499C94.7407 29.9505 95.2433 30.0877 95.6846 30.3475L91.6326 44.9992C91.1778 45.2755 90.6561 45.4223 90.1239 45.4239L90.1171 45.4205ZM92.7182 48.9815H92.7845C92.7902 48.9763 92.7969 48.9725 92.8043 48.9701C92.8116 48.9678 92.8193 48.967 92.827 48.9679C92.8694 48.9679 92.9102 48.9526 92.951 48.9526C92.9918 48.9526 93.0206 48.939 93.0614 48.9254C93.0848 48.9263 93.1081 48.9217 93.1294 48.9118C93.1533 48.9128 93.1772 48.9081 93.199 48.8982C93.3078 48.8846 93.4182 48.8575 93.5286 48.8439C93.5494 48.8327 93.5731 48.828 93.5966 48.8303C93.6238 48.8167 93.6645 48.8167 93.6934 48.8031C93.7997 48.7872 93.9047 48.7639 94.0077 48.7334C94.0318 48.7371 94.0564 48.7323 94.0774 48.7199C94.1182 48.7063 94.1725 48.7063 94.215 48.6927C94.2286 48.6927 94.2422 48.6927 94.2422 48.6791C94.2939 48.6782 94.345 48.6684 94.3934 48.6502C94.4053 48.6502 94.4206 48.6383 94.4325 48.6383L94.6024 48.5958H94.6159L94.7858 48.5551C94.7994 48.5551 94.8147 48.5415 94.8266 48.5415L94.971 48.5041C95.0254 48.4922 95.0815 48.4769 95.1222 48.465C95.1358 48.465 95.163 48.4514 95.1783 48.4514C95.1936 48.4514 95.2734 48.4225 95.3142 48.4106C95.3278 48.4106 95.3414 48.3954 95.355 48.3954C95.3975 48.3818 95.4518 48.3682 95.4926 48.3529C95.5121 48.3549 95.5317 48.3507 95.5487 48.341L95.7186 48.2985C95.7186 48.2949 95.72 48.2915 95.7226 48.2889C95.7251 48.2864 95.7285 48.2849 95.7322 48.2849L95.8834 48.2441C95.8953 48.2441 95.9105 48.2306 95.9224 48.2306C95.9649 48.217 96.0074 48.2034 96.0617 48.1898C96.0753 48.1762 96.1025 48.1762 96.1161 48.1626C96.1546 48.1609 96.1922 48.1511 96.2266 48.1337C96.2542 48.1262 96.2814 48.1171 96.3081 48.1065L96.4321 48.0658C96.4457 48.0658 96.4593 48.0522 96.4729 48.0522C96.529 48.0386 96.5697 48.0114 96.6241 47.9978H96.6377C96.6916 47.9722 96.7488 47.9539 96.8076 47.9434C96.8212 47.9281 96.8212 47.9281 96.8365 47.9281C96.8908 47.9146 96.9452 47.8874 96.986 47.8738C96.9996 47.8738 96.9996 47.8585 97.0132 47.8585C97.0647 47.8438 97.1152 47.8256 97.1644 47.8041C97.178 47.8041 97.178 47.8041 97.1916 47.7922C97.4277 47.709 97.6588 47.6138 97.8915 47.517H97.9068C97.9612 47.4898 98.0155 47.4745 98.0767 47.449C98.0786 47.4491 98.0806 47.4487 98.0823 47.4479C98.0841 47.4471 98.0857 47.4459 98.087 47.4445C98.0882 47.443 98.0892 47.4413 98.0898 47.4395C98.0904 47.4376 98.0905 47.4357 98.0903 47.4337L103.476 27.901C100.771 26.7814 97.8761 26.1936 94.9489 26.1698C91.9418 26.1698 88.8327 26.885 86.038 28.0641L80.6693 47.5085C80.7078 47.5326 80.7496 47.5509 80.7933 47.5629C80.8052 47.5765 80.8341 47.5765 80.8477 47.5901L80.97 47.6325L81.0533 47.6733C81.0785 47.6735 81.1028 47.6832 81.1212 47.7005C81.162 47.7141 81.2045 47.7294 81.2317 47.7413C81.2605 47.7441 81.2884 47.7534 81.3132 47.7684C81.3436 47.7847 81.3773 47.794 81.4117 47.7956C81.4372 47.8109 81.4661 47.8228 81.4916 47.8381C81.5212 47.8397 81.5499 47.8491 81.5748 47.8653C81.602 47.8789 81.6292 47.8789 81.6717 47.8942C81.6969 47.908 81.7246 47.9167 81.7532 47.9196C81.8076 47.9468 81.8637 47.9621 81.9231 47.9893L82.0472 48.0301C82.076 48.0329 82.1039 48.0422 82.1287 48.0573C82.1581 48.0601 82.1865 48.0694 82.212 48.0844C82.2444 48.0914 82.2763 48.101 82.3071 48.1133C82.336 48.1252 82.3615 48.1252 82.3903 48.1388C82.4192 48.1524 82.4583 48.1677 82.4991 48.1813C82.5377 48.1839 82.5757 48.1931 82.6112 48.2085C82.6248 48.2085 82.6503 48.2221 82.6656 48.2221L82.7743 48.2645C82.8015 48.2645 82.8287 48.2764 82.844 48.2764L82.9527 48.3172C82.9799 48.3172 82.9935 48.3325 83.0207 48.3325C83.0512 48.3468 83.0839 48.356 83.1175 48.3597C83.1447 48.3733 83.1719 48.3733 83.2007 48.3869C83.2296 48.4004 83.2687 48.4021 83.2959 48.414C83.3231 48.4259 83.3638 48.4293 83.4063 48.4429C83.4488 48.4565 83.4624 48.4565 83.4743 48.4684C83.5082 48.47 83.5413 48.4793 83.5711 48.4956C83.6132 48.4985 83.6545 48.5083 83.6934 48.5245C83.7275 48.525 83.7609 48.5344 83.7903 48.5517C83.8328 48.554 83.8747 48.5632 83.9143 48.5788C83.9279 48.5788 83.9415 48.5924 83.9687 48.5924C83.9978 48.5963 84.0261 48.6055 84.0519 48.6196C84.0805 48.6176 84.1091 48.6229 84.1352 48.6349C84.1791 48.65 84.2248 48.6591 84.2711 48.6621C84.2847 48.6621 84.2847 48.6757 84.2983 48.6757C84.4087 48.7029 84.5174 48.7165 84.6279 48.7436C84.6567 48.7572 84.6839 48.7572 84.7111 48.7708C84.7346 48.7687 84.7582 48.7734 84.7791 48.7844C84.8198 48.7844 84.8606 48.7997 84.8878 48.7997C84.915 48.7997 84.9439 48.8133 84.971 48.8269C84.9982 48.8405 85.056 48.8405 85.0815 48.8405C85.107 48.8405 85.1494 48.8541 85.1902 48.8677H85.2055C85.2599 48.8813 85.3006 48.8813 85.3567 48.8948C85.3839 48.9084 85.4247 48.9084 85.4654 48.922C85.4983 48.9199 85.5312 48.9246 85.5623 48.9356C85.5858 48.9333 85.6094 48.938 85.6302 48.9492C85.6846 48.9492 85.7254 48.9645 85.7678 48.9645C85.7678 48.9645 85.7831 48.9645 85.7831 48.9781H85.8647C86.9873 49.1688 88.1239 49.2654 89.2626 49.2669C90.4169 49.2625 91.5693 49.1705 92.7097 48.9917L92.7182 48.9815Z"
        fill="var(--icon-color, #1B7EC3)" />
    <path
        d="M70.5776 26.445L66.2113 42.4287L62.9969 26.445H56.2266H56.2011L50.0492 48.9917H52.7811L57.161 32.9248L57.2018 33.9424L60.073 48.9917H64.424H67.1423L73.3095 26.445H70.5776Z"
        fill="var(--icon-color, #1B7EC3)" />
    <path
        d="M115.627 31.0049L114.694 34.4028C114.681 34.4453 114.667 34.4861 114.653 34.5404V34.5676C114.484 35.0986 114.151 35.5625 113.702 35.8929C113.253 36.2234 112.712 36.4035 112.154 36.4076H110.795L112.664 29.6662H114.703C114.835 29.6677 114.965 29.6954 115.086 29.7475C115.207 29.7997 115.317 29.8753 115.409 29.9701C115.501 30.0648 115.573 30.1768 115.622 30.2996C115.67 30.4224 115.694 30.5536 115.691 30.6855C115.688 30.7975 115.669 30.9084 115.635 31.0151L115.627 31.0049ZM122.873 29.0936C122.875 28.7457 122.807 28.4009 122.675 28.0791C122.543 27.7573 122.349 27.4648 122.103 27.2185C121.857 26.9723 121.565 26.7772 121.243 26.6444C120.922 26.5116 120.577 26.4438 120.229 26.445H106.415L100.195 48.9764H107.321L110.107 38.8711H111.852C112.144 38.8772 112.422 38.9969 112.627 39.2046C112.832 39.4124 112.948 39.6919 112.951 39.9839C112.949 40.0622 112.939 40.1401 112.922 40.2166L112.91 40.2302C112.907 40.2684 112.897 40.3057 112.881 40.3406L111.371 45.7637C111.285 46.0207 111.238 46.2894 111.233 46.5605C111.234 47.1921 111.481 47.7985 111.923 48.25C112.364 48.7015 112.965 48.9622 113.597 48.9764V48.9917H119.83L120.455 46.7117H119.754C119.592 46.7128 119.432 46.682 119.282 46.6211C119.133 46.5602 118.997 46.4703 118.882 46.3566C118.767 46.243 118.676 46.1078 118.614 45.9588C118.551 45.8098 118.519 45.65 118.518 45.4885C118.522 45.4058 118.531 45.3235 118.546 45.2421V45.2302L119.954 39.8395C120.011 39.719 120.048 39.5898 120.063 39.4572L120.078 39.4011H120.063C120.063 39.3604 120.078 39.3196 120.078 39.2771C120.076 38.9145 119.942 38.565 119.702 38.2934C119.462 38.0219 119.131 37.8468 118.772 37.8007V37.7735H118.941C119.389 37.7746 119.826 37.6344 120.189 37.373C120.552 37.1116 120.824 36.7423 120.965 36.3175L120.978 36.304L122.598 30.2625C122.752 29.9427 122.845 29.597 122.873 29.2431L122.888 29.2024H122.873V29.0936Z"
        fill="var(--icon-color, #1B7EC3)" />
    <path
        d="M9.85389 44.4419C7.17295 44.4419 4.89297 42.5629 3.99592 39.989L0.0203934 43.1507C1.87734 46.8578 5.58104 49.3858 9.84709 49.3858C14.1131 49.3858 17.8066 46.8646 19.6653 43.166L15.6303 39.9567C14.7978 42.5697 12.5229 44.4419 9.85389 44.4419Z"
        fill="var(--icon-color, #1B7EC3)" />
    <path
        d="M9.85388 31.0219C12.4855 31.0219 14.7299 32.8313 15.6014 35.3746L19.6415 32.2367C17.7659 28.5704 14.0826 26.078 9.85388 26.078C5.56574 26.078 1.85015 28.6264 0 32.3539L4.03499 35.57C4.85728 32.9248 7.14916 31.0219 9.85388 31.0219Z"
        fill="var(--icon-color, #1B7EC3)" />
    <path
        d="M12.037 33.9102L5.88345 38.5857C5.88345 38.5857 6.05334 39.6866 6.52735 40.3339C6.86632 40.7702 7.27095 41.1514 7.7268 41.4637L14.0129 36.5605C13.8174 36.0254 13.5487 35.52 13.2144 35.0586C12.8682 34.6323 12.4743 34.2469 12.0404 33.9102"
        fill="var(--icon-color, #1B7EC3)" />
</svg>