<svg width="20" height="20" viewBox="0 0 20 20" fill="none" xmlns="http://www.w3.org/2000/svg">
<path fill-rule="evenodd" clip-rule="evenodd" d="M3.33333 9.375C3.67851 9.375 3.95833 9.65482 3.95833 10V16.6667C3.95833 16.9429 4.06807 17.2079 4.26343 17.4032C4.45878 17.5986 4.72373 17.7083 4.99999 17.7083H15C15.2763 17.7083 15.5412 17.5986 15.7366 17.4032C15.9319 17.2079 16.0417 16.9429 16.0417 16.6667V10C16.0417 9.65482 16.3215 9.375 16.6667 9.375C17.0118 9.375 17.2917 9.65482 17.2917 10V16.6667C17.2917 17.2745 17.0502 17.8573 16.6204 18.2871C16.1907 18.7169 15.6078 18.9583 15 18.9583H4.99999C4.39221 18.9583 3.80931 18.7169 3.37954 18.2871C2.94977 17.8573 2.70833 17.2745 2.70833 16.6667V10C2.70833 9.65482 2.98815 9.375 3.33333 9.375Z" fill="#252525"/>
<path fill-rule="evenodd" clip-rule="evenodd" d="M9.55805 1.22472C9.80213 0.980645 10.1979 0.980645 10.4419 1.22472L13.7753 4.55806C14.0193 4.80213 14.0193 5.19786 13.7753 5.44194C13.5312 5.68602 13.1355 5.68602 12.8914 5.44194L9.99999 2.55055L7.1086 5.44194C6.86452 5.68602 6.46879 5.68602 6.22471 5.44194C5.98064 5.19786 5.98064 4.80213 6.22471 4.55806L9.55805 1.22472Z" fill="#252525"/>
<path fill-rule="evenodd" clip-rule="evenodd" d="M10 1.04166C10.3452 1.04166 10.625 1.32149 10.625 1.66666V12.5C10.625 12.8452 10.3452 13.125 10 13.125C9.65482 13.125 9.375 12.8452 9.375 12.5V1.66666C9.375 1.32149 9.65482 1.04166 10 1.04166Z" fill="#252525"/>
</svg>
