<?xml version="1.0" encoding="utf-8"?><svg viewBox="0 0 130 97" xmlns="http://www.w3.org/2000/svg" xmlns:xlink="http://www.w3.org/1999/xlink"><style>:root>svg{display:none}:root>svg:target{display:block}</style><svg fill="none" viewBox="0 0 51 50" id="002-manager" xmlns="http://www.w3.org/2000/svg"><path d="M23.398 25.336c.67.36 1.532.54 2.394.54.861 0 1.723-.18 2.394-.54a.732.732 0 00-.692-1.291c-.922.494-2.482.494-3.405 0a.733.733 0 00-.691 1.29z" fill="#0077C1"/><path d="M42.719 33.302c-1.745-1.57-4.03-2.759-6.33-3.304-.325-.235-1.995-1.45-3.395-2.495 1.782-1.698 3.163-3.84 3.782-6.017.701-.137 1.413-.52 1.989-1.088.701-.692 1.103-1.56 1.103-2.382v-1.09a1.837 1.837 0 00-1.836-1.835h-.91v-5.24c0-4.543-3.679-7.583-7.12-8.913-4.235-1.636-8.57-1.096-10.785 1.342l-.112.126a6.421 6.421 0 00-.167.025c-2.199.363-3.764 1.868-4.527 4.352-.579 1.884-.548 3.814-.537 4.541l.002.17v3.597h-.91a1.836 1.836 0 00-1.834 1.835v1.09c0 .823.402 1.692 1.104 2.384.574.566 1.285.949 1.985 1.085.62 2.18 2.003 4.323 3.788 6.023-.314.242-.702.543-1.101.853a344.12 344.12 0 01-2.046 1.581c-2.384.516-4.773 1.733-6.58 3.36-2.185 1.966-3.339 4.315-3.339 6.793v2.38a.732.732 0 001.465 0v-2.38c0-4.255 4.327-7.707 8.615-8.69l4.604 3.425a.767.767 0 00.05.035c.173.108.287.197.378.268.27.211.5.295.704.295.335 0 .599-.228.856-.49.144-.147.351-.358.678-.648l.46 1.808-2.666 8.888-.006.02c-.03.087-.12.352.054.687l1.497 2.838h-8.319v-5.117a.732.732 0 10-1.465 0v5.117H6.921l-.247.002c-.081.002-.18.004-.26.002a1.826 1.826 0 01-.006-.163v-2.564a.732.732 0 00-1.465 0v2.563c0 .366.043.894.416 1.26.334.328.751.37 1.144.37.067 0 .133-.002.197-.003.07-.001.144-.003.22-.003H44.08c.077 0 .15.002.22.003l.198.002c.393 0 .81-.04 1.144-.369.373-.366.416-.894.416-1.26v-8.276c0-2.479-1.155-4.827-3.338-6.793zM37.12 19.173v-2.617h.91c.202 0 .372.17.372.37v1.09c0 .427-.25.927-.667 1.339a2.82 2.82 0 01-.645.477c.02-.223.03-.442.03-.659zm-23.857.184c-.418-.413-.667-.914-.667-1.34v-1.091c0-.2.169-.37.368-.37h.911v2.617c0 .216.01.436.03.659a2.807 2.807 0 01-.642-.476zm21.49 11.263L30.7 33.638c-.082.052-.154.1-.218.145a13.85 13.85 0 00-.784-.73l-.782-.701a.732.732 0 00-.21-.189l-1.52-1.365a10.61 10.61 0 001.299-.398c1.182-.44 2.326-1.102 3.374-1.918.973.73 2.132 1.58 2.897 2.138zm-7.247 2.436l-.593 2.326h-2.831l-.569-2.233 1.998-1.883 1.995 1.79zm-8.329-29.18c.087-.014.152-.023.203-.03.375-.05.536-.138.782-.425.033-.038.076-.088.136-.154 1.072-1.18 2.86-1.793 4.901-1.793 1.358 0 2.828.272 4.273.83 2.99 1.155 6.183 3.745 6.183 7.546v3.215c-2.355-3.306-4.903-3.09-7.574-2.863-2.02.171-4.108.349-6.528-.918-1.134-.593-3.34-1.074-5.362 2.378l-.851 1.456v-1.624l-.002-.193c-.049-3.09.578-6.886 3.839-7.425zm13.556 10.659H27.46c-.633 0-1.148.515-1.148 1.147v.593a4.937 4.937 0 00-1.666.002v-.595c0-.632-.514-1.147-1.145-1.147h-5.276c-.63 0-1.144.515-1.144 1.147v.426l-1.424-.625 1.8-3.081c1.619-2.762 2.927-2.078 3.42-1.82 2.797 1.464 5.205 1.26 7.33 1.08 2.884-.246 5.006-.426 7.187 3.795l-1.514.657v-.432c0-.632-.514-1.147-1.145-1.147zM32.414 16v2.457h-4.638V16h4.638zm-9.234 0v2.457h-4.636v-1.215V16h4.636zm-7.664 4.646a6.633 6.633 0 01-.175-1.473v-2.228l1.739.763v1.07c0 .63.513 1.144 1.144 1.144H23.5c.631 0 1.145-.513 1.145-1.145V17.77a3.489 3.489 0 011.666-.002v1.01c0 .63.515 1.144 1.148 1.144h5.275c.631 0 1.145-.514 1.145-1.145v-1.066l1.777-.771v2.233c0 .469-.059.964-.175 1.473-.793 3.479-4.021 7.082-7.51 8.382-.931.348-1.717.51-2.471.51-.757 0-1.542-.162-2.472-.51-3.49-1.3-6.719-4.904-7.512-8.382zm6.694 11.72a.71.71 0 00-.023.021l-.714.673c-.357.31-.601.547-.777.723a5.307 5.307 0 00-.218-.145l-4.075-3.032 1.403-1.088 1.335-1.034.039.028c1.037.802 2.167 1.453 3.335 1.888.463.173.898.305 1.319.403l.025.008-1.649 1.554zM44.592 48.37c0 .069-.003.122-.007.163-.079.002-.178 0-.259 0-.078-.002-.16-.004-.247-.004h-5.542v-5.116a.732.732 0 10-1.464 0v5.116h-7.708l1.494-2.831a.822.822 0 00.054-.704l-.003-.01-.9-2.994a.732.732 0 00-1.402.42l.844 2.814-1.744 3.305H23.29l-1.744-3.305 2.514-8.379h2.88l.737 2.457a.733.733 0 001.403-.42l-.835-2.785.493-1.937c.413.357.66.61.825.777.257.262.52.49.856.49.204 0 .433-.084.704-.295.091-.072.205-.16.379-.269a.765.765 0 00.05-.034l4.56-3.393c4.245 1.024 8.481 4.448 8.481 8.657v8.277z" fill="#0077C1"/></svg><svg fill="none" viewBox="0 0 51 50" id="014-education" xmlns="http://www.w3.org/2000/svg"><path d="M41.32 31.507a.732.732 0 00-.731-.733H9.274a.732.732 0 000 1.465H40.59a.732.732 0 00.732-.732zM9.274 27.556H40.59a.732.732 0 000-1.465H9.274a.732.732 0 100 1.465zM39.434 37.767c-.762-.04-.927-.376-1.155-.841-.175-.357-.54-1.1-1.411-.934-.678.13-.997.697-1.306 1.245a6.478 6.478 0 01-.562.879c-.172.218-.288.28-.326.282-.03.001-.202-.014-.686-.494-1.261-1.254-2.242-.399-2.713.012-.177.154-.377.328-.509.352-.122.022-.35-.106-.608-.342a.732.732 0 10-.992 1.078c1.504 1.382 2.562.46 3.07.016.126-.109.335-.29.407-.304.001 0 .102.018.312.227.462.458 1.023.92 1.714.92l.094-.003c.506-.03.973-.312 1.387-.836.304-.385.517-.764.689-1.068.051-.092.112-.2.17-.295.28.564.812 1.487 2.347 1.569a.732.732 0 00.077-1.463zM17.67 23.195h14.215a.732.732 0 100-1.464H17.67a.732.732 0 100 1.464z" fill="#0077C1"/><path d="M49.264 13.035h-6.276c-.32-.479-.8-.843-1.363-1.014V9.733c.544-.353.85-.919.82-1.579.042-.919-.568-1.66-1.569-1.894l-13.46-3.144c-1.184-.292-1.817-.43-2.496-.43-.677 0-1.309.138-2.484.428l-5.4 1.262a.733.733 0 00.333 1.426l5.41-1.264c1.066-.263 1.625-.388 2.14-.388.52 0 1.078.125 2.154.39l13.47 3.146c.305.072.453.212.438.416a.734.734 0 000 .105c.013.175-.095.302-.321.38-.004 0-.008.002-.012.004-.033.01-.067.02-.105.029l-4.867 1.136a.665.665 0 00-.047.011l-8.565 2c-1.099.272-1.634.391-2.144.391-.508 0-1.043-.119-2.15-.393L9.297 8.62c-.305-.07-.453-.21-.44-.416a.728.728 0 000-.097c-.013-.207.136-.348.442-.42l4.705-1.098a.732.732 0 00-.333-1.426L8.966 6.26c-.998.234-1.61.975-1.571 1.894-.039.922.574 1.662 1.571 1.892l4.301 1.005v1.984H1.737c-.682 0-1.237.555-1.237 1.236v31.807c0 .682.555 1.236 1.236 1.236h47.528c.681 0 1.236-.554 1.236-1.236V14.271c0-.681-.555-1.236-1.236-1.236zm-7.318 1.394v1.67c0 .14-.028.273-.078.395l-.006.016a1.055 1.055 0 01-1.939 0l-.006-.016a1.045 1.045 0 01-.077-.394v-1.671c0-.299.125-.569.327-.76a.732.732 0 001.452 0c.2.191.327.461.327.76zm-5.442 1.62c.027-.164.041-.332.041-.502V14.5h1.83v1.548h-1.871zm2.293-3.014h-2.252v-1.978l3.615-.844v1.808a2.528 2.528 0 00-1.363 1.014zm-16.37.155c1.12.277 1.788.433 2.493.433.708 0 1.376-.156 2.486-.431l7.675-1.792v4.147a1.597 1.597 0 01-.267.885c-.272.412-.73.692-1.26.718l-.016.001c-.021.002-.043.001-.064.001H16.287a1.62 1.62 0 01-1.555-1.605v-4.154l7.695 1.797zm26.608 32.66H1.965V14.5h11.302v1.047c0 .17.015.338.041.501H4.731c-.67 0-1.216.546-1.216 1.217v25.82c0 .67.545 1.214 1.216 1.214h19.004a.732.732 0 100-1.465H4.98V17.513h8.998a3.059 3.059 0 002.362 1.104h17.135c.053 0 .106 0 .16-.004a3.063 3.063 0 002.2-1.1h2.976a2.517 2.517 0 004.165 0h3.043v25.321H27.115a.732.732 0 100 1.465H46.27c.669 0 1.214-.545 1.214-1.214v-25.82c0-.671-.545-1.217-1.214-1.217H43.41V14.5h5.624v31.35z" fill="#0077C1"/></svg><svg fill="none" viewBox="0 0 51 50" id="027-health_insurance" xmlns="http://www.w3.org/2000/svg"><path d="M22.49 34.997l-.015-13.694c.608-.255 1.041-.83 1.108-1.55.179-1.946 1.743-2.669 3.148-2.697h.083c1.62 0 3.353.925 3.59 2.726a.928.928 0 00.007.04c.171.906.899 1.563 1.78 1.619l.022.002.036.002H32.283c.762.014 1.616-.469 1.855-1.576.549-1.768 1.643-2.714 3-2.599 1.33.113 2.46 1.191 2.628 2.509.107.842.73 1.188 1.265 1.156.638-.04 1.138-.59 1.138-1.25 0-5.265-2.162-10.223-6.088-13.958A20.7 20.7 0 0021.75.003H21.68a.735.735 0 00-.104-.002c-.013 0-.028.003-.042.004A20.696 20.696 0 007.417 5.727C3.492 9.462 1.33 14.42 1.33 19.686c0 .658.499 1.207 1.135 1.248.533.036 1.157-.311 1.268-1.155.168-1.318 1.298-2.397 2.628-2.51 1.358-.115 2.45.833 2.998 2.6.213.979.906 1.466 1.588 1.56.047.01.096.014.145.014H11.101l.09.003h.058c.908-.03 1.664-.698 1.839-1.624a.928.928 0 00.006-.04c.242-1.832 2.031-2.755 3.673-2.726 1.404.028 2.968.751 3.146 2.697.067.715.495 1.287 1.097 1.544l.015 13.698a2.329 2.329 0 00-1.959 2.296v5.431c0 .552-.16 1.478-1.227 1.478-1.07 0-1.23-.926-1.23-1.478v-2.498a2.328 2.328 0 00-2.323-2.328h-.722a2.328 2.328 0 00-2.324 2.328v2.498c0 3.907 2.837 6.854 6.6 6.854 3.76 0 6.596-2.947 6.596-6.854v-5.431a2.328 2.328 0 00-1.947-2.294zm4.212-19.405c-1.695.033-3.475.863-4.229 2.616V1.683c1.121.469 3.014 1.737 4.835 4.222 1.727 2.356 3.74 6.334 4.156 12.354-.867-1.799-2.886-2.7-4.762-2.667zm13.912 2.313c-.716-1.156-1.961-1.977-3.351-2.095-1.89-.16-3.46.95-4.3 2.998-.332-6.73-2.566-11.167-4.473-13.77-.974-1.328-2.028-2.407-3.04-3.221 8.095 1.546 14.35 8.062 15.164 16.088zm-23.818-2.313c-2-.037-4.162.99-4.917 3.033.123-2.16.46-4.207 1.005-6.107a.732.732 0 10-1.408-.404c-.575 2.004-.93 4.159-1.06 6.427-.804-1.752-2.175-2.746-3.823-2.746-.117 0-.236.005-.356.015-1.39.118-2.636.938-3.352 2.094.808-7.967 6.978-14.446 14.987-16.052-.162.13-.325.267-.486.409-1.337 1.18-3.245 3.291-4.743 6.642a.732.732 0 101.338.598c2.144-4.797 5.388-7.249 7.028-7.874v16.55c-.761-1.731-2.529-2.552-4.213-2.585zm6.175 27.13c0 3.123-2.158 5.39-5.132 5.39-2.975 0-5.134-2.267-5.134-5.39v-2.498c0-.476.385-.863.859-.863h.722c.473 0 .859.387.859.863v2.498c0 1.76 1.082 2.943 2.694 2.943 1.61 0 2.692-1.182 2.692-2.943v-5.431c0-.475.386-.86.861-.86h.72a.86.86 0 01.859.86v5.431z" fill="#0077C1"/><path d="M49.19 26.69c-.16-.955-.984-1.147-1.528-1.274a10.76 10.76 0 01-.256-.062l-8.754-2.18a9.508 9.508 0 01-.106-.027c-.33-.085-.455-.075-.777.008l-8.84 2.201a9.978 9.978 0 01-.25.06c-.542.128-1.363.32-1.524 1.273-.73 4.267-.636 7.896.286 11.095a.732.732 0 001.408-.405c-.858-2.977-.941-6.385-.255-10.42.088-.038.277-.083.42-.116.092-.022.187-.044.277-.067l8.762-2.181.083-.021.038-.01.009.002.118.03 8.744 2.178c.097.025.192.047.284.069.144.033.334.078.421.117 2.133 12.55-3.544 17.494-9.577 21.455-2.957-1.942-6.223-4.427-8.159-8.124a.732.732 0 00-1.298.68c2.109 4.026 5.598 6.668 8.73 8.719.046.03.083.056.115.079.221.154.415.231.61.231.193 0 .388-.077.611-.23l.111-.076c3.013-1.973 6.381-4.503 8.51-8.31 2.214-3.958 2.799-8.764 1.788-14.694z" fill="#0077C1"/><path d="M39.438 28.87h-2.532c-.839 0-1.521.68-1.521 1.518v2.243h-2.237c-.839 0-1.521.681-1.521 1.519v2.537c0 .838.682 1.519 1.521 1.519h2.237v2.242c0 .838.682 1.52 1.521 1.52h2.532c.839 0 1.521-.682 1.521-1.52v-2.242h2.237c.84 0 1.521-.681 1.521-1.52V34.15c0-.838-.682-1.52-1.52-1.52h-2.238v-2.242c0-.837-.682-1.519-1.52-1.519zm3.758 5.226c.03 0 .056.026.056.054v2.537c0 .028-.026.054-.056.054h-2.97a.732.732 0 00-.732.733v2.974c0 .029-.026.055-.056.055h-2.532c-.03 0-.056-.026-.056-.055v-2.974a.732.732 0 00-.733-.733h-2.969c-.03 0-.056-.026-.056-.054V34.15c0-.029.026-.054.056-.054h2.97a.732.732 0 00.732-.733v-2.975c0-.028.027-.054.056-.054h2.532c.03 0 .056.026.056.054v2.975c0 .405.328.733.733.733h2.97z" fill="#0077C1"/></svg><svg fill="none" viewBox="0 0 51 50" id="029-handshake" xmlns="http://www.w3.org/2000/svg"><path d="M49.645 16.954L38.36 6.098a2.777 2.777 0 00-1.99-.775 2.763 2.763 0 00-1.952.854l-3.73 3.888a1.31 1.31 0 00.04 1.846l.304.293-1.531 1.223a6.375 6.375 0 00-.131-.006c-2.391-.074-4.166.322-5.276 1.179l-.176.136-4.207-2.072.558-.537c.253-.24.397-.566.405-.917a1.298 1.298 0 00-.364-.935l-3.728-3.884a2.763 2.763 0 00-1.951-.855 2.755 2.755 0 00-1.99.775L1.354 17.167a2.795 2.795 0 00-.08 3.945l3.729 3.885a1.311 1.311 0 001.849.037l.442-.425c.313 1.99.85 3.999 2.117 5.416l-.157.17c-1.339 1.453-.922 3.392.15 4.478.59.6 1.308.912 2.031.934-.096.928.329 1.857 1.011 2.504.598.567 1.399.93 2.213.93.202 0 .405-.022.607-.07.114.659.458 1.285.925 1.753.56.563 1.35.955 2.192.955a2.7 2.7 0 00.26-.013c.01.162.036.326.076.493.286 1.16 1.227 2.137 2.341 2.429.186.048.426.09.703.09.647 0 1.497-.227 2.334-1.12l.82-.873 1.2.923c.786.603 1.565.85 2.264.85.878 0 1.63-.389 2.113-.946.458-.53.73-1.281.63-2.085.922.047 1.792-.309 2.354-.901a2.439 2.439 0 00.682-1.69c.955.1 1.79-.307 2.306-.92.594-.704.86-1.755.522-2.751a3.463 3.463 0 002.206-1.588c.58-.942.793-2.346-.093-3.734 1.326-.73 3.064-2.19 4.984-5.081l.064.061c.253.241.578.36.903.36.344 0 .688-.134.944-.4l3.728-3.885a2.795 2.795 0 00-.08-3.944zm-39.19 16.683c-.589-.597-.876-1.616-.115-2.442l1.282-1.388c.524-.57 1.098-.802 1.66-.673.588.134 1.113.65 1.305 1.283.092.305.175.893-.309 1.406l-.001.002-1.797 1.908c-.757.676-1.542.394-2.025-.096zm5.127 3.498c-.757.794-1.688.314-2.12-.095-.111-.107-1.069-1.064-.216-1.968l3.255-3.456c.404-.43.82-.553 1.165-.553.129 0 .247.017.352.042.58.138 1.08.6 1.242 1.15.152.512-.006 1.033-.457 1.505l-.687.72-.103.108-2.431 2.547zm3.836 2.583l-.019.016-.037.035c-1.012.93-1.947.092-2.125-.087-.42-.421-.832-1.27-.247-1.883l.018-.02 1.988-2.084.034-.034.02-.023.13-.135c.494-.49 1.035-.683 1.573-.557.593.138 1.103.642 1.27 1.254.103.379.11.94-.443 1.466l-.243.23-.018.016a.716.716 0 00-.045.044l-1.856 1.762zm4.656 1.71l-1.052 1.12c-.514.547-1.048.753-1.587.612-.587-.154-1.126-.723-1.282-1.354-.067-.276-.083-.662.213-.954l.04-.037 1.915-1.817c.576-.498 1.386-.256 1.86.23.235.24.92 1.107-.107 2.2zm13.864-8.624c-.374.608-1.157 1.096-1.975.919l-2.815-2.62a.738.738 0 10-1.005 1.08l2.95 2.746.008.007.004.004c.728.648.668 1.51.233 2.025-.494.586-1.266.556-2.069-.076l-2.927-2.725a.738.738 0 10-1.005 1.08l2.928 2.727c.509.553.56 1.1.142 1.54-.496.523-1.486.692-2.342-.027l-.034-.025-1.344-1.25a.738.738 0 10-1.005 1.082l1.455 1.352c.732.759.594 1.496.241 1.904-.441.51-1.342.674-2.36-.11l-1.213-.932c.607-1.248.222-2.5-.568-3.308a3.207 3.207 0 00-1.768-.922 2.876 2.876 0 00-.022-1.462c-.31-1.139-1.236-2.043-2.36-2.305a2.869 2.869 0 00-.419-.065 2.78 2.78 0 00.008-1.606c-.313-1.056-1.222-1.907-2.317-2.168a2.924 2.924 0 00-2.331.426c-.01-.035-.018-.07-.029-.106-.346-1.14-1.284-2.04-2.389-2.294-1.091-.25-2.183.145-3.073 1.112l-.119.128c-1.039-1.236-1.498-3.15-1.81-5.59l3.113-2.993a.738.738 0 10-1.024-1.064l-3.34 3.213a.746.746 0 00-.072.07l-1.333 1.282-3.611-3.762a1.317 1.317 0 01.037-1.86L13.663 7.376c.252-.241.586-.371.937-.363.35.007.676.15.917.4l3.611 3.764-6.095 5.864a.738.738 0 001.023 1.064l4.524-4.352 4.038 1.989-2.853 2.206c-3.42 2.646-2.39 5.028-1.992 5.695.678 1.138 1.938 1.795 3.223 1.795.5 0 1.006-.1 1.481-.31a.74.74 0 00.083-.043l2.995-1.804 4.075-.93 7.788 7.74c1.21 1.242.767 2.311.52 2.714zM48.66 19.876l-3.612 3.764-.553-.53a.728.728 0 00-.067-.065l-5.087-4.872a.738.738 0 10-1.02 1.065L43 23.723c-2.057 3.162-3.82 4.45-4.892 4.972l-7.727-7.678-.007-.006a.639.639 0 00-.034-.031l-.021-.018-.034-.025c-.009-.006-.017-.013-.026-.018l-.032-.019-.03-.017-.034-.016c-.01-.004-.02-.01-.031-.013l-.042-.015-.025-.008a.7.7 0 00-.052-.012l-.016-.004a.694.694 0 00-.056-.008l-.014-.002a.675.675 0 00-.052-.002h-.02l-.043.001-.032.003c-.011 0-.022.003-.033.005l-.042.007-.009.001-4.585 1.048a.741.741 0 00-.217.087l-3.053 1.839c-.987.41-2.26.001-2.8-.907-.643-1.077-.034-2.488 1.627-3.773l3.79-2.93.02-.016.518-.4c.808-.625 2.345-.934 4.327-.872l.158.007c.431.026.604-.054.935-.32l1.688-1.348 3.787 3.644a.738.738 0 001.024-1.064l-5.044-4.852 3.612-3.765a1.297 1.297 0 01.945-.4c.342 0 .663.128.908.364l11.286 10.856c.522.501.538 1.335.037 1.858z" fill="#0077C1"/></svg><svg fill="none" viewBox="0 0 51 50" id="030-gift" xmlns="http://www.w3.org/2000/svg"><path d="M50.394 39.524c-.375-1.368-1.788-2.588-4.008-2.036l-.92.215v-8.07a.732.732 0 10-1.464 0v8.412l-8.921 2.086c-.28.065-.55.102-.816.12v-20.19h9.737v6.178a.732.732 0 101.464 0V20.06h1.694c.913 0 1.656-.743 1.656-1.656V14.6c0-.913-.743-1.656-1.656-1.656h-5.439c1.031-1.526 1.67-3.02 1.9-4.452.264-1.635-.02-3.177-.819-4.458-1.514-2.426-4.69-3.648-7.725-2.972a7.099 7.099 0 00-3.794 2.222c-.994 1.12-1.645 2.542-1.945 4.234H26.5c-.3-1.692-.951-3.115-1.945-4.235a7.102 7.102 0 00-3.795-2.221c-3.034-.676-6.21.546-7.725 2.972-.799 1.281-1.082 2.823-.82 4.458.231 1.433.87 2.925 1.9 4.452h-5.44c-.91 0-1.652.743-1.652 1.655v3.806c0 .913.742 1.655 1.653 1.655h1.697v12.404l-1.185.366a2.016 2.016 0 00-1.84-1.2H2.513c-1.11 0-2.014.904-2.014 2.014v11.859c0 1.11.903 2.014 2.014 2.014h4.833c.896 0 1.657-.589 1.917-1.4l6.383 1.106a.733.733 0 00.25-1.444l-6.536-1.132V34.31l1.947-.602a.654.654 0 00.028-.009l4.293-1.326c4.417-1.363 6.447-1.593 9.326-1.593h2.556c1.613.29 2.366 1.545 2.276 2.647-.078.958-.817 1.981-2.655 1.981h-1.99c-1.549-.1-2.534.992-2.709 2.129-.169 1.096.43 2.46 2.14 2.864a.845.845 0 00.047.009l6.332 1.06a25.909 25.909 0 011.152.122c1.076.128 2.093.25 3.31-.035l11.31-2.643.01-.003c1.362-.34 2.054.294 2.247 1 .206.75-.116 1.718-1.308 2.074L29.932 47.29c-1.983.593-3.63.33-4.247.19a.661.661 0 00-.038-.007l-6.3-1.092a.733.733 0 00-.25 1.443l6.282 1.09c.389.087 1.102.21 2.023.21.84 0 1.854-.103 2.95-.43l17.74-5.304c2.019-.603 2.693-2.442 2.302-3.865zM22.038 18.596v-4.187h11.763v4.187H22.038zm-2.166-5.652c-1.052-1.45-1.346-2.789-.803-3.706.44-.744 1.42-1.152 2.38-.993 1.037.171 1.778.934 2.043 2.095v2.604h-3.62zm5.867-3.961H30.1c.424 0 .782.358.782.782V12.945h-5.925v-2.69-.49c0-.431.35-.782.782-.782zm10.228 3.961h-3.62V10.34c.265-1.161 1.006-1.924 2.044-2.095.96-.159 1.939.25 2.379.993.543.918.249 2.256-.803 3.706zM47.35 14.6v3.806c0 .103-.087.19-.19.19H35.266V14.41H47.16c.102 0 .19.09.19.19zM35.396 2.493c2.4-.535 4.992.44 6.163 2.317 1.336 2.142.751 5.021-1.643 8.135h-2.204c1.243-2.176.77-3.688.319-4.452-.753-1.272-2.312-1.951-3.879-1.693A3.785 3.785 0 0031.74 8.23a2.252 2.252 0 00-.931-.597c.534-2.747 2.178-4.604 4.588-5.141zM14.278 4.809c1.172-1.877 3.764-2.852 6.164-2.318 2.41.538 4.055 2.395 4.59 5.142-.36.12-.679.327-.932.597a3.785 3.785 0 00-2.413-1.43c-1.567-.26-3.126.42-3.878 1.692-.453.764-.924 2.276.318 4.452H15.92c-2.393-3.113-2.978-5.993-1.642-8.135zm-5.79 13.596V14.6c0-.102.088-.19.188-.19h11.897v4.186H8.676a.192.192 0 01-.188-.19zm-.592 27.098a.556.556 0 01-.549.549H2.514a.556.556 0 01-.55-.55V33.645a.55.55 0 01.55-.549h4.833a.55.55 0 01.55.55v11.858zm7.301-14.53l-3.36 1.038v-11.95h9.737v9.424c-1.72.204-3.597.63-6.377 1.488zm15.965 9.046l-6.274-1.05c-.72-.177-1.096-.628-1.007-1.21.072-.464.472-.94 1.182-.888a.692.692 0 00.053.002h2.016c2.655 0 3.98-1.67 4.115-3.327.146-1.784-1.029-3.807-3.555-4.222a.748.748 0 00-.118-.01h-2.619c-.67 0-1.297.012-1.916.046v-9.3H32.8v20.137c-.17-.018-.344-.039-.522-.06-.355-.043-.723-.087-1.116-.118z" fill="#0077C1"/></svg><svg fill="none" viewBox="0 0 51 50" id="033-Work_time" xmlns="http://www.w3.org/2000/svg"><path d="M20.01 28.223a.731.731 0 00.557-.255l3.684-4.296a.733.733 0 00.176-.477v-8.036a.732.732 0 10-1.464 0v7.765l-3.508 4.09a.732.732 0 00.555 1.21z" fill="#0077C1"/><path d="M48.733 35.791h-.457a8.91 8.91 0 00-.369-.897l.322-.322a1.768 1.768 0 000-2.497l-1.944-1.944a1.796 1.796 0 00-.367-.282 23.432 23.432 0 00.521-11.193.733.733 0 00-1.437.286c.729 3.664.516 7.352-.564 10.777a1.763 1.763 0 00-.65.412l-.321.322a9.485 9.485 0 00-.898-.369v-.456a1.77 1.77 0 00-1.376-1.724 18.14 18.14 0 00.578-5.857 17.992 17.992 0 00-6.108-12.445 18.03 18.03 0 00-11.957-4.51.732.732 0 00-.234 0c-4.946.063-9.85 2.135-13.37 6.131a.732.732 0 101.099.968A16.6 16.6 0 0122.86 6.577v1.745a.732.732 0 101.465 0V6.567c3.702.137 7.38 1.5 10.37 4.134a16.538 16.538 0 015.635 11.858h-1.762a.732.732 0 000 1.465h1.756a16.528 16.528 0 01-.64 3.836h-1.628c-.974 0-1.765.793-1.765 1.768v.51a9.239 9.239 0 00-.85.363l-.37-.37a1.768 1.768 0 00-2.496 0l-1.944 1.944a1.768 1.768 0 000 2.497l.421.422c-.118.26-.226.527-.32.798h-.604c-.975 0-1.768.79-1.768 1.764v1.614c-.94.273-1.901.46-2.87.565v-1.534a.732.732 0 10-1.465 0v1.628a16.58 16.58 0 01-11.334-4.14c-3.48-3.064-5.413-7.357-5.616-11.761h1.747a.732.732 0 100-1.465h-1.75c.106-2.573.807-5.14 2.14-7.484a.731.731 0 10-1.273-.724 18.121 18.121 0 00-2.354 8.883.735.735 0 000 .116c.002.948.078 1.898.23 2.841a18.143 18.143 0 005.909 10.694 18.038 18.038 0 0012.95 4.481.74.74 0 00.246-.014c1.174-.08 2.34-.272 3.48-.577a1.77 1.77 0 001.729 1.39h.654c.095.256.2.507.316.754l-.467.465a1.758 1.758 0 00-.409.64 21.863 21.863 0 01-6.559.996c-5.285 0-10.328-1.9-14.33-5.423C.344 31.583-.53 17.825 7.387 8.834c7.918-8.99 21.675-9.864 30.666-1.947a21.751 21.751 0 016.015 8.743.733.733 0 001.374-.51 23.232 23.232 0 00-6.42-9.333A23.046 23.046 0 0022.224.047 23.046 23.046 0 006.287 7.866a23.047 23.047 0 00-5.74 16.798A23.046 23.046 0 008.366 40.6c4.273 3.763 9.655 5.789 15.297 5.789a23.357 23.357 0 006.69-.969c.074.131.168.254.28.365l1.943 1.944a1.768 1.768 0 002.497 0l.468-.466c.247.116.497.22.752.314v.656c0 .974.79 1.767 1.764 1.767h2.75c.972 0 1.764-.793 1.764-1.767v-.602c.268-.095.535-.202.798-.323l.42.42a1.768 1.768 0 002.498 0l1.943-1.943a1.768 1.768 0 000-2.497l-.368-.368a9.15 9.15 0 00.363-.85h.509c.975 0 1.768-.792 1.768-1.765v-2.749c0-.974-.794-1.764-1.768-1.764zm.302 4.514c0 .162-.138.3-.302.3h-1.036a.732.732 0 00-.7.521 7.715 7.715 0 01-.674 1.569.735.735 0 00.12.88l.75.75a.305.305 0 010 .425l-1.943 1.944a.305.305 0 01-.426 0l-.792-.792a.734.734 0 00-.86-.13 7.861 7.861 0 01-1.534.618.733.733 0 00-.533.705v1.138a.306.306 0 01-.3.303h-2.75a.305.305 0 01-.299-.303V47.05a.734.734 0 00-.521-.701 7.78 7.78 0 01-1.486-.622.73.73 0 00-.868.124l-.845.843a.305.305 0 01-.425 0l-1.772-1.772-.172-.172a.306.306 0 010-.425l.844-.841a.731.731 0 00.125-.871 7.751 7.751 0 01-.625-1.487.732.732 0 00-.701-.521h-1.182a.306.306 0 01-.303-.3V37.556c0-.163.138-.3.303-.3h1.14a.732.732 0 00.705-.533 7.97 7.97 0 01.615-1.535.733.733 0 00-.129-.86l-.792-.792a.305.305 0 010-.425l1.944-1.944a.305.305 0 01.425 0l.75.75a.733.733 0 00.878.12 7.72 7.72 0 011.572-.672.734.734 0 00.52-.702v-1.035c0-.165.137-.303.3-.303h2.749c.162 0 .3.138.3.303v.994c0 .328.219.617.535.704a7.72 7.72 0 011.617.664.728.728 0 00.87-.125l.697-.698a.305.305 0 01.426 0l.17.17 1.774 1.774a.305.305 0 010 .425l-.699.698a.734.734 0 00-.124.87c.285.52.507 1.063.662 1.617a.733.733 0 00.706.535h.994c.164 0 .302.137.302.3v2.749z" fill="#0077C1"/><path d="M39.432 35.589a3.346 3.346 0 00-3.343 3.343c0 1.841 1.5 3.34 3.343 3.34a3.344 3.344 0 003.34-3.34 3.345 3.345 0 00-3.34-3.343zm0 5.218a1.879 1.879 0 01-1.878-1.876 1.88 1.88 0 011.878-1.877 1.877 1.877 0 010 3.753z" fill="#0077C1"/></svg><svg fill="none" viewBox="0 0 51 50" id="036-contract" xmlns="http://www.w3.org/2000/svg"><path d="M48.903 10.96l-2.437-.727.438-1.464a1.614 1.614 0 00-.423-1.615l.812-2.714a2.715 2.715 0 00-1.823-3.373c-1.414-.423-2.956.405-3.377 1.821l-.812 2.714c-.529.1-.99.462-1.195.985L33.694.497C33.408.225 33.116 0 32.706 0H2.961c-.765 0-1.387.622-1.387 1.386v20.959a.732.732 0 101.465 0V1.465h29.106l-.005 4.23a3.37 3.37 0 003.367 3.366h3.832l-3.011 10.07a.732.732 0 001.403.42l3.714-12.418c.02-.068.1-.11.17-.089l3.797 1.134c.07.02.11.1.09.168L36.863 37.23l-4.056-1.21 3.955-13.225a.732.732 0 00-1.403-.42l-4.166 13.928a.745.745 0 00-.026.289v.002l.695 6.172c-.278-.182-.486-.5-.736-.907-.308-.502-.73-1.189-1.536-1.037-.677.13-.996.697-1.304 1.244-.146.26-.515 1.13-.877 1.15-.03.003-.2-.014-.68-.491-1.256-1.247-2.233-.396-2.703.012-.175.153-.374.325-.505.349-.123.02-.348-.105-.604-.34a.732.732 0 10-.99 1.08c1.499 1.375 2.554.457 3.06.016.124-.108.332-.288.402-.301 0 0 .1.018.307.223.46.456 1.018.917 1.707.917.609 0 1.116-.377 1.479-.839.345-.437.587-.932.881-1.401.704 1.107 1.517 2.072 2.974 1.95.317 0 .532-.18.7-.385l4.482-5.396a.724.724 0 00.138-.258l2.06-6.89v17.073H3.04V25.73a.732.732 0 10-1.465 0v22.881A1.39 1.39 0 002.961 50h37.233a1.39 1.39 0 001.39-1.39V26.564l4.462-14.926 1.736.517-2.977 9.953a.732.732 0 101.404.42l3.186-10.656a.754.754 0 00-.492-.911zm-5.406-7.653a1.262 1.262 0 011.554-.836c.659.195 1.035.892.839 1.55l-.761 2.543-2.393-.714.76-2.543zm-9.892 2.388l.004-3.256 5.413 5.157h-3.515a1.904 1.904 0 01-1.902-1.9zm-.36 36.252l-.497-4.416 3.337.995-2.84 3.42z" fill="#0077C1"/><path d="M10.845 19.77c0 .405.328.733.733.733h19.886a.732.732 0 100-1.465H11.578a.732.732 0 00-.733.733zM11.578 26.197h18.674a.732.732 0 100-1.465H11.578a.732.732 0 100 1.465zM11.578 31.89h17.23a.732.732 0 100-1.465h-17.23a.732.732 0 100 1.465zM11.578 37.583h11.8a.732.732 0 100-1.465h-11.8a.732.732 0 100 1.465zM29.134 14.874c.68 0 1.232-.553 1.232-1.231v-2.954c0-.678-.552-1.23-1.232-1.23H13.017c-.68 0-1.232.552-1.232 1.23v2.954c0 .678.553 1.23 1.232 1.23h16.117zm-15.884-3.95h15.651v2.485h-15.65v-2.486z" fill="#0077C1"/></svg><svg fill="none" viewBox="0 0 51 50" id="038-salary" xmlns="http://www.w3.org/2000/svg"><path d="M39.657 26.662a11.51 11.51 0 007.96-3.906c4.219-4.792 3.753-12.127-1.039-16.35a11.575 11.575 0 00-7.516-2.89h-.133c-2.692 0-5.304.935-7.37 2.642a.734.734 0 00.932 1.13 10.066 10.066 0 0113.12.217c4.185 3.689 4.59 10.096.906 14.283a10.052 10.052 0 01-6.953 3.412 10.102 10.102 0 01-3.877-.507 10.006 10.006 0 01-1.982-.92 10.193 10.193 0 01-1.468-1.079 10.117 10.117 0 01-3.09-4.955 10.082 10.082 0 011.139-7.909.733.733 0 00-1.25-.764 11.545 11.545 0 00-1.512 8.14 11.648 11.648 0 00-2.793-.34 11.56 11.56 0 00-8.699 3.922 11.558 11.558 0 00-2.803 9.023l-4.572 1.411a1.926 1.926 0 00-1.74-1.107H2.422c-1.06 0-1.923.864-1.923 1.926v11.027c0 1.06.863 1.923 1.923 1.923h4.493c.842 0 1.557-.543 1.819-1.295l5.889 1.022a.732.732 0 00.25-1.444l-6.032-1.047v-9.529l4.652-1.436 1.138-.352.264-.08c3.928-1.196 5.785-1.401 8.39-1.401h2.375c.294.053.555.142.787.258.715.355 1.13.97 1.251 1.6.035.183.045.368.03.547-.07.868-.743 1.795-2.419 1.795h-1.849c-1.468-.094-2.403.943-2.57 2.023-.16 1.042.406 2.337 2.028 2.72a.797.797 0 00.047.01l.84.141 4.869.814.18.03a24.51 24.51 0 011.073.114c1.006.12 1.955.234 3.096-.033l10.516-2.456a.114.114 0 01.01-.003c1.229-.308 1.853.26 2.027.892.184.673-.106 1.544-1.182 1.866L27.9 44.678c-1.834.548-3.353.306-3.92.176l-.038-.008-5.734-.994a.733.733 0 00-.25 1.444l5.715.99a8.74 8.74 0 001.891.198c.785 0 1.732-.096 2.756-.402l16.495-4.932c1.909-.57 2.545-2.31 2.176-3.657-.355-1.294-1.692-2.449-3.79-1.927L32.69 38.02c-.554.13-1.07.142-1.6.106a11.634 11.634 0 002.326-2.027 11.505 11.505 0 002.867-8.39c-.03-.461-.085-.916-.167-1.364a11.571 11.571 0 003.54.316zM7.377 43.068c0 .248-.21.458-.46.458H2.422a.464.464 0 01-.458-.458V32.041a.46.46 0 01.458-.46h4.493c.25 0 .461.21.461.46v11.027zm24.939-7.936a10.071 10.071 0 01-3.79 2.696l-5.292-.886c-.639-.158-.973-.556-.895-1.066.066-.424.414-.829 1.043-.784l.054.002h1.874c2.504 0 3.753-1.578 3.88-3.142a3.66 3.66 0 00-1.735-3.387 2.364 2.364 0 00-1.817-.853h-1.814a.927.927 0 010-1.852h3.458a.733.733 0 000-1.465h-1.826v-1.24a.732.732 0 10-1.465 0v1.24h-.167a2.393 2.393 0 00-2.062 3.6c-2.027.088-3.907.411-7.107 1.377a10.086 10.086 0 012.477-7.615h-.001c2.772-3.148 7.081-4.159 10.828-2.899a11.572 11.572 0 003.31 4.935 11.555 11.555 0 003.227 2.017c.172.645.282 1.311.325 1.993a10.046 10.046 0 01-2.505 7.33z" fill="#0077C1"/><path d="M39.824 17.688h-3.458a.732.732 0 100 1.464h1.823v1.237a.732.732 0 001.465 0v-1.237h.17a2.395 2.395 0 002.391-2.393 2.388 2.388 0 00-2.38-2.392h-1.81a.927.927 0 010-1.852h3.458a.732.732 0 100-1.465h-1.826V9.814a.732.732 0 00-1.465 0v1.236h-.167a2.394 2.394 0 00-2.391 2.391 2.394 2.394 0 002.39 2.391h1.811a.928.928 0 01-.011 1.855z" fill="#0077C1"/></svg><svg fill="none" viewBox="0 0 51 50" id="045-promotion" xmlns="http://www.w3.org/2000/svg"><path d="M48.813 20.652h-3.335V4.573c0-.69-.562-1.253-1.253-1.253H32.581c-.498 0-.896.224-1.093.613-.19.376-.145.847.114 1.2l2.326 3.173c.177.24.177.365 0 .605l-2.325 3.172c-.26.354-.305.825-.115 1.201.197.39.595.612 1.093.612h11.432v6.756h-4.88c-.93 0-1.687.757-1.687 1.687v3.176h-9.857c-.955 0-1.732.776-1.732 1.73v5.81l-.089-.05a54.143 54.143 0 01-1.133-.656l-3.263-1.957c1.45-1.428 2.545-3.224 2.956-5.025.111-.497.167-.98.167-1.435V16.674c0-3.142-2.386-5.985-6.08-7.244-1.554-.53-3.2-.706-4.634-.498-1.501.218-2.73.836-3.577 1.795-1.722.263-4.243 1.587-4.157 7.099l.001.129v5.977c0 .461.058.945.17 1.438.412 1.8 1.506 3.595 2.955 5.022L5.908 32.35c-.387.233-.765.447-1.13.655C2.482 34.306.5 35.431.5 38.805v6.445c0 .313.039.768.371 1.095.304.297.678.333 1.005.333.053 0 .105 0 .156-.002l.17-.002h2.654a.732.732 0 100-1.465H2.201l-.196.002-.04.001v-6.407c0-2.52 1.33-3.276 3.536-4.528.249-.141.504-.287.766-.439l3.906 2.526.03.018c.144.083.265.166.383.247.25.17.59.401.99.401.281 0 .592-.115.923-.446l.318 1.246-2.189 4.743a.77.77 0 00.041.804l1.079 1.832H8.24a.732.732 0 100 1.465h20.102l.17.002.155.002.092-.001a.755.755 0 00.056.003l9.364-.006h11.129c.657 0 1.192-.535 1.192-1.191V22.339c0-.93-.757-1.687-1.688-1.687zM35.108 9.778c.553-.754.553-1.585 0-2.339l-1.946-2.654h10.85v7.647h-10.85l1.946-2.654zm-8.935 25.158c.02.014.042.027.063.039 1.483.92 2.344 1.805 2.344 3.83v6.407h-.043a11.023 11.023 0 00-.196-.003H18.79l1.083-1.839a.773.773 0 00.04-.792l-2.195-4.748.32-1.253c.334.337.647.454.93.454.401 0 .742-.233.992-.404.117-.08.239-.162.38-.245a.692.692 0 00.03-.018l3.906-2.526c.263.153.519.299.769.44.407.232.784.446 1.13.658zM14.16 37.168l-.473-1.853 1.585-1.678 1.58 1.67-.477 1.861H14.16zm8.713-4.167l-3.284 2.124c-.181.106-.332.21-.454.292l-.108.073a2.625 2.625 0 01-.05-.062.71.71 0 00-.045-.052l-2.15-2.275c.28-.072.568-.162.872-.275a10.148 10.148 0 002.552-1.425l2.667 1.6zM10.646 12.148a.732.732 0 00.516-.282c1.417-1.838 4.427-1.851 6.781-1.05 2.347.8 5.087 2.815 5.087 5.858v3.298h-.829c-1.28 0-2.113-.78-3.078-1.685-1.194-1.118-2.547-2.387-4.959-2.387h-1.966c-2.09 0-2.437 1.69-2.667 2.808-.268 1.306-.437 1.884-1.632 1.884h-.386v-2.638c0-.038 0-.089-.002-.151-.038-2.45.475-5.42 3.135-5.655zm-3 12.896a4.998 4.998 0 01-.133-1.112v-1.876h.386c2.44 0 2.817-1.837 3.067-3.053.268-1.306.425-1.638 1.233-1.638h1.965c1.833 0 2.865.967 3.958 1.991 1.091 1.023 2.22 2.08 4.08 2.08h.828v2.496c0 .348-.044.724-.13 1.112-.607 2.657-3.082 5.412-5.758 6.409-.706.263-1.3.385-1.87.385-.57 0-1.165-.122-1.87-.385-2.675-.997-5.148-3.752-5.755-6.41zm3.923 10.383a1.838 1.838 0 01-.05.063l-.108-.072c-.123-.083-.275-.187-.457-.294L7.67 33.001l2.668-1.6c.797.603 1.66 1.092 2.552 1.424.304.114.592.204.872.276l-1.416 1.5-.02.02-.712.755a.74.74 0 00-.045.051zm.52 7.475l1.97-4.269h2.417l1.972 4.27-1.358 2.306H13.448l-1.359-2.307zm36.946 2.307H38.911v-6.92a.732.732 0 10-1.465 0v6.92l-7.4.005v-6.409c0-2.574-1.156-3.839-2.724-4.873v-6.686a.27.27 0 01.267-.266h9.857v7.928a.732.732 0 101.465 0V22.339c0-.12.102-.222.223-.222h5.557a.713.713 0 00.054.003c.019 0 .037-.001.055-.003h4.012c.121 0 .223.102.223.222v22.87z" fill="#0077C1"/></svg><svg fill="none" viewBox="0 0 30 26" id="EX" xmlns="http://www.w3.org/2000/svg"><path d="M8.515 1.25h-.427l-.219.367-6.514 10.984-.226.381.225.383 6.485 11 .218.368h.428l13 .017h.427l.219-.367 6.514-10.984.226-.381-.225-.383-6.485-11-.218-.368h-.428l-13-.017z" fill="#FF0" stroke="#000" stroke-width="1.5" stroke-linecap="round"/><path d="M11.26 5C9.163 5 7.445 6.815 7.445 9.035c0 1.521.806 2.852 1.988 3.54-1.182.688-1.988 2.02-1.988 3.54 0 2.22 1.718 4.035 3.817 4.035 1.068 0 2.037-.47 2.731-1.224l-1.01-1.01a2.345 2.345 0 01-1.721.755c-1.342 0-2.418-1.136-2.418-2.556 0-1.395 1.04-2.517 2.35-2.555l-.005-.018h1.707v-1.934h-1.707l.004-.018c-1.31-.038-2.35-1.16-2.35-2.555 0-1.419 1.077-2.556 2.419-2.556.676 0 1.283.288 1.72.756l1.011-1.01C13.298 5.47 12.33 5 11.261 5zm4.6 6.785v1.439h.488c.304 0 .45.073.585.308l1.43 2.482-1.456 2.527c-.136.235-.28.308-.584.308h-.488v1.439h.488c.712 0 1.445-.36 1.83-1.028l1.042-1.805 1.042 1.805c.385.668 1.118 1.028 1.83 1.028h.488v-1.44h-.487c-.304 0-.45-.072-.585-.307l-1.457-2.527 1.431-2.482c.136-.235.28-.308.585-.308h.488v-1.439h-.488c-.713 0-1.446.36-1.831 1.027l-1.016 1.762-1.015-1.762c-.386-.667-1.119-1.027-1.832-1.027h-.487z" fill="#000"/></svg><svg fill="none" viewBox="0 0 20 20" id="arrow" xmlns="http://www.w3.org/2000/svg"><path d="M13.068 13.805L16.875 10m0 0l-3.807-3.805M16.875 10H3.078" stroke="#0077C1" stroke-width="1.2" stroke-linecap="round" stroke-linejoin="round"/></svg><svg fill="none" viewBox="0 0 12 11" id="arrow-smal" xmlns="http://www.w3.org/2000/svg"><path d="M6 7.803c-.203 0-.375-.078-.547-.203L1.125 3.522c-.172-.172-.172-.422 0-.578.172-.172.422-.172.578 0L6 6.975l4.297-4.078c.172-.172.422-.172.578 0 .172.172.172.422 0 .578L6.547 7.553c-.172.219-.344.25-.547.25z" fill="#0077C1"/></svg><svg fill="none" viewBox="0 0 51 51" id="button-play" xmlns="http://www.w3.org/2000/svg"><g clip-path="url(#mclip0)"><circle cx="25.097" cy="25.394" r="25" fill="#fff"/><path d="M35.097 25.394l-15 8.66v-17.32l15 8.66z" fill="#0077C1"/></g><defs><clipPath id="mclip0"><path fill="#fff" transform="translate(.097 .394)" d="M0 0h50v50H0z"/></clipPath></defs></svg><svg fill="none" viewBox="0 0 20 20" id="circle-ok" xmlns="http://www.w3.org/2000/svg"><path d="M13.652 6.895h-.916c-.199 0-.388.095-.505.26l-3.07 4.257-1.391-1.93a.625.625 0 00-.506-.26h-.916c-.127 0-.201.145-.127.249l2.433 3.375a.621.621 0 001.01 0l4.113-5.703a.156.156 0 00-.125-.248z" fill="#0077C1"/><path d="M10 1.25a8.75 8.75 0 10.001 17.501A8.75 8.75 0 0010 1.25zm0 16.016a7.267 7.267 0 010-14.532 7.267 7.267 0 010 14.532z" fill="#0077C1"/></svg><svg fill="none" viewBox="0 0 20 20" id="email" xmlns="http://www.w3.org/2000/svg"><path d="M17.5 3.75h-15A1.25 1.25 0 001.25 5v10a1.25 1.25 0 001.25 1.25h15A1.25 1.25 0 0018.75 15V5a1.25 1.25 0 00-1.25-1.25zM16.125 5L10 9.238 3.875 5h12.25zM2.5 15V5.569l7.144 4.943a.625.625 0 00.712 0L17.5 5.57V15h-15z" fill="gray"/></svg><svg fill="none" viewBox="0 0 20 20" id="filter" xmlns="http://www.w3.org/2000/svg"><path fill-rule="evenodd" clip-rule="evenodd" d="M8.733 17.5v-6.487L4.103 6.38a1.272 1.272 0 01-.37-.89V3.334a.433.433 0 01.434-.433H17.5a.433.433 0 01.433.433v2.159c0 .33-.135.656-.368.89l-4.632 4.63v4.821a.435.435 0 01-.24.389l-3.332 1.666a.436.436 0 01-.628-.389zm3.334-1.934v-4.733a.433.433 0 01.127-.306l4.876-4.876-.003-1.884H4.6v1.89l4.874 4.87a.43.43 0 01.126.306V16.8l2.467-1.233z" fill="#252525"/></svg><svg fill="none" viewBox="0 0 130 60" id="main-logo" xmlns="http://www.w3.org/2000/svg"><path d="M127.479 28.752h-.51v-.893h.549c.411 0 .618.137.618.44 0 .302-.221.453-.659.453h.002zm1 .425a.589.589 0 00-.329-.248.694.694 0 00.453-.68.698.698 0 00-.356-.642 1.274 1.274 0 00-.631-.124h-1.113v2.764h.468V29.11h.465c.262 0 .44.027.522.109a.653.653 0 01.17.48c-.001.186.023.37.071.55h.45a1.85 1.85 0 01-.068-.425 2.39 2.39 0 00-.095-.646" fill="var(--icon-color, #1B7EC3)"/><path d="M129.016 30.385a1.975 1.975 0 01-1.483.62 2.087 2.087 0 01-.948-.22 2.055 2.055 0 01-.824-.782 2.011 2.011 0 01-.316-1.113c.003-.286.054-.57.151-.838.112-.254.27-.484.467-.68a2.053 2.053 0 011.497-.616c.327-.001.648.079.936.233.344.175.63.446.823.781.202.333.309.715.31 1.105a2.051 2.051 0 01-.616 1.51h.003zm.71-2.635a2.29 2.29 0 00-.905-.975 2.322 2.322 0 00-1.251-.372c-.4 0-.796.094-1.153.275-.408.203-.75.517-.989.905-.234.39-.357.837-.357 1.292-.003.39.087.776.262 1.126.2.41.521.75.919.975a2.38 2.38 0 001.278.357c.39.003.776-.086 1.126-.26.406-.2.745-.516.973-.907.247-.386.376-.834.371-1.291a2.473 2.473 0 00-.274-1.125zM76.301 26.445l-6.22 22.533h7.128l6.22-22.533H76.3zM46.286 47.92c.056-.014.11-.041.17-.055l.013-.013c.055-.014.111-.043.17-.055a.014.014 0 00.01-.004.015.015 0 00.004-.005v-.006c.235-.081.467-.17.7-.273h.029c.049-.026.098-.048.15-.069.015 0 .015 0 .028-.015l5.787-20.98H46.21l-5.13 18.55a2.92 2.92 0 01-1.51.425 3.059 3.059 0 01-1.606-.465l5.108-18.51h-7.127l-5.822 21.067c.039.023.08.042.124.054.027.014.04.014.054.03.043.013.084.025.138.038l.083.043a.19.19 0 01.068.027c.027.014.07.027.11.042a.098.098 0 01.069.027.424.424 0 00.096.028c.028.012.055.027.082.04.03.003.058.013.083.028.027.013.068.013.095.027a.208.208 0 00.084.027c.054.029.108.042.17.07h.013l.11.04a.214.214 0 01.082.026.261.261 0 01.097.029c.027.015.054.015.082.029.027.013.067.013.096.027.03.014.068.027.095.04a.33.33 0 01.11.028c.015 0 .042.013.055.013a.969.969 0 01.11.041c.028 0 .057.014.084.014.027 0 .068.027.095.042.027.016.04.014.068.014a.326.326 0 00.11.025c.028.016.055.016.084.03.026.01.054.019.081.026.041.016.084.016.124.03.014.011.041.011.068.026a.314.314 0 01.097.028.396.396 0 01.122.027c.03.003.058.012.084.027a.378.378 0 01.122.027c.015 0 .042.015.056.015a.293.293 0 01.095.028.117.117 0 01.07.012.54.54 0 00.137.029c.01 0 .02.006.028.013.11.027.219.04.33.068.026.014.054.014.08.029a.117.117 0 01.07.012c.041 0 .082.015.124.015.043 0 .041.014.068.027.028.014.084.014.124.014a.18.18 0 01.096.027h.027c.042.014.097.014.14.027.041.014.067.014.108.027a.202.202 0 01.095.014.105.105 0 01.07.014c.054 0 .096.015.15.015v.013h.082c1.123.19 2.26.286 3.398.288a22.319 22.319 0 003.447-.274v-.014h.068a.05.05 0 01.041-.013c.04 0 .083-.015.124-.015.04 0 .068-.014.11-.028a.113.113 0 00.067-.013.105.105 0 00.07-.014c.11-.013.22-.042.33-.054a.154.154 0 01.069-.014c.04-.013.068-.013.108-.027.097-.015.208-.042.316-.07a.158.158 0 00.07-.013c.04-.014.082-.014.123-.027a.055.055 0 00.042-.014.513.513 0 00.138-.027c.013 0 .027-.015.04-.015l.17-.04h.014l.17-.042c.015 0 .029-.014.042-.014.055-.013.11-.027.151-.04h.028c.04-.016.096-.027.15-.043.014 0 .028-.012.042-.012.056-.013.096-.029.15-.04.014 0 .014-.016.028-.016.056-.013.097-.029.138-.04.04-.012.04 0 .056-.014l.17-.043.015-.013.15-.041c.015 0 .028-.014.055-.014l.124-.04c.012-.014.041-.014.055-.028a.419.419 0 00.124-.027c.025-.013.04-.013.068-.027l.124-.044c.013 0 .027-.012.04-.012.055-.014.111-.04.152-.054h.027a.776.776 0 01.151-.056.043.043 0 01.027-.014M90.117 45.42a3.007 3.007 0 01-1.602-.467l3.982-14.44a2.994 2.994 0 011.732-.563c.512 0 1.014.138 1.456.398l-4.052 14.651a2.923 2.923 0 01-1.51.425l-.006-.004zm2.601 3.561h.066a.054.054 0 01.043-.013c.042 0 .083-.015.124-.015.04 0 .07-.014.11-.028a.148.148 0 00.068-.013.153.153 0 00.07-.014c.109-.013.22-.04.33-.054a.119.119 0 01.068-.014c.027-.013.068-.013.096-.027a2.31 2.31 0 00.315-.07.106.106 0 00.07-.013c.04-.014.094-.014.137-.027.014 0 .027 0 .027-.014.052 0 .103-.01.151-.029.012 0 .028-.012.04-.012l.17-.042h.013l.17-.04c.013 0 .029-.014.04-.014l.145-.038c.054-.012.11-.027.151-.039.014 0 .041-.014.056-.014.016 0 .095-.029.136-.04.014 0 .027-.016.041-.016.042-.013.097-.027.138-.042.02.002.039-.002.056-.012l.17-.043c0-.003.001-.007.004-.01a.014.014 0 01.01-.003l.15-.04c.012 0 .028-.014.04-.014a2.11 2.11 0 01.139-.041c.013-.014.04-.014.054-.027a.271.271 0 00.11-.03.763.763 0 00.082-.027l.124-.04c.014 0 .027-.014.04-.014.057-.013.098-.04.152-.054h.014a.671.671 0 01.17-.055c.013-.015.013-.015.028-.015.055-.013.11-.04.15-.054.014 0 .014-.016.027-.016a1.2 1.2 0 00.151-.054c.014 0 .014 0 .028-.012.236-.083.467-.178.7-.275h.015c.054-.027.109-.043.17-.068l.005-.001a.015.015 0 00.005-.004.016.016 0 00.003-.005v-.005l5.386-19.533a22.78 22.78 0 00-8.527-1.731c-3.007 0-6.116.715-8.911 1.894l-5.369 19.444c.039.025.08.043.124.055.012.014.041.014.055.027l.122.042.083.041a.1.1 0 01.068.027c.041.014.084.03.11.041a.194.194 0 01.082.027c.03.017.064.026.099.028.025.015.054.027.08.042a.17.17 0 01.083.027c.027.014.054.014.097.03a.215.215 0 00.081.025c.055.027.11.042.17.07l.124.04a.193.193 0 01.082.027c.03.003.057.012.083.027a.596.596 0 01.095.03c.029.011.055.011.083.025.03.013.068.029.11.042a.34.34 0 01.111.028c.014 0 .04.013.055.013l.108.042c.028 0 .055.012.07.012l.109.041c.027 0 .04.016.068.016.03.014.063.023.097.027.027.013.054.013.083.027.029.013.068.015.095.027.027.012.068.015.11.029.043.014.056.014.068.025.034.002.067.011.097.028a.387.387 0 01.122.029c.035 0 .068.01.097.027a.397.397 0 01.124.027c.014 0 .028.013.055.013a.24.24 0 01.083.028.17.17 0 01.083.015c.044.015.09.024.136.027.014 0 .014.014.027.014.11.027.22.04.33.068.029.013.056.013.083.027a.123.123 0 01.068.013c.04 0 .082.016.109.016a.2.2 0 01.083.027.313.313 0 00.11.014c.026 0 .068.013.11.027h.014c.055.013.096.013.152.027.027.013.068.013.108.027a.244.244 0 01.097.014.119.119 0 01.068.013c.055 0 .095.016.138.016 0 0 .015 0 .015.013h.082c1.122.19 2.259.287 3.398.289a22.817 22.817 0 003.447-.275l.008-.01zM70.578 26.445L66.21 42.429l-3.214-15.984H56.2L50.05 48.992h2.732l4.38-16.067.04 1.017 2.872 15.05h7.069l6.168-22.547h-2.732zM115.627 31.005l-.933 3.398c-.013.042-.027.083-.041.137v.028a2.64 2.64 0 01-2.499 1.84h-1.359l1.869-6.742h2.039a.997.997 0 01.919.634.999.999 0 01.069.386 1.19 1.19 0 01-.056.33l-.008-.011zm7.246-1.911a2.634 2.634 0 00-2.644-2.649h-13.814l-6.22 22.531h7.126l2.786-10.105h1.745a1.122 1.122 0 011.099 1.113 1.216 1.216 0 01-.029.233l-.012.013a.326.326 0 01-.029.11l-1.51 5.424a2.667 2.667 0 00-.138.796 2.42 2.42 0 002.364 2.416v.016h6.233l.625-2.28h-.701a1.231 1.231 0 01-.872-.355 1.226 1.226 0 01-.364-.868c.004-.083.013-.166.028-.247v-.012l1.408-5.39c.057-.121.094-.25.109-.383l.015-.056h-.015c0-.04.015-.081.015-.124a1.499 1.499 0 00-1.306-1.476v-.028h.169a2.127 2.127 0 002.024-1.456l.013-.013 1.62-6.042c.154-.32.247-.665.275-1.019l.015-.04h-.015v-.11zM9.854 44.442c-2.681 0-4.961-1.88-5.858-4.453L.02 43.151c1.857 3.707 5.561 6.235 9.827 6.235s7.96-2.521 9.818-6.22l-4.035-3.21c-.832 2.614-3.107 4.486-5.776 4.486zM9.854 31.022c2.632 0 4.876 1.81 5.747 4.353l4.04-3.138c-1.875-3.667-5.558-6.159-9.787-6.159-4.288 0-8.004 2.548-9.854 6.276l4.035 3.216c.822-2.645 3.114-4.548 5.819-4.548z" fill="var(--icon-color, #1B7EC3)"/><path d="M12.037 33.91l-6.154 4.676s.17 1.1.644 1.748c.34.436.744.817 1.2 1.13l6.286-4.904a6.166 6.166 0 00-.799-1.501 7.194 7.194 0 00-1.174-1.149" fill="var(--icon-color, #1B7EC3)"/></svg><svg fill="none" viewBox="0 0 16 16" id="map" xmlns="http://www.w3.org/2000/svg"><path fill-rule="evenodd" clip-rule="evenodd" d="M15.817.613A.499.499 0 0116 1v13a.5.5 0 01-.402.49l-5 1a.501.501 0 01-.196 0L5.5 14.51l-4.902.98A.5.5 0 010 15V2a.5.5 0 01.402-.49l5-1a.5.5 0 01.196 0l4.902.98 4.902-.98a.5.5 0 01.415.103zM10 2.41l-4-.8v11.98l4 .8V2.41zm1 11.98l4-.8V1.61l-4 .8v11.98zm-6-.8V1.61l-4 .8v11.98l4-.8z" fill="#0077C1"/></svg><svg fill="none" viewBox="0 0 20 20" id="map-marker" xmlns="http://www.w3.org/2000/svg"><path d="M10 0C5.844 0 2.5 3.5 2.5 7.906c0 3.75 5.156 9.907 6.75 11.75.156.25.5.344.75.344a.953.953 0 00.75-.344c1.594-1.812 6.75-8.062 6.75-11.75C17.5 3.5 14.156 0 10 0zm0 18c-2.844-3.344-5.844-7.75-5.844-10.094 0-3.5 2.594-6.25 5.844-6.25 3.25 0 5.844 2.844 5.844 6.25 0 2.344-3 6.75-5.844 10.094z" fill="#0077C1"/><path d="M10 4.156A3.348 3.348 0 006.656 7.5c0 1.844 1.5 3.344 3.344 3.344 1.844 0 3.344-1.5 3.344-3.344 0-1.844-1.5-3.344-3.344-3.344zm0 5c-.906 0-1.656-.75-1.656-1.656 0-.906.75-1.656 1.656-1.656.906 0 1.656.75 1.656 1.656 0 .906-.75 1.656-1.656 1.656z" fill="#0077C1"/></svg><svg fill="none" viewBox="0 0 16 97" id="pattern-color" xmlns="http://www.w3.org/2000/svg"><path d="M.5 1l15 2.984v9.949l-15-1.99V1z" fill="#0070B3"/><path d="M.5 13.933l15 2.984v3.98L5.45 24.377l10.05-1.492v3.98l-15 1.989V13.933z" fill="#F7931D"/><path fill="#ED1A3A" d="M.5 31.839h15v9.948H.5z"/><path fill="#7B9540" d="M.5 47.756h15v9.948H.5z"/><path d="M.5 60.192l15 1.492v3.98l-9 1.491 9-.497v4.974l-15 2.984V60.193z" fill="#6FC6EF"/><path d="M.5 76.606h15v7.959L2.6 83.073l12.9 4.476v4.477L.5 95.01V76.606z" fill="#FECA0A"/></svg><svg fill="none" viewBox="0 0 13 12" id="plus-minus" xmlns="http://www.w3.org/2000/svg"><path d="M.5 6h12m-6-6v12" stroke="#252525"/></svg><svg fill="none" viewBox="0 0 21 20" id="search-alt" xmlns="http://www.w3.org/2000/svg"><path d="M19.656 17.656l-5.312-4.312c2.25-3.094 1.906-7.406-.844-10.156A7.776 7.776 0 007.906.844a7.802 7.802 0 00-5.562 2.312C.844 4.656 0 6.656 0 8.75c0 2.094.844 4.094 2.344 5.594 1.594 1.594 3.594 2.344 5.594 2.344 1.906 0 3.843-.657 5.343-2.094L18.687 19c.157.156.344.156.5.156.25 0 .5-.093.657-.343.25-.313.25-.813-.188-1.157zM7.906 15A6.144 6.144 0 013.5 13.156 6.273 6.273 0 011.656 8.75c0-1.656.657-3.25 1.844-4.406C4.688 3.187 6.25 2.5 7.906 2.5c1.657 0 3.25.656 4.407 1.844 1.156 1.187 1.843 2.75 1.843 4.406 0 1.656-.656 3.25-1.844 4.406A6.091 6.091 0 017.907 15z" fill="#0077C1"/></svg><svg fill="none" viewBox="0 0 20 20" id="share" xmlns="http://www.w3.org/2000/svg"><path fill-rule="evenodd" clip-rule="evenodd" d="M3.333 9.375c.346 0 .625.28.625.625v6.667A1.041 1.041 0 005 17.708h10a1.042 1.042 0 001.042-1.041V10a.625.625 0 111.25 0v6.667A2.292 2.292 0 0115 18.958H5a2.292 2.292 0 01-2.292-2.291V10c0-.345.28-.625.625-.625zM9.558 1.225a.625.625 0 01.884 0l3.333 3.333a.625.625 0 01-.884.884L10 2.55 7.109 5.44a.625.625 0 01-.884-.883l3.333-3.333z" fill="#252525"/><path fill-rule="evenodd" clip-rule="evenodd" d="M10 1.042c.345 0 .625.28.625.625V12.5a.625.625 0 11-1.25 0V1.667c0-.346.28-.625.625-.625z" fill="#252525"/></svg><svg fill="none" viewBox="0 0 36 36" id="square-arrey" xmlns="http://www.w3.org/2000/svg"><path d="M6.308 5.977h5.834v5.833H6.308V5.977z" fill="#ED1A3A"/><path d="M6.308 14.727h5.834v5.833H6.308v-5.833z" fill="#7C9640"/><path d="M12.142 23.477H6.308v5.833h5.834v-5.833z" fill="#F7931D"/><path d="M15.058 5.977h5.834v5.833h-5.834V5.977z" fill="#FECA0A"/><path d="M20.892 14.727h-5.834v5.833h5.834v-5.833z" fill="#0070B3"/><path d="M15.058 23.477h5.834v5.833h-5.834v-5.833z" fill="#6FC6EF"/><path d="M29.642 5.977h-5.834v5.833h5.834V5.977z" fill="#7C9640"/><path d="M23.808 14.727h5.834v5.833h-5.834v-5.833z" fill="#F7931D"/><path d="M29.642 23.477h-5.834v5.833h5.834v-5.833z" fill="#ED1A3A"/></svg><svg fill="none" viewBox="0 0 21 20" id="user" xmlns="http://www.w3.org/2000/svg"><path d="M10.028 12c-2.75 0-5-2.25-5-5s2.25-5 5-5 5 2.25 5 5-2.25 5-5 5zm0-8.313a3.348 3.348 0 00-3.344 3.344c0 1.844 1.532 3.313 3.344 3.313 1.813 0 3.344-1.5 3.344-3.344 0-1.844-1.5-3.313-3.344-3.313zM.872 18.688c-.25 0-.5-.094-.656-.344-.344-.344-.25-.907.093-1.157 2.75-2.25 6.157-3.5 9.75-3.5 3.594 0 7 1.25 9.657 3.5.343.344.406.844.093 1.157-.343.343-.843.406-1.156.093-2.375-2-5.437-3.093-8.625-3.093-3.187 0-6.25 1.094-8.656 3.156-.094.094-.344.188-.5.188z" fill="#0077C1"/></svg><svg fill="none" viewBox="0 0 20 20" id="wheelbarrow" xmlns="http://www.w3.org/2000/svg"><path d="M17.906 14.156c-.343 0-.593.094-.906.156l-.844-.906c1.344-.75 2.407-1.906 2.907-3.5l.593-1.844c.094-.25.344-1.093-.093-1.656-.344-.406-.844-.656-1.5-.656h-12.5l-.907-2.906c-.25-.656-.843-1.156-1.593-1.156H.842C.344 1.655 0 2 0 2.5s.344.844.844.844h2.25l1.094 3.5V17.28c0 .407.25.844.656 1 .156.094.25.094.406.094.25 0 .5-.094.656-.25l5.157-3.906h2.25c.406 0 .75-.094 1.156-.094l1.5 1.594a1.111 1.111 0 00-.156.594c0 1.156.906 2.093 2.093 2.093A2.074 2.074 0 0020 16.313c0-1.188-.906-2.157-2.094-2.157zM5.844 16v-1.844h2.5L5.844 16zm0-3.5v-5h12.343v.094L17.5 9.406c-.594 1.844-2.344 3.094-4.156 3.094h-7.5zm12.062 4.156c-.25 0-.406-.156-.406-.406s.156-.406.406-.406.407.156.407.406-.157.406-.407.406z" fill="#0077C1"/></svg></svg>