<svg width="51" height="50" viewBox="0 0 51 50" fill="none" xmlns="http://www.w3.org/2000/svg">
<path d="M22.4895 34.9968L22.475 21.3027C23.0831 21.0483 23.5161 20.4739 23.583 19.7527C23.7615 17.8069 25.326 17.0841 26.7306 17.0564C26.7585 17.0559 26.7861 17.0556 26.8141 17.0556C28.4337 17.0556 30.1674 17.9807 30.4045 19.7815C30.4063 19.7949 30.4085 19.8082 30.4109 19.8216C30.582 20.7279 31.3096 21.3849 32.1903 21.4409C32.1978 21.4418 32.2054 21.442 32.2129 21.4427C32.2251 21.4433 32.237 21.445 32.2492 21.4455C32.2534 21.4457 32.2578 21.4453 32.262 21.4455C32.2646 21.4455 32.2671 21.4459 32.2697 21.4459H32.2735C32.277 21.4459 32.2804 21.4454 32.2838 21.4454C33.0453 21.4591 33.8994 20.976 34.1375 19.8687C34.6869 18.1014 35.7806 17.1552 37.1384 17.27C38.4677 17.3828 39.5973 18.4614 39.7659 19.7786C39.8734 20.6211 40.4961 20.9673 41.0307 20.9346C41.6687 20.8941 42.1686 20.3456 42.1686 19.6859C42.1686 14.4197 40.0068 9.46231 36.0814 5.72677C32.2026 2.03546 27.1127 0.00264484 21.7491 0.00264484C21.7469 0.00264484 21.7446 0.0027425 21.7424 0.0027425L21.7408 0.00264484L21.7383 0.0027425C21.7186 0.0027425 21.6988 0.00332843 21.6791 0.00342609C21.6449 0.000496403 21.6104 -0.000968441 21.5752 0.000984684C21.5616 0.00176593 21.5471 0.00410968 21.5333 0.0051839C16.2495 0.0588948 11.2438 2.08497 7.41709 5.72667C3.4918 9.46222 1.33008 14.4197 1.33008 19.6858C1.33008 20.3443 1.82852 20.8928 2.46494 20.9343C2.99834 20.9701 3.62207 20.623 3.73271 19.7788C3.90146 18.4609 5.03115 17.3823 6.36064 17.2699C7.71904 17.1535 8.81055 18.1021 9.35879 19.8695C9.57226 20.8476 10.2647 21.3354 10.9471 21.4286C10.994 21.4381 11.0426 21.4432 11.0924 21.4432H11.0963L11.1008 21.4429C11.1309 21.4444 11.161 21.4465 11.1908 21.4465C11.2103 21.4465 11.2297 21.4462 11.249 21.4455C12.1568 21.416 12.9131 20.7483 13.088 19.8217C13.0904 19.8083 13.0926 19.795 13.0944 19.7816C13.3355 17.9496 15.1253 17.0268 16.7669 17.0565C18.1709 17.0842 19.7348 17.807 19.9133 19.7528C19.9797 20.4685 20.4079 21.04 21.0103 21.2972L21.0247 34.995C19.9161 35.1718 19.0661 36.1338 19.0661 37.2907V42.7223C19.0661 43.2742 18.9067 44.2002 17.8393 44.2002C16.7693 44.2002 16.6097 43.2743 16.6097 42.7223V40.2239C16.6097 38.9403 15.5673 37.8961 14.286 37.8961H13.5638C12.2825 37.8961 11.2401 38.9403 11.2401 40.2239V42.7223C11.2401 46.6295 14.0771 49.576 17.8394 49.576C21.6 49.576 24.4358 46.6295 24.4358 42.7223V37.2907C24.4356 36.1373 23.5918 35.1778 22.4895 34.9968ZM26.7018 15.5919C25.0068 15.6253 23.2271 16.4552 22.4735 18.2083V1.68321C23.594 2.15177 25.4867 3.41983 27.3081 5.9047C29.0355 8.26134 31.0489 12.2386 31.4636 18.2588C30.5974 16.46 28.5784 15.5587 26.7018 15.5919ZM40.6142 17.9049C39.898 16.7488 38.6528 15.9283 37.2625 15.8104C35.3734 15.6507 33.8025 16.76 32.9632 18.8085C32.6314 12.0782 30.397 7.64093 28.4896 5.03868C27.516 3.71046 26.4616 2.63136 25.4496 1.81681C33.5446 3.3628 39.8002 9.87891 40.6142 17.9049ZM16.7957 15.5919C14.7956 15.555 12.6339 16.5814 11.8787 18.6247C12.0024 16.4651 12.3386 14.418 12.884 12.5175C12.9956 12.1287 12.7708 11.7231 12.382 11.6115C11.9933 11.5 11.5876 11.7247 11.476 12.1136C10.9007 14.1183 10.5464 16.2727 10.4164 18.5408C9.61152 16.7893 8.24053 15.7951 6.59287 15.7951C6.47568 15.7951 6.35693 15.8002 6.23711 15.8103C4.84668 15.9278 3.60107 16.7485 2.88486 17.904C3.69287 9.93663 9.86318 3.45811 17.8722 1.85167C17.7097 1.98292 17.5474 2.11856 17.3863 2.26085C16.0492 3.44151 14.141 5.55225 12.6433 8.90343C12.4782 9.27276 12.6438 9.70597 13.0131 9.871C13.1102 9.91436 13.2117 9.93487 13.3115 9.93487C13.5916 9.93487 13.859 9.77335 13.9807 9.50118C16.1249 4.70362 19.3686 2.25245 21.0089 1.62686V18.1776C20.2477 16.4456 18.48 15.6251 16.7957 15.5919ZM22.9708 42.7223C22.9708 45.8448 20.8126 48.1111 17.8392 48.1111C14.8642 48.1111 12.7048 45.8448 12.7048 42.7223V40.2239C12.7048 39.7481 13.09 39.3609 13.5636 39.3609H14.2858C14.7594 39.3609 15.1446 39.7481 15.1446 40.2239V42.7223C15.1446 44.4824 16.2274 45.665 17.8391 45.665C19.449 45.665 20.5308 44.4825 20.5308 42.7223V37.2907C20.5308 36.8164 20.9173 36.4305 21.3924 36.4305H21.7577H22.1119C22.5854 36.4305 22.9707 36.8163 22.9707 37.2907L22.9708 42.7223Z" fill="#0077C1"/>
<path d="M49.1906 26.6905C49.0291 25.7355 48.2063 25.5433 47.6619 25.4161C47.5813 25.3973 47.4978 25.3778 47.4057 25.354L38.6519 23.1733C38.6105 23.1632 38.5757 23.1544 38.546 23.1468C38.2161 23.0623 38.0912 23.0721 37.7693 23.1552L28.9289 25.356C28.8437 25.3782 28.7603 25.3977 28.6798 25.4165C28.1366 25.5438 27.3158 25.736 27.1545 26.6893C26.4257 30.9555 26.5195 34.5847 27.4412 37.7843C27.5531 38.173 27.9589 38.3972 28.3477 38.2854C28.7364 38.1734 28.9607 37.7675 28.8488 37.3788C27.9912 34.4019 27.9079 30.9939 28.5945 26.9595C28.682 26.9205 28.8708 26.8762 29.014 26.8428C29.1058 26.8212 29.2009 26.7989 29.2905 26.7756L38.0526 24.5949L38.1357 24.5735C38.1496 24.5699 38.1622 24.5666 38.1737 24.5636C38.1767 24.5644 38.1797 24.5651 38.1829 24.5658C38.217 24.5746 38.257 24.5848 38.3012 24.5956L47.0449 26.7737C47.142 26.7989 47.2371 26.8212 47.3288 26.8426C47.4727 26.8763 47.6625 26.9206 47.7504 26.9596C49.8828 39.5107 44.206 44.4536 38.1732 48.415C35.2163 46.4728 31.9501 43.988 30.0142 40.2913C29.8266 39.933 29.3838 39.7946 29.0255 39.9823C28.6672 40.1699 28.5288 40.6126 28.7164 40.9709C30.825 44.9973 34.3139 47.6388 37.4455 49.6896C37.4916 49.7201 37.5293 49.7464 37.5612 49.7687C37.7825 49.9229 37.9759 50 38.1701 50C38.364 50 38.5586 49.923 38.7825 49.7693C38.8136 49.7479 38.8503 49.7227 38.8932 49.6944C41.9064 47.7212 45.274 45.1907 47.4038 41.3834C49.6173 37.4265 50.2017 32.6201 49.1906 26.6905Z" fill="#0077C1"/>
<path d="M39.4382 28.8693H36.9061C36.0673 28.8693 35.3849 29.5508 35.3849 30.3884V32.6308H33.148C32.3092 32.6308 31.6269 33.3122 31.6269 34.1498V36.6869C31.6269 37.5245 32.3092 38.206 33.148 38.206H35.3849V40.4484C35.3849 41.2859 36.0673 41.9674 36.9061 41.9674H39.4382C40.277 41.9674 40.9593 41.2859 40.9593 40.4484V38.206H43.1963C44.0351 38.206 44.7174 37.5245 44.7174 36.6869V34.1498C44.7174 33.3122 44.0351 32.6308 43.1963 32.6308H40.9593V30.3884C40.9593 29.5508 40.277 28.8693 39.4382 28.8693ZM43.1963 34.0956C43.2258 34.0956 43.2525 34.1215 43.2525 34.1498V36.6869C43.2525 36.7152 43.2258 36.7411 43.1963 36.7411H40.2269C39.8224 36.7411 39.4944 37.069 39.4944 37.4735V40.4484C39.4944 40.4767 39.4677 40.5026 39.4382 40.5026H36.9061C36.8766 40.5026 36.8497 40.4767 36.8497 40.4484V37.4735C36.8497 37.069 36.5218 36.7411 36.1173 36.7411H33.148C33.1185 36.7411 33.0917 36.7152 33.0917 36.6869V34.1498C33.0917 34.1215 33.1185 34.0956 33.148 34.0956H36.1173C36.5218 34.0956 36.8497 33.7678 36.8497 33.3632V30.3884C36.8497 30.3601 36.8766 30.3342 36.9061 30.3342H39.4382C39.4677 30.3342 39.4944 30.3601 39.4944 30.3884V33.3632C39.4944 33.7678 39.8224 34.0956 40.2269 34.0956H43.1963Z" fill="#0077C1"/>
</svg>
