<svg width="51" height="50" viewBox="0 0 51 50" fill="none" xmlns="http://www.w3.org/2000/svg">
<path d="M48.8125 20.6523H45.4779V13.1641V12.9041V4.57275C45.4779 3.88213 44.9159 3.32031 44.2251 3.32031H32.5806C32.083 3.32031 31.6848 3.54355 31.4879 3.93271C31.2978 4.30879 31.3429 4.78018 31.6022 5.13291L33.9278 8.30557C33.9279 8.30576 33.928 8.30586 33.9281 8.30605C34.1045 8.54619 34.1045 8.67051 33.9278 8.91113L31.6028 12.0829C31.3428 12.4365 31.2977 12.908 31.4878 13.284C31.6848 13.6731 32.083 13.8964 32.5805 13.8964H44.0129V20.6523H39.1335C38.203 20.6523 37.446 21.409 37.446 22.339V25.5149H27.5889C26.634 25.5149 25.857 26.2914 25.857 27.2459V33.0552C25.8273 33.0383 25.7978 33.0215 25.768 33.0046C25.4021 32.7969 25.0236 32.582 24.6352 32.3491L21.3721 30.3917C22.8223 28.9642 23.9169 27.1683 24.3281 25.3669C24.439 24.8699 24.4952 24.3872 24.4952 23.9322V20.7043V19.4679V16.6742C24.4952 13.5324 22.1089 10.6892 18.4157 9.43037C16.8614 8.90059 15.2151 8.72363 13.7806 8.93193C12.2796 9.1498 11.0501 9.76826 10.2037 10.7269C8.48213 10.9897 5.96094 12.3138 6.04658 17.8256C6.04736 17.8786 6.04814 17.9221 6.04814 17.9549V19.3435V21.3239V23.9322C6.04814 24.3932 6.10566 24.8772 6.21885 25.3704C6.62969 27.17 7.72363 28.965 9.17285 30.3922L5.9083 32.3491C5.52051 32.5817 5.14287 32.7961 4.77764 33.0035C2.48232 34.3069 0.5 35.4324 0.5 38.8053V45.2502C0.5 45.5635 0.538574 46.0177 0.871387 46.3446C1.17451 46.6425 1.54854 46.678 1.87617 46.678C1.9293 46.678 1.98125 46.6771 2.03154 46.6761C2.08564 46.6751 2.14229 46.674 2.20146 46.674H4.85645C5.26104 46.674 5.58887 46.3462 5.58887 45.9416C5.58887 45.537 5.26104 45.2092 4.85645 45.2092H2.20146C2.13311 45.2092 2.06758 45.2104 2.00508 45.2114C1.99219 45.2116 1.97861 45.2119 1.96484 45.2121V38.8052C1.96484 36.2851 3.2958 35.5293 5.50098 34.2772C5.75 34.1358 6.00547 33.9904 6.26719 33.838L10.1729 36.3638C10.183 36.3702 10.1931 36.3765 10.2034 36.3824C10.3466 36.4654 10.4683 36.5483 10.5859 36.6286C10.8355 36.7986 11.1753 37.0303 11.5756 37.0303C11.857 37.0303 12.1683 36.9149 12.4988 36.5841L12.8171 37.83L10.6281 42.5727C10.4893 42.838 10.5057 43.1336 10.6695 43.3775L11.7479 45.2093H8.23955C7.83496 45.2093 7.50713 45.5371 7.50713 45.9417C7.50713 46.3463 7.83496 46.6741 8.23955 46.6741H13.0283C13.0288 46.6741 13.0293 46.6742 13.0298 46.6742C13.0303 46.6742 13.0308 46.6741 13.0313 46.6741H15.2716H17.5063C17.5068 46.6741 17.5073 46.6742 17.5078 46.6742C17.5083 46.6742 17.5088 46.6741 17.5093 46.6741H28.3417C28.4009 46.6741 28.4576 46.6752 28.5116 46.6762C28.562 46.6771 28.6141 46.6781 28.6674 46.6781C28.6975 46.6781 28.7279 46.6776 28.7587 46.6769C28.7774 46.6783 28.7962 46.6797 28.8152 46.6797H28.8157L38.1789 46.6741H49.3079C49.9651 46.6741 50.4999 46.1395 50.4999 45.4825V22.3391C50.5 21.4091 49.743 20.6523 48.8125 20.6523ZM35.109 9.77754C35.6624 9.02354 35.6624 8.19307 35.109 7.43926L33.1635 4.78516H44.0131V12.4316H33.1636L35.109 9.77754ZM26.1741 34.9357C26.1945 34.9498 26.2156 34.963 26.2374 34.975C27.7204 35.8948 28.5812 36.7803 28.5812 38.8053V45.2123C28.5664 45.212 28.5519 45.2117 28.5382 45.2115C28.4757 45.2104 28.4102 45.2093 28.3418 45.2093H18.7897L19.8726 43.3701C20.0246 43.1357 20.0435 42.8595 19.9228 42.6021C19.9193 42.5939 19.9158 42.5859 19.9122 42.5779L17.7181 37.83L18.0389 36.5765C18.3715 36.9136 18.6851 37.0308 18.9686 37.0308C19.3693 37.0308 19.7104 36.798 19.9605 36.6272C20.0775 36.5474 20.1986 36.4646 20.3408 36.3819C20.3509 36.3761 20.3607 36.3701 20.3705 36.3638L24.2763 33.838C24.5389 33.9909 24.795 34.1366 25.0449 34.2785C25.4521 34.5099 25.8293 34.7241 26.1741 34.9357ZM14.1601 37.1684L13.6865 35.3146L15.2718 33.6368L16.8515 35.3073L16.3752 37.1684H14.1601ZM22.8734 33.0007L19.589 35.1248C19.4079 35.2309 19.2567 35.3342 19.1346 35.4175C19.1015 35.44 19.0638 35.4657 19.0273 35.49C19.0125 35.4722 18.9959 35.4518 18.9776 35.4284C18.9634 35.4101 18.9482 35.3925 18.9322 35.3756L16.7815 33.1014C17.0613 33.0293 17.35 32.9386 17.6536 32.8256C18.5452 32.4934 19.4093 32.0035 20.2064 31.4009L22.8734 33.0007ZM10.6462 12.1482C10.8499 12.1302 11.0368 12.0279 11.1616 11.8659C12.5794 10.0278 15.5892 10.0146 17.9431 10.8169C20.2898 11.6167 23.0303 13.6307 23.0303 16.6742V19.4679V19.9719H22.2013C20.9211 19.9719 20.088 19.1912 19.1234 18.2873C17.9295 17.1685 16.5763 15.9003 14.1642 15.9003H12.1985C10.1078 15.9003 9.76074 17.5899 9.53105 18.7079C9.26279 20.0141 9.09375 20.5915 7.89902 20.5915H7.51289V19.3435V17.9549C7.51289 17.9163 7.51211 17.8652 7.51113 17.8027C7.47314 15.353 7.98613 12.3834 10.6462 12.1482ZM7.64668 25.0436C7.55801 24.6569 7.51299 24.283 7.51299 23.9322V22.0563H7.89912C10.3388 22.0563 10.7163 20.2188 10.966 19.0026C11.2343 17.6965 11.3905 17.365 12.1986 17.365H14.1643C15.9973 17.365 17.0293 18.3321 18.1219 19.3562C19.2134 20.3791 20.342 21.4367 22.2013 21.4367H23.0303V23.9322C23.0303 24.2802 22.9858 24.6555 22.8991 25.0444C22.2926 27.7009 19.8176 30.4559 17.1422 31.4528C16.4361 31.7157 15.8417 31.8382 15.2716 31.8382C14.7015 31.8382 14.107 31.7157 13.4012 31.4528C10.7273 30.4565 8.25352 27.7015 7.64668 25.0436ZM11.5694 35.4271C11.5506 35.4513 11.5335 35.4723 11.5181 35.4904C11.4817 35.4663 11.4441 35.4406 11.4111 35.4182C11.2883 35.3346 11.1364 35.231 10.954 35.1244L7.67021 33.0008L10.3384 31.4013C11.1352 32.0038 11.9987 32.4935 12.8898 32.8255C13.1937 32.9386 13.4825 33.0294 13.7625 33.1015L12.3461 34.6006C12.3396 34.6075 12.3328 34.6142 12.3266 34.6213L11.6137 35.3758C11.5981 35.3923 11.5833 35.4094 11.5694 35.4271ZM12.0895 42.9021L14.0599 38.6332H16.4755L18.4483 42.9021L17.0899 45.2093H15.2718H13.448L12.0895 42.9021ZM49.0352 45.2093H38.9109V38.2881C38.9109 37.8835 38.5831 37.5557 38.1785 37.5557C37.7739 37.5557 37.4461 37.8835 37.4461 38.2881V45.2097L30.0461 45.2141V38.8053C30.0461 36.231 28.89 34.9663 27.3219 33.932V27.246C27.3219 27.1018 27.4441 26.9799 27.5889 26.9799H37.4461V34.908C37.4461 35.3126 37.7739 35.6404 38.1785 35.6404C38.5831 35.6404 38.9109 35.3126 38.9109 34.908V22.3391C38.9109 22.2188 39.0129 22.1173 39.1336 22.1173H44.6906C44.7088 22.1187 44.727 22.12 44.7454 22.12C44.7639 22.12 44.782 22.1186 44.8002 22.1173H48.8124C48.9331 22.1173 49.0351 22.2188 49.0351 22.3391V45.2093H49.0352Z" fill="#0077C1"/>
</svg>
