<svg width="30" height="30" viewBox="0 0 30 30" fill="none" xmlns="http://www.w3.org/2000/svg">
<path d="M18.6611 12.9785H15.2041V9.05274C15.2041 8.92384 15.0986 8.81837 14.9697 8.81837H13.2119C13.083 8.81837 12.9775 8.92384 12.9775 9.05274V12.9785H9.52048C9.39157 12.9785 9.2861 13.084 9.2861 13.2129V14.9707C9.2861 15.0996 9.39157 15.2051 9.52048 15.2051H12.9775V19.1309C12.9775 19.2598 13.083 19.3652 13.2119 19.3652H14.9697C15.0986 19.3652 15.2041 19.2598 15.2041 19.1309V15.2051H18.6611C18.79 15.2051 18.8955 15.0996 18.8955 14.9707V13.2129C18.8955 13.084 18.79 12.9785 18.6611 12.9785ZM26.9814 25.4004L22.7041 21.1231C26.2812 16.7608 26.0322 10.2979 21.9424 6.21095C17.6064 1.87208 10.5634 1.87208 6.20993 6.21095C1.87106 10.5645 1.87106 17.6074 6.20993 21.9434C10.2968 26.0332 16.7597 26.2822 21.122 22.7051L25.3994 26.9824C25.4931 27.0645 25.6425 27.0645 25.7216 26.9824L26.9814 25.7227C27.0634 25.6436 27.0634 25.4941 26.9814 25.4004ZM20.3896 20.3906C16.9091 23.8682 11.2724 23.8682 7.79196 20.3906C4.31442 16.9102 4.31442 11.2734 7.79196 7.79298C11.2724 4.31544 16.9091 4.31544 20.3896 7.79298C23.8672 11.2734 23.8672 16.9102 20.3896 20.3906Z" fill="white"/>
</svg>
