<svg width="20" height="20" viewBox="0 0 20 20" fill="none" xmlns="http://www.w3.org/2000/svg">
<path d="M13.6524 6.89453H12.7364C12.5372 6.89453 12.3477 6.99023 12.2306 7.1543L9.16024 11.4121L7.76961 9.48242C7.65242 9.32031 7.46492 9.22266 7.26375 9.22266H6.34773C6.22078 9.22266 6.14656 9.36719 6.22078 9.4707L8.65438 12.8457C8.71187 12.9259 8.78765 12.9913 8.87546 13.0364C8.96326 13.0815 9.06055 13.1051 9.15926 13.1051C9.25797 13.1051 9.35526 13.0815 9.44306 13.0364C9.53086 12.9913 9.60665 12.9259 9.66414 12.8457L13.7774 7.14258C13.8536 7.03906 13.7794 6.89453 13.6524 6.89453Z" fill="#0077C1"/>
<path d="M10 1.25C5.16797 1.25 1.25 5.16797 1.25 10C1.25 14.832 5.16797 18.75 10 18.75C14.832 18.75 18.75 14.832 18.75 10C18.75 5.16797 14.832 1.25 10 1.25ZM10 17.2656C5.98828 17.2656 2.73438 14.0117 2.73438 10C2.73438 5.98828 5.98828 2.73438 10 2.73438C14.0117 2.73438 17.2656 5.98828 17.2656 10C17.2656 14.0117 14.0117 17.2656 10 17.2656Z" fill="#0077C1"/>
</svg>
