<svg width="451" height="54" viewBox="0 0 451 54" fill="none" xmlns="http://www.w3.org/2000/svg">
<g clip-path="url(#clip0)">
<path d="M290.998 4.12982H292.248C293.198 4.12982 293.668 4.44283 293.668 5.13954C293.668 5.83625 293.168 6.14927 292.158 6.14927H290.998V4.12982ZM290.998 7.01763H291.998C292.415 6.95914 292.839 7.04835 293.198 7.27006C293.331 7.42061 293.433 7.5963 293.499 7.78695C293.564 7.97761 293.591 8.17943 293.578 8.38075C293.573 8.81026 293.627 9.23843 293.738 9.65301H294.738C294.649 9.32364 294.599 8.98468 294.588 8.64328C294.583 8.13732 294.509 7.63446 294.368 7.14888C294.191 6.87226 293.921 6.66833 293.608 6.57335C293.914 6.4504 294.174 6.23482 294.353 5.95634C294.532 5.67785 294.621 5.35015 294.608 5.01837C294.621 4.71717 294.552 4.4182 294.407 4.15449C294.262 3.89077 294.048 3.67258 293.788 3.52398C293.34 3.30712 292.844 3.20978 292.348 3.24126H289.898V9.6227H290.998V7.01763Z" fill="white"/>
<path d="M287.82 4.57404C288.072 3.97783 288.435 3.43619 288.89 2.9787C289.335 2.51697 289.869 2.15236 290.459 1.90747C291.049 1.66257 291.682 1.54261 292.32 1.55498C293.131 1.56525 293.926 1.78732 294.627 2.19959C295.328 2.61185 295.911 3.20029 296.32 3.90764C296.792 4.682 297.041 5.5734 297.04 6.48244C297.052 7.13173 296.932 7.77656 296.687 8.37733C296.443 8.97811 296.08 9.52214 295.62 9.97607C295.184 10.4409 294.656 10.8079 294.07 11.0532C293.484 11.2985 292.854 11.4166 292.22 11.3998C291.468 11.4023 290.725 11.2295 290.05 10.8949C289.267 10.4794 288.615 9.84953 288.17 9.07742C287.679 8.31504 287.425 7.42197 287.44 6.51273C287.447 5.85112 287.565 5.19551 287.79 4.57404H287.82ZM289.3 11.3392C290.177 11.8876 291.189 12.1746 292.22 12.1672C293.119 12.1757 294.007 11.9681 294.81 11.5613C295.744 11.1015 296.521 10.3701 297.04 9.46112C297.614 8.5585 297.91 7.50433 297.89 6.43195C297.889 5.52523 297.673 4.63193 297.26 3.82686C296.788 2.90826 296.081 2.13424 295.212 1.58547C294.343 1.03671 293.345 0.733288 292.32 0.706818C291.403 0.706575 290.498 0.924491 289.68 1.34293C288.742 1.81284 287.955 2.54093 287.41 3.44316C286.863 4.3564 286.579 5.40531 286.59 6.47233C286.582 7.37332 286.787 8.26322 287.19 9.06733C287.649 10.0208 288.385 10.8099 289.3 11.3291" fill="white"/>
<path d="M174.852 0.848145L160.602 52.9903H176.932L191.192 0.848145H174.852Z" fill="white"/>
<path d="M105.88 0.858261L94.14 43.7715C93.0983 44.4178 91.9025 44.7668 90.68 44.7812C89.3777 44.7738 88.1032 44.3996 87 43.7008L98.7 0.87846H82.37L69 49.5976C69.0909 49.6507 69.1885 49.6915 69.29 49.7188C69.35 49.7188 69.38 49.7188 69.41 49.7895L69.73 49.8803L69.92 49.9712C69.9745 49.9833 70.0258 50.0075 70.07 50.0419L70.33 50.1328C70.3856 50.134 70.4389 50.1555 70.48 50.1933C70.5506 50.2249 70.6243 50.2486 70.7 50.264L70.89 50.3549C70.9569 50.3611 71.0217 50.3818 71.08 50.4155C71.14 50.4155 71.24 50.4155 71.3 50.4861C71.3583 50.5198 71.4231 50.5405 71.49 50.5467L71.87 50.7083L72.12 50.7992C72.1869 50.8054 72.2517 50.8261 72.31 50.8598C72.388 50.8645 72.4636 50.8888 72.53 50.9304C72.59 50.9304 72.65 50.9304 72.72 50.991C72.79 51.0516 72.88 50.991 72.94 51.0516L73.16 51.1526C73.2461 51.1583 73.3307 51.1788 73.41 51.2132H73.54L73.79 51.304C73.85 51.304 73.91 51.304 73.98 51.304L74.2 51.3949C74.26 51.3949 74.29 51.3949 74.35 51.3949C74.4323 51.4324 74.5201 51.4563 74.61 51.4656C74.67 51.4656 74.73 51.4656 74.8 51.5262L74.98 51.5868C75.08 51.5868 75.17 51.5868 75.27 51.6574C75.37 51.7281 75.36 51.6574 75.43 51.718C75.5025 51.7279 75.5733 51.7483 75.64 51.7786C75.7391 51.7841 75.8368 51.8046 75.93 51.8392C75.9971 51.8509 76.0614 51.8748 76.12 51.9099C76.2159 51.9155 76.3103 51.9359 76.4 51.9704H76.53C76.6025 51.9803 76.6733 52.0007 76.74 52.031C76.81 52.031 76.87 52.031 76.9 52.031C77.0041 52.0631 77.1114 52.0835 77.22 52.0916C77.2395 52.0854 77.2605 52.0854 77.28 52.0916C77.53 52.1522 77.78 52.1825 78.04 52.2532L78.22 52.3138C78.29 52.3138 78.35 52.3138 78.38 52.3138C78.41 52.3138 78.57 52.3138 78.67 52.3138C78.7218 52.3331 78.772 52.3567 78.82 52.3844C78.92 52.3844 79.01 52.3844 79.11 52.3844C79.21 52.3844 79.26 52.3844 79.33 52.445H79.39C79.48 52.445 79.61 52.445 79.7 52.5056C79.7879 52.5244 79.8747 52.548 79.96 52.5763C80.029 52.5592 80.101 52.5592 80.17 52.5763C80.24 52.5763 80.3 52.5763 80.33 52.5763C80.36 52.5763 80.55 52.5763 80.68 52.5763H80.87C83.4471 53.0173 86.0562 53.2402 88.67 53.2427C91.3157 53.2379 93.957 53.0252 96.57 52.6066H96.73C96.7442 52.6002 96.7595 52.5969 96.775 52.5969C96.7905 52.5969 96.8058 52.6002 96.82 52.6066C96.91 52.6066 97.01 52.6066 97.11 52.6066L97.36 52.546C97.4083 52.5646 97.4617 52.5646 97.51 52.546C97.58 52.546 97.64 52.546 97.67 52.546C97.92 52.546 98.17 52.4551 98.43 52.4248C98.4793 52.4132 98.5307 52.4132 98.58 52.4248C98.68 52.4248 98.74 52.4248 98.83 52.3541C99.0757 52.3162 99.3194 52.2657 99.56 52.2027C99.6123 52.2173 99.6677 52.2173 99.72 52.2027C99.81 52.2027 99.91 52.2027 100 52.1421C100.032 52.1545 100.068 52.1545 100.1 52.1421C100.206 52.1357 100.31 52.1153 100.41 52.0815H100.5L100.88 51.9806L101.26 51.8897H101.35L101.7 51.7887H101.76L102.11 51.6877H102.2L102.55 51.5868C102.55 51.5868 102.55 51.5868 102.61 51.5868C102.719 51.5622 102.826 51.5284 102.93 51.4858C102.99 51.4858 103.02 51.4858 103.05 51.4858L103.43 51.3949L103.78 51.2939C103.78 51.2939 103.84 51.2939 103.9 51.2939L104.19 51.2031C104.19 51.2031 104.28 51.2031 104.31 51.1324C104.409 51.1268 104.507 51.1064 104.6 51.0718L104.75 51.0112L105.04 50.9102H105.13C105.26 50.9102 105.38 50.8194 105.48 50.7891H105.54C105.651 50.7322 105.769 50.6881 105.89 50.6578C105.909 50.6509 105.931 50.6509 105.95 50.6578C106.08 50.6578 106.2 50.5669 106.33 50.5265C106.45 50.5265 106.58 50.4357 106.71 50.4054C106.84 50.3751 106.71 50.4054 106.71 50.4054C107.24 50.2236 107.78 50.0015 108.31 49.7793H108.38C108.488 49.7156 108.602 49.6616 108.72 49.6178C108.72 49.6178 108.72 49.6178 108.79 49.6178L122.06 1.0804L105.88 0.858261Z" fill="white"/>
<path d="M210 43.7715C208.96 44.4221 207.763 44.7714 206.54 44.7812C205.237 44.7792 203.961 44.4046 202.86 43.7008L211.98 10.279C213.146 9.43353 214.545 8.97802 215.98 8.97643C217.155 8.97621 218.308 9.29347 219.32 9.89528L210 43.7715ZM217.62 0.212036C210.594 0.296986 203.653 1.78637 197.2 4.59423L184.89 49.5875C184.981 49.6406 185.078 49.6814 185.18 49.7087C185.18 49.7087 185.27 49.7087 185.3 49.7693L185.58 49.8702L185.77 49.9611C185.8 49.9612 185.83 49.9676 185.857 49.9797C185.885 49.9919 185.91 50.0096 185.93 50.0318L186.18 50.1226C186.247 50.1289 186.312 50.1496 186.37 50.1832C186.438 50.2203 186.513 50.2442 186.59 50.2539L186.78 50.3448C186.847 50.3524 186.911 50.373 186.97 50.4054C187.03 50.4054 187.09 50.4054 187.19 50.4761C187.248 50.5113 187.313 50.5321 187.38 50.5366C187.5 50.5972 187.63 50.6275 187.75 50.6982L188.04 50.7891C188.107 50.7967 188.171 50.8173 188.23 50.8496C188.296 50.8551 188.358 50.8797 188.41 50.9203C188.51 50.9203 188.57 50.9203 188.64 50.9809C188.71 51.0415 188.76 50.9809 188.82 51.0415L189.07 51.1425C189.159 51.1482 189.247 51.1687 189.33 51.2031H189.45L189.71 51.304C189.76 51.3011 189.81 51.3011 189.86 51.304L190.12 51.3949C190.18 51.3949 190.21 51.3949 190.27 51.3949C190.341 51.4235 190.415 51.4438 190.49 51.4555C190.55 51.4555 190.62 51.4555 190.68 51.5161C190.74 51.5767 190.84 51.5161 190.9 51.5766C190.985 51.5942 191.068 51.6178 191.15 51.6473C191.21 51.6473 191.28 51.6473 191.31 51.7079C191.387 51.71 191.463 51.7308 191.53 51.7685C191.626 51.7741 191.72 51.7946 191.81 51.8291C191.888 51.8324 191.964 51.8569 192.03 51.8998C192.129 51.9053 192.227 51.9257 192.32 51.9604C192.32 51.9604 192.38 51.9604 192.44 51.9604C192.507 51.9649 192.572 51.9856 192.63 52.0209C192.692 52.0021 192.758 52.0021 192.82 52.0209C192.923 52.0566 193.031 52.077 193.14 52.0815C193.14 52.0815 193.14 52.0815 193.2 52.0815C193.45 52.1421 193.7 52.1724 193.95 52.2431C194.02 52.2431 194.08 52.2431 194.14 52.3036C194.192 52.289 194.248 52.289 194.3 52.3036C194.39 52.3036 194.49 52.3036 194.55 52.3036C194.615 52.3227 194.678 52.3464 194.74 52.3743C194.84 52.3743 194.93 52.3743 194.99 52.3743L195.24 52.4349L195.58 52.4955C195.64 52.4955 195.74 52.4955 195.83 52.5662C195.903 52.5507 195.977 52.5507 196.05 52.5662C196.102 52.5516 196.158 52.5516 196.21 52.5662C196.34 52.5662 196.43 52.5662 196.53 52.5662H196.72C199.297 53.0098 201.906 53.2327 204.52 53.2326C207.166 53.225 209.807 53.0123 212.42 52.5965H212.57C212.602 52.584 212.638 52.584 212.67 52.5965H212.95C213.02 52.5965 213.11 52.5965 213.21 52.5359C213.259 52.5502 213.311 52.5502 213.36 52.5359C213.413 52.548 213.467 52.548 213.52 52.5359L214.27 52.4147C214.322 52.401 214.378 52.401 214.43 52.4147C214.49 52.4147 214.59 52.4147 214.65 52.344C214.897 52.312 215.141 52.2613 215.38 52.1926C215.44 52.1926 215.5 52.1926 215.53 52.1926C215.56 52.1926 215.75 52.1926 215.85 52.132C215.95 52.0714 215.91 52.132 215.91 52.132C216.029 52.1292 216.147 52.1087 216.26 52.0714H216.35L216.73 51.9704L217.11 51.8796H217.2L217.55 51.7786L217.89 51.6877H218.02L218.34 51.5868H218.43C218.535 51.5592 218.639 51.5255 218.74 51.4858C218.783 51.4965 218.827 51.4965 218.87 51.4858L219.25 51.3848L219.6 51.2838H219.69L220 51.193C220 51.193 220.1 51.193 220.13 51.1223C220.217 51.1216 220.302 51.1009 220.38 51.0617C220.44 51.0617 220.51 51.0617 220.57 51.0011L220.85 50.9001C220.85 50.9001 220.92 50.9001 220.95 50.9001C220.98 50.9001 221.17 50.8093 221.29 50.779C221.409 50.7159 221.537 50.6716 221.67 50.6477C221.67 50.6477 221.67 50.6477 221.73 50.6477C221.79 50.6477 221.98 50.5467 222.07 50.5164C222.16 50.4861 222.07 50.5164 222.14 50.5164C222.21 50.5164 222.39 50.4256 222.48 50.3953C222.57 50.365 222.48 50.3953 222.54 50.3953C223.08 50.2135 223.61 49.9914 224.15 49.7693C224.28 49.6986 224.4 49.6683 224.53 49.6077L236.9 4.42258C230.705 1.81994 224.07 0.448588 217.36 0.383687" fill="white"/>
<path d="M161.741 0.848145L151.731 37.8343L144.361 0.848145H128.851H128.791L114.691 53.0205H120.951L130.991 15.8425L131.081 18.1952L137.661 53.0205H147.641H153.871L168.001 0.848145H161.741Z" fill="white"/>
<path d="M265 11.3998L262.86 19.2453C262.86 19.3463 262.8 19.4372 262.77 19.5684V19.629C262.383 20.8595 261.621 21.9346 260.591 22.7001C259.562 23.4657 258.318 23.8822 257.04 23.8901H253.9L258.18 8.28983H262.83C263.132 8.29245 263.431 8.35553 263.71 8.47544C263.988 8.59535 264.24 8.76971 264.451 8.98845C264.662 9.20719 264.828 9.46598 264.939 9.74988C265.051 10.0338 265.105 10.3371 265.1 10.6425C265.093 10.9 265.05 11.1551 264.97 11.3998H265ZM281.56 6.95699C281.56 5.35022 280.928 3.80927 279.803 2.67311C278.677 1.53695 277.151 0.898651 275.56 0.898651H243.86L229.61 53.0307H245.94L252.32 29.6354H256.32C256.989 29.6485 257.627 29.9249 258.098 30.4058C258.569 30.8867 258.835 31.5341 258.84 32.2102C258.835 32.3933 258.815 32.5756 258.78 32.7554C258.769 32.8427 258.746 32.9278 258.71 33.0079L255.25 45.5587C255.05 46.1509 254.942 46.7708 254.93 47.3964C254.932 48.8585 255.5 50.2618 256.513 51.3068C257.525 52.3519 258.902 52.956 260.35 52.9903H274.6L276.02 47.7195H274.41C274.04 47.7222 273.673 47.6511 273.331 47.5103C272.988 47.3696 272.677 47.1619 272.414 46.8992C272.151 46.6366 271.942 46.3241 271.799 45.9797C271.656 45.6353 271.581 45.2658 271.58 44.8923C271.589 44.6989 271.612 44.5065 271.65 44.3167L274.89 31.8568C275.018 31.579 275.103 31.2825 275.14 30.9783V30.847C275.14 30.7461 275.14 30.6552 275.14 30.5643C275.139 29.7215 274.834 28.9079 274.282 28.2759C273.73 27.6439 272.968 27.2369 272.14 27.1313V27.0707H272.52C273.544 27.0715 274.542 26.7459 275.371 26.1403C276.201 25.5347 276.82 24.68 277.14 23.6982L280.85 9.71355C281.196 8.97645 281.409 8.1833 281.48 7.37098V7.27002L281.56 6.95699Z" fill="white"/>
<path d="M22.57 42.4993C16.42 42.4993 11.2 38.1473 9.13999 32.19L0.0499878 39.5105C2.09952 43.7953 5.29398 47.4167 9.27308 49.9662C13.2522 52.5156 17.8576 53.8918 22.57 53.9394C27.2739 53.8883 31.8707 52.515 35.8449 49.9735C39.8191 47.4321 43.0136 43.8229 45.07 39.5509L35.84 32.1193C33.91 38.1776 28.7 42.4993 22.57 42.4993Z" fill="white"/>
<path d="M22.57 11.4604C28.57 11.4604 33.74 15.6507 35.73 21.5576L45 14.2573C42.9352 10.019 39.7463 6.44236 35.7881 3.92525C31.8298 1.40814 27.2576 0.0493244 22.58 0C17.8515 0.0442248 13.2299 1.4251 9.23897 3.98606C5.24805 6.54703 2.04746 10.1857 0 14.4895L9.25 21.9312C11.13 15.8527 16.39 11.4604 22.57 11.4604Z" fill="white"/>
<path d="M27.59 18.1245L13.48 28.9488C13.7099 30.3791 14.2125 31.7507 14.96 32.9877C15.7334 33.9977 16.6578 34.88 17.7 35.6028L32.11 24.2636C31.6593 23.0252 31.04 21.8562 30.27 20.7902C29.4786 19.8029 28.5796 18.9087 27.59 18.1245Z" fill="white"/>
<path d="M322.371 7.95663C322.371 9.75393 320.901 10.2487 318.661 10.2487H310.001V5.70495H318.701C320.941 5.70495 322.411 6.19971 322.411 7.95663H322.371ZM323.501 17.0441C323.501 18.9323 322.081 19.4978 319.721 19.4978H310.001V14.6208H319.721C322.081 14.6208 323.501 15.156 323.501 17.0441ZM303.371 0.999634V24.2233H321.131C326.781 24.2233 330.361 21.8706 330.361 17.862C330.361 14.2775 327.361 12.359 323.791 12.1268C327.241 11.9248 329.041 9.64287 329.041 7.01759C329.041 3.30181 325.471 1.01983 319.821 1.01983L303.371 0.999634Z" fill="white"/>
<path d="M341.778 0.999634H335.078V24.2031H341.778V0.999634Z" fill="white"/>
<path d="M375.392 24.2031L364.592 10.2386L374.802 0.999634H366.462L354.712 11.733V0.999634H348.012V24.2031H354.712V18.8011L359.802 14.2169L367.512 24.2031H375.392Z" fill="white"/>
<path d="M403.13 19.0232H385.21V14.9136H399.69V9.97606H385.21V6.1694H402.77V0.999619H378.61V24.2031H403.13V19.0232Z" fill="white"/>
<path d="M303.328 30.0393V35.4413H312.818V53.2427H319.508V35.4413H329.068V30.0393H303.328Z" fill="white"/>
<path d="M346 48.5071C340.94 48.5071 337.83 46.0131 337.83 41.641C337.83 37.2689 341 34.785 346 34.785C351 34.785 354.17 37.2689 354.17 41.641C354.17 46.0131 351.06 48.5071 346 48.5071ZM346 29.2719C336.91 29.2719 331 33.7853 331 41.641C331 49.4966 336.88 54.0101 346 54.0101C355.12 54.0101 361 49.4966 361 41.641C361 33.7853 355.09 29.2719 346 29.2719Z" fill="white"/>
<path d="M379.559 48.5071C374.509 48.5071 371.389 46.0131 371.389 41.641C371.389 37.2689 374.539 34.7849 379.559 34.7849C384.579 34.7849 387.739 37.2689 387.739 41.641C387.739 46.0131 384.619 48.5071 379.559 48.5071ZM379.559 29.2719C370.469 29.2719 364.559 33.7853 364.559 41.641C364.559 49.4966 370.439 54.0101 379.559 54.0101C388.679 54.0101 394.559 49.4966 394.559 41.641C394.559 33.7853 388.649 29.2719 379.559 29.2719Z" fill="white"/>
<path d="M399.46 30.0393V53.2427H421.62V47.8003H406.15V30.0393H399.46Z" fill="white"/>
<path d="M438.16 38.5209C434.06 38.1978 431.4 37.9959 431.4 36.4409C431.4 34.8859 434.65 34.3508 437.34 34.3508C440.608 34.2226 443.834 35.1262 446.57 36.9357L449.95 32.7251C446.8 30.4734 442.27 29.282 437.34 29.282C430.05 29.282 424.74 31.9981 424.74 36.966C424.74 42.1357 430.94 43.6604 437.74 44.2562C442.47 44.6601 444.31 45.1548 444.31 46.6492C444.31 48.1436 442.31 48.9009 438.4 48.9009C433.8 48.9009 430.02 47.6085 427.3 45.2861L423.79 49.4663C427.4 52.3844 432.36 54.0101 438.27 54.0101C446.6 54.0101 450.97 50.7588 450.97 45.9828C450.97 40.6515 445.65 39.1571 438.13 38.5209" fill="white"/>
</g>
<defs>
<clipPath id="clip0">
<rect width="451" height="54" fill="white"/>
</clipPath>
</defs>
</svg>
