<svg width="20" height="20" viewBox="0 0 20 20" fill="none" xmlns="http://www.w3.org/2000/svg">
<path d="M10 0C5.84375 0 2.5 3.5 2.5 7.90625C2.5 11.6562 7.65625 17.8125 9.25 19.6562C9.40625 19.9062 9.75 20 10 20C10.3438 20 10.5938 19.8438 10.75 19.6562C12.3438 17.8438 17.5 11.5938 17.5 7.90625C17.5 3.5 14.1562 0 10 0ZM10 18C7.15625 14.6562 4.15625 10.25 4.15625 7.90625C4.15625 4.40625 6.75 1.65625 10 1.65625C13.25 1.65625 15.8438 4.5 15.8438 7.90625C15.8438 10.25 12.8438 14.6562 10 18Z" fill="#0077C1"/>
<path d="M9.99997 4.15625C8.15622 4.15625 6.65622 5.65625 6.65622 7.5C6.65622 9.34375 8.15622 10.8438 9.99997 10.8438C11.8437 10.8438 13.3437 9.34375 13.3437 7.5C13.3437 5.65625 11.8437 4.15625 9.99997 4.15625ZM9.99997 9.15625C9.09372 9.15625 8.34372 8.40625 8.34372 7.5C8.34372 6.59375 9.09372 5.84375 9.99997 5.84375C10.9062 5.84375 11.6562 6.59375 11.6562 7.5C11.6562 8.40625 10.9062 9.15625 9.99997 9.15625Z" fill="#0077C1"/>
</svg>
