<svg width="16" height="16" viewBox="0 0 16 16" fill="none" xmlns="http://www.w3.org/2000/svg">
<path fill-rule="evenodd" clip-rule="evenodd" d="M15.817 0.612999C15.8743 0.659934 15.9204 0.718997 15.952 0.785923C15.9837 0.852849 16 0.925967 16 0.999999V14C15.9999 14.1155 15.9598 14.2275 15.8866 14.3168C15.8133 14.4062 15.7113 14.4674 15.598 14.49L10.598 15.49C10.5333 15.5029 10.4667 15.5029 10.402 15.49L5.5 14.51L0.598 15.49C0.525489 15.5045 0.450665 15.5027 0.378921 15.4848C0.307176 15.4669 0.240296 15.4333 0.183099 15.3864C0.125903 15.3396 0.0798134 15.2806 0.0481518 15.2138C0.0164902 15.147 4.46527e-05 15.0739 0 15L0 2C6.9782e-05 1.88445 0.0401561 1.7725 0.113443 1.68317C0.186731 1.59384 0.288695 1.53265 0.402 1.51L5.402 0.509999C5.46669 0.497068 5.53331 0.497068 5.598 0.509999L10.5 1.49L15.402 0.509999C15.4745 0.495414 15.5493 0.497088 15.6211 0.514899C15.6928 0.532709 15.7597 0.566214 15.817 0.612999ZM10 2.41L6 1.61V13.59L10 14.39V2.41ZM11 14.39L15 13.59V1.61L11 2.41V14.39ZM5 13.59V1.61L1 2.41V14.39L5 13.59Z" fill="#0077C1"/>
</svg>
