<svg width="97" height="15" viewBox="0 0 97 15" fill="none" xmlns="http://www.w3.org/2000/svg">
<path d="M96 0L93.0155 15H83.0674L85.057 0L96 0Z" fill="#0070B3"/>
<path d="M83.0674 0L80.0829 15H76.1037L72.6218 4.95L74.114 15H70.1347L68.1451 0L83.0674 0Z" fill="#F7931D"/>
<rect x="65.1606" width="15" height="9.94819" transform="rotate(90 65.1606 0)" fill="#ED1A3A"/>
<rect x="49.2437" width="15" height="9.94819" transform="rotate(90 49.2437 0)" fill="#7B9540"/>
<path d="M36.8083 0L35.3161 15H31.3368L29.8446 6L30.342 15H25.3679L22.3835 0L36.8083 0Z" fill="#6FC6EF"/>
<path d="M20.3937 0V15H12.4351L13.9274 2.1L9.45067 15L4.97399 15L1.98953 0L20.3937 0Z" fill="#FECA0A"/>
</svg>
