<svg width="21" height="20" viewBox="0 0 21 20" fill="none" xmlns="http://www.w3.org/2000/svg">
<path d="M10.0282 12C7.27817 12 5.02817 9.75 5.02817 7C5.02817 4.25 7.27817 2 10.0282 2C12.7782 2 15.0282 4.25 15.0282 7C15.0282 9.75 12.7782 12 10.0282 12ZM10.0282 3.6875C8.18442 3.6875 6.68442 5.1875 6.68442 7.03125C6.68442 8.875 8.21567 10.3437 10.0282 10.3437C11.8407 10.3437 13.3719 8.84375 13.3719 7C13.3719 5.15625 11.8719 3.6875 10.0282 3.6875Z" fill="#0077C1"/>
<path d="M0.871943 18.6875C0.621943 18.6875 0.371943 18.5937 0.215693 18.3437C-0.128057 18 -0.0343072 17.4375 0.309443 17.1875C3.05944 14.9375 6.46569 13.6875 10.0594 13.6875C13.6532 13.6875 17.0594 14.9375 19.7157 17.1875C20.0594 17.5313 20.1219 18.0312 19.8094 18.3437C19.4657 18.6875 18.9657 18.75 18.6532 18.4375C16.2782 16.4375 13.2157 15.3437 10.0282 15.3437C6.84069 15.3437 3.77819 16.4375 1.37194 18.5C1.27819 18.5937 1.02819 18.6875 0.871943 18.6875Z" fill="#0077C1"/>
</svg>
