<svg width="20" height="20" viewBox="0 0 20 20" fill="none" xmlns="http://www.w3.org/2000/svg">
<path d="M17.9062 14.1562C17.5625 14.1562 17.3125 14.25 17 14.3125L16.1562 13.4062C17.5 12.6562 18.5625 11.5 19.0625 9.90625L19.6562 8.0625C19.75 7.8125 20 6.96875 19.5625 6.40625C19.2188 6 18.7188 5.75 18.0625 5.75H5.5625L4.65625 2.84375C4.40625 2.1875 3.8125 1.6875 3.0625 1.6875H0.84375C0.34375 1.65625 0 2 0 2.5C0 3 0.34375 3.34375 0.84375 3.34375H3.09375L4.1875 6.84375V13.3438V14.1875V17.2812C4.1875 17.6875 4.4375 18.125 4.84375 18.2812C5 18.375 5.09375 18.375 5.25 18.375C5.5 18.375 5.75 18.2812 5.90625 18.125L11.0625 14.2187H13.3125C13.7188 14.2187 14.0625 14.125 14.4688 14.125L15.9688 15.7187C15.875 15.875 15.8125 16.0625 15.8125 16.3125C15.8125 17.4687 16.7188 18.4062 17.9062 18.4062C19.0625 18.4062 20 17.5 20 16.3125C20 15.125 19.0938 14.1562 17.9062 14.1562ZM5.84375 16V14.1562H8.34375L5.84375 16ZM5.84375 12.5V7.5H18.0938H18.1875V7.59375L17.5 9.40625C16.9062 11.25 15.1562 12.5 13.3438 12.5H5.84375ZM17.9062 16.6562C17.6562 16.6562 17.5 16.5 17.5 16.25C17.5 16 17.6562 15.8437 17.9062 15.8437C18.1562 15.8437 18.3125 16 18.3125 16.25C18.3125 16.5 18.1562 16.6562 17.9062 16.6562Z" fill="#0077C1"/>
</svg>
